<?xml version="1.0" encoding="UTF-8"?>
<svg xmlns="http://www.w3.org/2000/svg" version="1.1" viewBox="0 0 1000 445">
  <defs>
    <style>
      .cls-1, .cls-2 {
        fill: #7c297d;
      }

      .cls-3 {
        stroke: #f79a23;
        stroke-width: 1.5035162px;
      }

      .cls-3, .cls-4 {
        fill: #f79a23;
      }

      .cls-3, .cls-2 {
        stroke-miterlimit: 10;
      }

      .cls-2 {
        stroke: #7c297d;
        stroke-width: 2.9899001px;
      }

      .cls-5 {
        fill: #dd552c;
      }

      .cls-6 {
        fill: #d22128;
      }
    </style>
  </defs>
  <!-- Generator: Adobe Illustrator 28.7.8, SVG Export Plug-In . SVG Version: 1.2.0 Build 200)  -->
  <g>
    <g id="Layer_1">
      <g>
        <g>
          <g>
            <path class="cls-5" d="M116.0302914,177.809563c11.2015006-27.698516,23.6997161-55.3427044,37.110064-79.844468-20.018304-14.868616-39.2402792-46.930499-47.1378018-61.135746-2.8364744,3.2224866-4.6778953,6.9339219-5.5128253,9.9533947-7.4400267,26.863586,19.0446956,59.3029031-2.2874794,47.4509005-17.7737148-9.8761923-57.7960261-31.5043099-73.0620916-10.0077223,17.0974787,21.9683802,61.8162711,77.2396008,90.8901341,93.5836411Z"/>
            <path class="cls-4" d="M153.1403554,97.965095c12.9943126-23.7411767,26.8421409-44.5343643,41.1989334-59.5144949,0,0-14.319621,20.7274226-34.772546,62.1622523,12.3867009,3.4112036,47.663922,10.4108906,96.8018386-2.2817607,1.2080751-8.9297477-4.7951287-18.7516123-34.71107-22.0398639-19.5307849-2.1445119,23.4423747-46.635986-7.6887901-67.677937-1.0050613-.6805251-1.9929664-1.2809885-2.9608561-1.8185461-1.0436625-.3745747-2.1459416-.7176967-3.3225638-1.023647-36.3580552-9.4873208-41.3976582,52.1631081-55.9059962,38.9100244-23.445234-21.4165258-38.243796-16.4126646-45.7767515-7.851773,7.8975226,14.205247,27.1194978,46.2671299,47.1378018,61.135746Z"/>
            <path class="cls-6" d="M86.7877268,257.6140001c8.207762-24.5875441,18.0810949-52.211717,29.2425646-79.8044371-29.073863-16.3440402-73.7926553-71.6152609-90.8901341-93.5836411-3.0523553,4.2947425-5.1382506,10.2850792-5.8330724,18.4771147-3.7285914,44.0025253,41.666437,76.5790912,32.6165967,82.5293969-11.9706656,7.8717884-35.7961931-18.9088765-45.1862959-1.8928892,13.6105023,17.4849206,41.3347525,49.0778702,80.0503411,74.2744557Z"/>
            <path class="cls-5" d="M212.5676402,162.7150584c-22.9848788-8.1977543,24.0185336-30.1832905,39.2817398-53.5070022,1.9529355-2.9823013,3.9716361-6.836704,4.5192015-10.8769645-49.1379166,12.6926512-84.4151377,5.6929643-96.8018386,2.2817607-10.5881702,21.4536973-22.8147475,48.4888443-35.5660154,81.0854256,13.2802475,5.6786676,67.5049464,26.6548536,144.0954749,26.7635088,12.8770793-33.5401665-33.7145868-37.9692985-55.5285621-45.7467284Z"/>
            <path class="cls-6" d="M95.6688655,262.0402727c13.5061361,4.2089621,58.257811,16.7815206,105.7859139,14.8886315,6.3849268-17.2876255-17.4863502-18.9746415-19.4307077-32.8396259-1.5054474-10.7282783,62.8213323,9.0155281,83.5187318-29.9945735,1.0465218-1.972951,1.862866-3.8343873,2.5533989-5.632918-76.5905286-.1086553-130.8152274-21.0848412-144.0954749-26.7635088-9.3186192,23.8212385-18.9045875,50.5561538-28.3318619,80.3419948Z"/>
            <path class="cls-1" d="M95.6688655,262.0402727c-6.0689687,19.1719366-12.056446,39.6534552-17.8680734,61.2987289-2.0615908,7.6744933-4.0988771,15.4919541-6.10757,23.4809759,45.1105232,14.8914908,86.6497192.0343122,88.0579487-18.3798969.0114374-.1458268-.0157264-.2544821-.0071484-.3945902,1.0736856-19.5036211-28.1588712-8.6924217-27.4669087-20.4186129.6948219-11.8119717,51.0350948-.0686244,66.6028217-25.3938805,1.1937783-1.9414981,1.9715213-3.6656857,2.574844-5.3040928-47.528103,1.8928892-92.2797778-10.6796694-105.7859139-14.8886315Z"/>
            <path class="cls-1" d="M6.7373856,183.3395444c-.6576503,1.1923486-1.2509653,2.570555-1.7570701,4.2175401-8.7424603,28.4133533,53.0766701,66.5828062,44.6658944,74.9035125-7.5815645,7.4972137-17.4620458-9.6360069-29.6457328-2.5591176-1.3353161.777743-2.6906476,1.7584998-4.081721,3.185315-13.779204,14.1166072-.2158809,54.7851313,38.8785715,76.4933107-9.1227537,30.6322083-18.2054766,64.8557593-27.096623,100.6462337,3.2253459-1.1294429,7.0854674-2.2617452,8.0462087-5.3040928,1.4425417-5.9302903,10.3579926-42.0152776,24.8334481-90.9701959,0,0,2.6420387-10.0277378,7.4786279-26.5490576,4.4720222-15.277503,10.8269259-36.1135808,18.7287375-59.7889925-38.7155886-25.1965854-66.4398388-56.7895351-80.0503411-74.2744557Z"/>
          </g>
          <g>
            <path class="cls-1" d="M381.314706,199.7734834h-58.3526873v-39.3417117h158.9508514v39.3417117h-58.3526873v145.486082h-42.2454769v-145.486082Z"/>
            <path class="cls-1" d="M509.8979255,160.4317717h41.9826927v184.8277937h-41.9826927v-184.8277937Z"/>
            <path class="cls-1" d="M593.8589312,160.4317717h41.9826927v71.0276443h15.5772623c20.8592243,0,28.7807075-5.5447462,34.8539419-22.9717171l17.4269709-48.0559271h45.6777303l-25.6112382,65.7456822c-4.7534738,12.1464688-10.2982201,21.3877125-17.691215,28.5164634l49.9041759,90.5656481h-49.1114436l-39.3417117-74.9869259-9.7697319.2642441h-21.9147408v74.7226818h-41.9826927v-184.8277937Z"/>
            <path class="cls-1" d="M836.5094641,160.4317717h41.1899604l73.4029213,184.8277937h-44.8864579l-12.4107129-31.9487167h-73.4029213l-12.6734971,31.9487167h-44.6222138l73.4029213-184.8277937ZM883.2441707,280.3066155l-26.1397264-67.593931-25.8769423,67.593931h52.0166687Z"/>
          </g>
          <g>
            <path class="cls-2" d="M353.5778357,65.3695943h5.1155321l25.0579316,60.6929264h-5.549126l-6.4163137-15.3465962h-31.3866506l-6.4163137,15.3465962h-5.549126l25.1440664-60.6929264ZM370.1390788,106.1201212l-14.0458145-34.0743488-13.9596797,34.0743488h28.0054941Z"/>
            <path class="cls-2" d="M401.7870536,65.3695943h19.2489412c14.3056788,0,22.542503,7.2820416,22.542503,20.0285343,0,12.7450328-8.2368242,20.0285343-22.542503,20.0285343h-14.0472744v20.6358578h-5.2016669v-60.6929264ZM420.7746706,100.65859c11.6194405,0,17.5145657-5.116992,17.5145657-15.2604613,0-9.9711998-5.8951251-15.1743265-17.5145657-15.1743265h-13.7859501v30.4347879h13.7859501Z"/>
            <path class="cls-2" d="M477.3944422,65.3695943h5.1155321l25.0579316,60.6929264h-5.549126l-6.4163137-15.3465962h-31.3866506l-6.4163137,15.3465962h-5.549126l25.1440664-60.6929264ZM493.9556852,106.1201212l-14.0458145-34.0743488-13.9596797,34.0743488h28.0054941Z"/>
            <path class="cls-2" d="M518.8413471,95.7153275c0-18.5540231,12.9187623-31.3866506,30.8669219-31.3866506,13.9596797,0,25.3177959,7.8893651,29.220141,20.6358578h-5.4629911c-3.4687512-9.6252006-12.5727631-15.6064605-23.5834203-15.6064605-14.9130023,0-25.665255,10.7507928-25.665255,26.3572533,0,15.6079204,10.7522527,26.3587133,25.5776603,26.3587133,11.3595762,0,20.7234525-6.2425842,24.1046089-16.2999188h5.549126c-3.7286155,13.0924919-15.3465962,21.329316-29.7398697,21.329316-17.9481596,0-30.8669219-12.8326275-30.8669219-31.3881105Z"/>
            <path class="cls-2" d="M641.6170363,97.6234327h-35.7225896v28.439088h-5.2016669v-60.6929264h5.2016669v27.2244411h35.7225896v-27.2244411h5.2892616v60.6929264h-5.2892616v-28.439088Z"/>
            <path class="cls-2" d="M672.9190119,65.3695943h35.7225896v4.6819382h-30.5209227v22.7162325h28.2668184v4.768073h-28.2668184v23.7586098h31.4742453v4.768073h-36.6759122v-60.6929264Z"/>
          </g>
        </g>
        <path class="cls-3" d="M768.9199129,184.764127v-24.0155543h-4.3125804c-1.0890944,0-1.6321817-.4715516-1.6321817-1.4161148,0-.9577023.5430873-1.4365535,1.6321817-1.4365535h5.7929313c.9869006,0,1.4803509.4788512,1.4803509,1.4365535v25.4316691h4.5724447c1.1182927,0,1.6759791.5080494,1.6759791,1.5241482,0,.9007658-.5576864,1.3504187-1.6759791,1.3504187h-12.9990575c-1.1182927,0-1.6759791-.4788512-1.6759791-1.4365535,0-.9591623.5576864-1.4380134,1.6759791-1.4380134h5.465911Z"/>
        <path class="cls-3" d="M755.7661047,224.996385v-24.0155543h-4.3096606c-1.0890944,0-1.6351016-.4715516-1.6351016-1.4161148,0-.9577023.5460071-1.4365535,1.6351016-1.4365535h5.7900115c.9869006,0,1.4803509.4788512,1.4803509,1.4365535v25.4316691h4.5724447c1.1182927,0,1.6788989.5080494,1.6788989,1.5241482,0,.9007658-.5606063,1.3504187-1.6788989,1.3504187h-12.9990575c-1.1182927,0-1.6759791-.4788512-1.6759791-1.4365535,0-.9591623.5576864-1.4380134,1.6759791-1.4380134h5.465911Z"/>
        <path class="cls-3" d="M792.9121086,218.1800554v-24.0155543h-4.3111205c-1.0890944,0-1.6336417-.4715516-1.6336417-1.4161148,0-.9577023.5445472-1.4365535,1.6336417-1.4365535h5.7914714c.9869006,0,1.4803509.4788512,1.4803509,1.4365535v25.4316691h4.5724447c1.1182927,0,1.677439.5080494,1.677439,1.5241482,0,.9007658-.5591463,1.3504187-1.677439,1.3504187h-12.9990575c-1.1182927,0-1.6759791-.4788512-1.6759791-1.4365535,0-.9591623.5576864-1.4380134,1.6759791-1.4380134h5.465911Z"/>
        <path class="cls-3" d="M877.6059902,354.8643272v-24.0155543h-4.3111205c-1.0890944,0-1.6336417-.4715516-1.6336417-1.4161148,0-.9577023.5445472-1.4365535,1.6336417-1.4365535h5.7914714c.9869006,0,1.4803509.4788512,1.4803509,1.4365535v25.4316691h4.5724447c1.1182927,0,1.677439.5080494,1.677439,1.5241482,0,.9007658-.5591463,1.3504187-1.677439,1.3504187h-12.9990575c-1.1182927,0-1.6759791-.4788512-1.6759791-1.4365535,0-.9591623.5576864-1.4380134,1.6759791-1.4380134h5.465911Z"/>
        <path class="cls-3" d="M857.5380382,269.7937883v-24.0155543h-4.3111205c-1.0890944,0-1.6336417-.4715516-1.6336417-1.4161148,0-.9577023.5445472-1.4365535,1.6336417-1.4365535h5.7914714c.9869006,0,1.4803509.4788512,1.4803509,1.4365535v25.4316691h4.5724447c1.1182927,0,1.677439.5080494,1.677439,1.5241482,0,.9007658-.5591463,1.3504187-1.677439,1.3504187h-12.9990575c-1.1182927,0-1.6759791-.4788512-1.6759791-1.4365535,0-.9591623.5576864-1.4380134,1.6759791-1.4380134h5.465911Z"/>
        <path class="cls-3" d="M911.6058834,195.2535955v-24.0155543h-4.3125804c-1.0890944,0-1.6321817-.4715516-1.6321817-1.4161148,0-.9577023.5430873-1.4365535,1.6321817-1.4365535h5.7929313c.9869006,0,1.4803509.4788512,1.4803509,1.4365535v25.4316691h4.5724447c1.1182927,0,1.6759791.5080494,1.6759791,1.5241482,0,.9007658-.5576864,1.3504187-1.6759791,1.3504187h-12.9990575c-1.1182927,0-1.6759791-.4788512-1.6759791-1.4365535,0-.9591623.5576864-1.4380134,1.6759791-1.4380134h5.465911Z"/>
        <path class="cls-3" d="M953.9769128,226.3482637v-24.0155543h-4.3111205c-1.0890944,0-1.6336417-.4715516-1.6336417-1.4161148,0-.9577023.5445472-1.4365535,1.6336417-1.4365535h5.7914714c.9869006,0,1.4803509.4788512,1.4803509,1.4365535v25.4316691h4.5724447c1.1182927,0,1.677439.5080494,1.677439,1.5241482,0,.9007658-.5591463,1.3504187-1.677439,1.3504187h-12.9990575c-1.1182927,0-1.6759791-.4788512-1.6759791-1.4365535,0-.9591623.5576864-1.4380134,1.6759791-1.4380134h5.465911Z"/>
        <path class="cls-3" d="M957.6047944,315.1517978v-24.0155543h-4.3111205c-1.0890944,0-1.6336417-.4715516-1.6336417-1.4161148,0-.9577023.5445472-1.4365535,1.6336417-1.4365535h5.7914714c.9869006,0,1.4803509.4788512,1.4803509,1.4365535v25.4316691h4.5724447c1.1182927,0,1.677439.5080494,1.677439,1.5241482,0,.9007658-.5591463,1.3504187-1.677439,1.3504187h-12.9990575c-1.1182927,0-1.6759791-.4788512-1.6759791-1.4365535,0-.9591623.5576864-1.4380134,1.6759791-1.4380134h5.465911Z"/>
        <path class="cls-3" d="M974.488678,273.6158382v-24.0155543h-4.3111205c-1.0890944,0-1.6336417-.4715516-1.6336417-1.4161148,0-.9577023.5445472-1.4365535,1.6336417-1.4365535h5.7914714c.9869006,0,1.4803509.4788512,1.4803509,1.4365535v25.4316691h4.5724447c1.1182927,0,1.677439.5080494,1.677439,1.5241482,0,.9007658-.5591463,1.3504187-1.677439,1.3504187h-12.9990575c-1.1182927,0-1.6759791-.4788512-1.6759791-1.4365535,0-.9591623.5576864-1.4380134,1.6759791-1.4380134h5.465911Z"/>
        <path class="cls-3" d="M970.3425276,355.5621652v-24.0155543h-4.3111205c-1.0890944,0-1.6336417-.4715516-1.6336417-1.4161148,0-.9577023.5445472-1.4365535,1.6336417-1.4365535h5.7914714c.9869006,0,1.4803509.4788512,1.4803509,1.4365535v25.4316691h4.5724447c1.1182927,0,1.677439.5080494,1.677439,1.5241482,0,.9007658-.5591463,1.3504187-1.677439,1.3504187h-12.9990575c-1.1182927,0-1.6759791-.4788512-1.6759791-1.4365535,0-.9591623.5576864-1.4380134,1.6759791-1.4380134h5.465911Z"/>
        <path class="cls-3" d="M758.7720637,303.3586278v-24.0155543h-4.3111205c-1.0890944,0-1.6336417-.4715516-1.6336417-1.4161148,0-.9577023.5445472-1.4365535,1.6336417-1.4365535h5.7914714c.9869006,0,1.4803509.4788512,1.4803509,1.4365535v25.4316691h4.5724447c1.1182927,0,1.677439.5080494,1.677439,1.5241482,0,.9007658-.5591463,1.3504187-1.677439,1.3504187h-12.9990575c-1.1182927,0-1.6759791-.4788512-1.6759791-1.4365535,0-.9591623.5576864-1.4380134,1.6759791-1.4380134h5.465911Z"/>
        <path class="cls-3" d="M655.6278128,312.3881842l-.265704-24.0140944-4.3096606.0481771c-1.0890944.0116793-1.6380214-.4540327-1.6497007-1.3985958-.0116793-.9577023.5284882-1.4423932,1.6175826-1.4540725l5.7929313-.0642361c.9869006-.0102194,1.4832707.4627921,1.49495,1.4204945l.2803031,25.4302091,4.5724447-.0510969c1.1182927-.0116793,1.6818188.4905305,1.6934981,1.5066293.0087595.9007658-.5430873,1.3562584-1.66138,1.3679377l-12.9990575.1445313c-1.1182927.0116793-1.6818188-.4613322-1.6905782-1.4190346-.0116793-.9591623.5401675-1.4438531,1.6584602-1.4555324l5.465911-.0613163Z"/>
        <path class="cls-3" d="M568.9163327,198.783663v-24.0155543h-4.3111205c-1.0890944,0-1.6336417-.4715516-1.6336417-1.4161148,0-.9577023.5445472-1.4365535,1.6336417-1.4365535h5.7914714c.9869006,0,1.4803509.4788512,1.4803509,1.4365535v25.4316691h4.5724447c1.1182927,0,1.677439.5080494,1.677439,1.5241482,0,.9007658-.5591463,1.3504187-1.677439,1.3504187h-12.9990575c-1.1182927,0-1.6759791-.4788512-1.6759791-1.4365535,0-.9591623.5576864-1.4380134,1.6759791-1.4380134h5.465911Z"/>
        <path class="cls-3" d="M575.2698702,339.8549708v-24.0155543h-4.3111205c-1.0890944,0-1.6336417-.4715516-1.6336417-1.4161148,0-.9577023.5445472-1.4365535,1.6336417-1.4365535h5.7914714c.9869006,0,1.4803509.4788512,1.4803509,1.4365535v25.4316691h4.5724447c1.1182927,0,1.677439.5080494,1.677439,1.5241482,0,.9007658-.5591463,1.3504187-1.677439,1.3504187h-12.9990575c-1.1182927,0-1.6759791-.4788512-1.6759791-1.4365535,0-.9591623.5576864-1.4380134,1.6759791-1.4380134h5.465911Z"/>
        <path class="cls-3" d="M568.1440392,295.6152539v-24.0155543h-4.3111205c-1.0890944,0-1.6336417-.4715516-1.6336417-1.4161148,0-.9577023.5445472-1.4365535,1.6336417-1.4365535h5.7914714c.9869006,0,1.4803509.4788512,1.4803509,1.4365535v25.4316691h4.5724447c1.1182927,0,1.677439.5080494,1.677439,1.5241482,0,.9007658-.5591463,1.3504187-1.677439,1.3504187h-12.9990575c-1.1182927,0-1.6759791-.4788512-1.6759791-1.4365535,0-.9591623.5576864-1.4380134,1.6759791-1.4380134h5.465911Z"/>
        <path class="cls-3" d="M445.9639942,239.4363758v-24.0155543h-4.3111205c-1.0890944,0-1.6336417-.4715516-1.6336417-1.4161148,0-.9577023.5445472-1.4365535,1.6336417-1.4365535h5.7914714c.9869006,0,1.4803509.4788512,1.4803509,1.4365535v25.4316691h4.5724447c1.1182927,0,1.677439.5080494,1.677439,1.5241482,0,.9007658-.5591463,1.3504187-1.677439,1.3504187h-12.9990575c-1.1182927,0-1.6759791-.4788512-1.6759791-1.4365535,0-.9591623.5576864-1.4380134,1.6759791-1.4380134h5.465911Z"/>
        <path class="cls-3" d="M493.4052983,347.0421181v-24.0155543h-4.3096606c-1.0890944,0-1.6351016-.4715516-1.6351016-1.4161148,0-.9577023.5460071-1.4365535,1.6351016-1.4365535h5.7900115c.9869006,0,1.4803509.4788512,1.4803509,1.4365535v25.4316691h4.5724447c1.1182927,0,1.6788989.5080494,1.6788989,1.5241482,0,.9007658-.5606063,1.3504187-1.6788989,1.3504187h-12.9990575c-1.1182927,0-1.6759791-.4788512-1.6759791-1.4365535,0-.9591623.5576864-1.4380134,1.6759791-1.4380134h5.465911Z"/>
        <path class="cls-3" d="M478.3098071,266.7221332v-24.0155543h-4.3111205c-1.0890944,0-1.6336417-.4715516-1.6336417-1.4161148,0-.9577023.5445472-1.4365535,1.6336417-1.4365535h5.7914714c.9869006,0,1.4803509.4788512,1.4803509,1.4365535v25.4316691h4.5724447c1.1182927,0,1.677439.5080494,1.677439,1.5241482,0,.9007658-.5591463,1.3504187-1.677439,1.3504187h-12.9990575c-1.1182927,0-1.6759791-.4788512-1.6759791-1.4365535,0-.9591623.5576864-1.4380134,1.6759791-1.4380134h5.465911Z"/>
        <path class="cls-3" d="M494.6170254,219.6253684v-24.0155543h-4.3125804c-1.0890944,0-1.6321817-.4715516-1.6321817-1.4161148,0-.9577023.5430873-1.4365535,1.6321817-1.4365535h5.7929313c.9869006,0,1.4803509.4788512,1.4803509,1.4365535v25.4316691h4.5724447c1.1182927,0,1.6759791.5080494,1.6759791,1.5241482,0,.9007658-.5576864,1.3504187-1.6759791,1.3504187h-12.9990575c-1.1182927,0-1.6759791-.4788512-1.6759791-1.4365535,0-.9591623.5576864-1.4380134,1.6759791-1.4380134h5.465911Z"/>
        <path class="cls-3" d="M443.3142537,333.1014173v-24.0155543h-4.3111205c-1.0890944,0-1.6336417-.4715516-1.6336417-1.4161148,0-.9577023.5445472-1.4365535,1.6336417-1.4365535h5.7914714c.9869006,0,1.4803509.4788512,1.4803509,1.4365535v25.4316691h4.5724447c1.1182927,0,1.677439.5080494,1.677439,1.5241482,0,.9007658-.5591463,1.3504187-1.677439,1.3504187h-12.9990575c-1.1182927,0-1.6759791-.4788512-1.6759791-1.4365535,0-.9591623.5576864-1.4380134,1.6759791-1.4380134h5.465911Z"/>
        <path class="cls-3" d="M357.7152266,245.1606912v-24.0155543h-4.3111205c-1.0890944,0-1.6336417-.4715516-1.6336417-1.4161148,0-.9577023.5445472-1.4365535,1.6336417-1.4365535h5.7914714c.9869006,0,1.4803509.4788512,1.4803509,1.4365535v25.4316691h4.5724447c1.1182927,0,1.677439.5080494,1.677439,1.5241482,0,.9007658-.5591463,1.3504187-1.677439,1.3504187h-12.9990575c-1.1182927,0-1.6759791-.4788512-1.6759791-1.4365535,0-.9591623.5576864-1.4380134,1.6759791-1.4380134h5.465911Z"/>
        <path class="cls-3" d="M325.781109,304.601013v-24.0155543h-4.3096606c-1.0890944,0-1.6351016-.4715516-1.6351016-1.4161148,0-.9577023.5460071-1.4365535,1.6351016-1.4365535h5.7900115c.9869006,0,1.4803509.4788512,1.4803509,1.4365535v25.4316691h4.5724447c1.1182927,0,1.6788989.5080494,1.6788989,1.5241482,0,.9007658-.5606063,1.3504187-1.6788989,1.3504187h-12.9990575c-1.1182927,0-1.6759791-.4788512-1.6759791-1.4365535,0-.9591623.5576864-1.4380134,1.6759791-1.4380134h5.465911Z"/>
        <path class="cls-3" d="M297.0237602,262.0781528v-24.0155543h-4.3125804c-1.0890944,0-1.6321817-.4715516-1.6321817-1.4161148,0-.9577023.5430873-1.4365535,1.6321817-1.4365535h5.7929313c.9869006,0,1.4803509.4788512,1.4803509,1.4365535v25.4316691h4.5724447c1.1182927,0,1.6759791.5080494,1.6759791,1.5241482,0,.9007658-.5576864,1.3504187-1.6759791,1.3504187h-12.9990575c-1.1182927,0-1.6759791-.4788512-1.6759791-1.4365535,0-.9591623.5576864-1.4380134,1.6759791-1.4380134h5.465911Z"/>
        <path class="cls-3" d="M295.3331819,312.2786908v-24.0155543h-4.3111205c-1.0890944,0-1.6336417-.4730115-1.6336417-1.4161148,0-.9577023.5445472-1.4365535,1.6336417-1.4365535h5.7914714c.9869006,0,1.4803509.4788512,1.4803509,1.4365535v25.4316691h4.5724447c1.1182927,0,1.677439.5080494,1.677439,1.5241482,0,.8993059-.5591463,1.3489588-1.677439,1.3489588h-12.9990575c-1.1182927,0-1.6759791-.4788512-1.6759791-1.4365535s.5576864-1.4365535,1.6759791-1.4365535h5.465911Z"/>
        <path class="cls-3" d="M354.602694,339.8549708v-24.0155543h-4.3111205c-1.0890944,0-1.6336417-.4715516-1.6336417-1.4161148,0-.9577023.5445472-1.4365535,1.6336417-1.4365535h5.7914714c.9869006,0,1.4803509.4788512,1.4803509,1.4365535v25.4316691h4.5724447c1.1182927,0,1.677439.5080494,1.677439,1.5241482,0,.9007658-.5591463,1.3504187-1.677439,1.3504187h-12.9990575c-1.1182927,0-1.6759791-.4788512-1.6759791-1.4365535,0-.9591623.5576864-1.4380134,1.6759791-1.4380134h5.465911Z"/>
        <path class="cls-3" d="M301.9962208,211.5359953v-24.0155543h-4.3096606c-1.0890944,0-1.6351016-.4715516-1.6351016-1.4161148,0-.9577023.5460071-1.4365535,1.6351016-1.4365535h5.7900115c.9869006,0,1.4803509.4788512,1.4803509,1.4365535v25.4316691h4.5724447c1.1182927,0,1.6788989.5080494,1.6788989,1.5241482,0,.9007658-.5606063,1.3504187-1.6788989,1.3504187h-12.9990575c-1.1182927,0-1.6759791-.4788512-1.6759791-1.4365535,0-.9591623.5576864-1.4380134,1.6759791-1.4380134h5.465911Z"/>
        <path class="cls-3" d="M728.7635702,264.1103505v-12.6296997c0-2.6847784.8233904-4.8804862,2.4716312-6.5871235,1.6467809-1.7051774,3.9154843-2.557766,6.8046504-2.557766,2.8877062,0,5.1388906.8569684,6.7491737,2.5694453,1.611743,1.7124769,2.4176145,3.9052649,2.4176145,6.5754442v12.6296997c0,2.9607018-.7839728,5.2250255-2.3519184,6.7929711s-3.8395689,2.3519184-6.8148698,2.3519184c-2.8891661,0-5.1578695-.8058715-6.8046504-2.4176145-1.6482408-1.6102831-2.4716312-3.854168-2.4716312-6.727275ZM744.2240395,264.1103505v-12.6296997c0-1.8424091-.5562265-3.3490384-1.6657597-4.518428-1.1109931-1.1679297-2.6891581-1.7518945-4.7359549-1.7518945-4.0497962,0-6.0746943,2.0905941-6.0746943,6.2703225v12.6296997c0,1.9884003.5503869,3.5344472,1.6540804,4.6366809,1.1036936,1.1036936,2.6570401,1.6555403,4.6600395,1.6555403,4.1081927,0,6.162289-2.0978937,6.162289-6.2922212Z"/>
        <path class="cls-3" d="M768.4264626,255.2370046v-12.6311596c0-2.6833185.8233904-4.8790263,2.4701713-6.5871235,1.6467809-1.7051774,3.9154843-2.557766,6.8061103-2.557766,2.8877062,0,5.1388906.8584283,6.7477138,2.5694453,1.611743,1.7139368,2.4176145,3.9067248,2.4176145,6.5754442v12.6311596c0,2.9607018-.7825129,5.2235656-2.3504585,6.7915112s-3.8395689,2.3533783-6.8148698,2.3533783c-2.890626,0-5.1593294-.8058715-6.8061103-2.4176145-1.6467809-1.611743-2.4701713-3.854168-2.4701713-6.727275ZM783.8869319,255.2370046v-12.6311596c0-1.8424091-.5576864-3.3490384-1.6672196-4.5169681s-2.6891581-1.7518945-4.7359549-1.7518945c-4.0497962,0-6.0732344,2.0905941-6.0732344,6.2688626v12.6311596c0,1.9884003.548927,3.5329873,1.6526205,4.6366809s2.6570401,1.6555403,4.6600395,1.6555403c4.1081927,0,6.163749-2.0993536,6.163749-6.2922212Z"/>
        <path class="cls-3" d="M799.4802532,173.6892336v-12.6311596c0-2.6833185.8233904-4.8790263,2.4716312-6.5871235,1.6467809-1.7051774,3.9154843-2.557766,6.8046504-2.557766,2.8877062,0,5.1388906.8584283,6.7491737,2.5694453,1.611743,1.7139368,2.4176145,3.9067248,2.4176145,6.5754442v12.6311596c0,2.9607018-.7839728,5.2235656-2.3519184,6.7915112-1.5679456,1.5679456-3.8395689,2.3533783-6.8148698,2.3533783-2.8891661,0-5.1578695-.8058715-6.8046504-2.4176145-1.6482408-1.611743-2.4716312-3.854168-2.4716312-6.727275ZM814.9407225,173.6892336v-12.6311596c0-1.8424091-.5562265-3.3490384-1.6657597-4.5169681-1.1109931-1.1679297-2.6891581-1.7518945-4.7359549-1.7518945-4.0497962,0-6.0746943,2.0905941-6.0746943,6.2688626v12.6311596c0,1.9884003.5503869,3.5329873,1.6540804,4.6366809,1.1036936,1.1036936,2.6570401,1.6555403,4.6600395,1.6555403,4.1081927,0,6.162289-2.0993536,6.162289-6.2922212Z"/>
        <path class="cls-3" d="M834.2626593,344.9661231v-12.6296997c0-2.6847784.8233904-4.8804862,2.4730911-6.5871235,1.6467809-1.7051774,3.9154843-2.557766,6.8031905-2.557766s5.1388906.8569684,6.7506336,2.5694453,2.4176145,3.9052649,2.4176145,6.5754442v12.6296997c0,2.9607018-.7854327,5.2250255-2.3533783,6.7929711-1.5679456,1.5679456-3.8395689,2.3519184-6.8148698,2.3519184-2.8877062,0-5.1564096-.8058715-6.8031905-2.4176145-1.6497007-1.6102831-2.4730911-3.854168-2.4730911-6.727275ZM849.7231287,344.9661231v-12.6296997c0-1.8424091-.5547666-3.3490384-1.6642998-4.518428-1.112453-1.1679297-2.6891581-1.7518945-4.7359549-1.7518945-4.0497962,0-6.0761542,2.0905941-6.0761542,6.2703225v12.6296997c0,1.9884003.5518468,3.5344472,1.6555403,4.6366809,1.1036936,1.1036936,2.6570401,1.6555403,4.6600395,1.6555403,4.1081927,0,6.1608291-2.0978937,6.1608291-6.2922212Z"/>
        <path class="cls-3" d="M467.0042476,304.4302033v-12.6296997c0-2.6847784.8233904-4.8804862,2.4716312-6.5871235,1.6467809-1.7051774,3.9154843-2.557766,6.8046504-2.557766,2.8877062,0,5.1388906.8569684,6.7491737,2.5694453,1.611743,1.7124769,2.4176145,3.9052649,2.4176145,6.5754442v12.6296997c0,2.9607018-.7839728,5.2250255-2.3519184,6.7929711-1.5679456,1.5679456-3.8395689,2.3519184-6.8148698,2.3519184-2.8891661,0-5.1578695-.8058715-6.8046504-2.4176145-1.6482408-1.6102831-2.4716312-3.854168-2.4716312-6.727275ZM482.464717,304.4302033v-12.6296997c0-1.8424091-.5562265-3.3490384-1.6657597-4.518428-1.1109931-1.1679297-2.6891581-1.7518945-4.7359549-1.7518945-4.0497962,0-6.0746943,2.0905941-6.0746943,6.2703225v12.6296997c0,1.9884003.5503869,3.5344472,1.6540804,4.6366809,1.1036936,1.1036936,2.6570401,1.6555403,4.6600395,1.6555403,4.1081927,0,6.162289-2.0978937,6.162289-6.2922212Z"/>
        <path class="cls-3" d="M439.1418249,281.0701495v-12.6296997c0-2.6847784.8233904-4.8804862,2.4716312-6.5871235,1.6467809-1.7051774,3.9154843-2.557766,6.8046504-2.557766,2.8877062,0,5.1388906.8569684,6.7491737,2.5694453,1.611743,1.7124769,2.4176145,3.9052649,2.4176145,6.5754442v12.6296997c0,2.9607018-.7839728,5.2250255-2.3519184,6.7929711s-3.8395689,2.3519184-6.8148698,2.3519184c-2.8891661,0-5.1578695-.8058715-6.8046504-2.4176145-1.6482408-1.6102831-2.4716312-3.854168-2.4716312-6.727275ZM454.6022942,281.0701495v-12.6296997c0-1.8424091-.5562265-3.3490384-1.6657597-4.518428-1.1109931-1.1679297-2.6891581-1.7518945-4.7359549-1.7518945-4.0497962,0-6.0746943,2.0905941-6.0746943,6.2703225v12.6296997c0,1.9884003.5503869,3.5344472,1.6540804,4.6366809,1.1036936,1.1036936,2.6570401,1.6555403,4.6600395,1.6555403,4.1081927,0,6.162289-2.0978937,6.162289-6.2922212Z"/>
        <path class="cls-3" d="M317.4625298,249.6367817v-12.6296997c0-2.6847784.8233904-4.8804862,2.4730911-6.5871235,1.6467809-1.7051774,3.9154843-2.557766,6.8031905-2.557766s5.1388906.8569684,6.7506336,2.5694453,2.4176145,3.9052649,2.4176145,6.5754442v12.6296997c0,2.9607018-.7854327,5.2250255-2.3533783,6.7929711s-3.8395689,2.3519184-6.8148698,2.3519184c-2.8877062,0-5.1564096-.8058715-6.8031905-2.4176145-1.6497007-1.6102831-2.4730911-3.854168-2.4730911-6.727275ZM332.9229991,249.6367817v-12.6296997c0-1.8424091-.5547666-3.3490384-1.6642998-4.518428-1.112453-1.1679297-2.6891581-1.7518945-4.7359549-1.7518945-4.0497962,0-6.0761542,2.0905941-6.0761542,6.2703225v12.6296997c0,1.9884003.5518468,3.5344472,1.6555403,4.6366809,1.1036936,1.1036936,2.6570401,1.6555403,4.6600395,1.6555403,4.1081927,0,6.1608291-2.0978937,6.1608291-6.2922212Z"/>
        <path class="cls-3" d="M343.2985945,286.1389644v-12.6296997c0-2.6847784.8233904-4.8804862,2.4716312-6.5871235,1.6467809-1.7051774,3.9154843-2.557766,6.8046504-2.557766,2.8877062,0,5.1388906.8569684,6.7491737,2.5694453,1.611743,1.7124769,2.4176145,3.9052649,2.4176145,6.5754442v12.6296997c0,2.9607018-.7839728,5.2250255-2.3519184,6.7929711-1.5679456,1.5679456-3.8395689,2.3519184-6.8148698,2.3519184-2.8891661,0-5.1578695-.8058715-6.8046504-2.4176145-1.6482408-1.6102831-2.4716312-3.854168-2.4716312-6.727275ZM358.7590638,286.1389644v-12.6296997c0-1.8424091-.5562265-3.3490384-1.6657597-4.518428-1.1109931-1.1679297-2.6891581-1.7518945-4.7359549-1.7518945-4.0497962,0-6.0746943,2.0905941-6.0746943,6.2703225v12.6296997c0,1.9884003.5503869,3.5344472,1.6540804,4.6366809,1.1036936,1.1036936,2.6570401,1.6555403,4.6600395,1.6555403,4.1081927,0,6.162289-2.0978937,6.162289-6.2922212Z"/>
        <path class="cls-3" d="M314.1470694,346.3077823v-12.6296997c0-2.6847784.8233904-4.8804862,2.4716312-6.5871235,1.6467809-1.7051774,3.9154843-2.557766,6.8046504-2.557766,2.8877062,0,5.1388906.8569684,6.7491737,2.5694453,1.611743,1.7124769,2.4176145,3.9052649,2.4176145,6.5754442v12.6296997c0,2.9607018-.7839728,5.2250255-2.3519184,6.7929711-1.5679456,1.5679456-3.8395689,2.3519184-6.8148698,2.3519184-2.8891661,0-5.1578695-.8058715-6.8046504-2.4176145-1.6482408-1.6102831-2.4716312-3.854168-2.4716312-6.727275ZM329.6075387,346.3077823v-12.6296997c0-1.8424091-.5562265-3.3490384-1.6657597-4.518428-1.1109931-1.1679297-2.6891581-1.7518945-4.7359549-1.7518945-4.0497962,0-6.0746943,2.0905941-6.0746943,6.2703225v12.6296997c0,1.9884003.5503869,3.5344472,1.6540804,4.6366809,1.1036936,1.1036936,2.6570401,1.6555403,4.6600395,1.6555403,4.1081927,0,6.162289-2.0978937,6.162289-6.2922212Z"/>
        <path class="cls-3" d="M563.9628509,242.8204521v-12.6296997c0-2.6847784.8233904-4.8804862,2.4730911-6.5871235,1.6467809-1.7051774,3.9154843-2.557766,6.8031905-2.557766s5.1388906.8569684,6.7506336,2.5694453c1.611743,1.7124769,2.4176145,3.9052649,2.4176145,6.5754442v12.6296997c0,2.9607018-.7854327,5.2250255-2.3533783,6.7929711-1.5679456,1.5679456-3.8395689,2.3519184-6.8148698,2.3519184-2.8877062,0-5.1564096-.8058715-6.8031905-2.4176145-1.6497007-1.6102831-2.4730911-3.854168-2.4730911-6.727275ZM579.4233202,242.8204521v-12.6296997c0-1.8424091-.5547666-3.3490384-1.6642998-4.518428-1.112453-1.1679297-2.6891581-1.7518945-4.7359549-1.7518945-4.0497962,0-6.0761542,2.0905941-6.0761542,6.2703225v12.6296997c0,1.9884003.5518468,3.5344472,1.6555403,4.6366809,1.1036936,1.1036936,2.6570401,1.6555403,4.6600395,1.6555403,4.1081927,0,6.1608291-2.0978937,6.1608291-6.2922212Z"/>
        <path class="cls-3" d="M665.2296548,343.9325053v-12.6296997c0-2.6847784.8233904-4.8804862,2.4716312-6.5871235,1.6467809-1.7051774,3.9154843-2.557766,6.8046504-2.557766,2.8877062,0,5.1388906.8569684,6.7491737,2.5694453,1.611743,1.7124769,2.4176145,3.9052649,2.4176145,6.5754442v12.6296997c0,2.9607018-.7839728,5.2250255-2.3519184,6.7929711s-3.8395689,2.3519184-6.8148698,2.3519184c-2.8891661,0-5.1578695-.8058715-6.8046504-2.4176145-1.6482408-1.6102831-2.4716312-3.854168-2.4716312-6.727275ZM680.6901241,343.9325053v-12.6296997c0-1.8424091-.5562265-3.3490384-1.6657597-4.518428-1.1109931-1.1679297-2.6891581-1.7518945-4.7359549-1.7518945-4.0497962,0-6.0746943,2.0905941-6.0746943,6.2703225v12.6296997c0,1.9884003.5503869,3.5344472,1.6540804,4.6366809,1.1036936,1.1036936,2.6570401,1.6555403,4.6600395,1.6555403,4.1081927,0,6.162289-2.0978937,6.162289-6.2922212Z"/>
        <path class="cls-3" d="M652.0933656,204.0116083v-12.6296997c0-2.6847784.8233904-4.8804862,2.4716312-6.5871235,1.6467809-1.7051774,3.9154843-2.557766,6.8046504-2.557766,2.8877062,0,5.1388906.8569684,6.7491737,2.5694453,1.611743,1.7124769,2.4176145,3.9052649,2.4176145,6.5754442v12.6296997c0,2.9607018-.7839728,5.2250255-2.3519184,6.7929711s-3.8395689,2.3519184-6.8148698,2.3519184c-2.8891661,0-5.1578695-.8058715-6.8046504-2.4176145-1.6482408-1.6102831-2.4716312-3.854168-2.4716312-6.727275ZM667.5538349,204.0116083v-12.6296997c0-1.8424091-.5562265-3.3490384-1.6657597-4.518428-1.1109931-1.1679297-2.6891581-1.7518945-4.7359549-1.7518945-4.0497962,0-6.0746943,2.0905941-6.0746943,6.2703225v12.6296997c0,1.9884003.5503869,3.5344472,1.6540804,4.6366809,1.1036936,1.1036936,2.6570401,1.6555403,4.6600395,1.6555403,4.1081927,0,6.162289-2.0978937,6.162289-6.2922212Z"/>
        <path class="cls-3" d="M916.6119221,231.2959058v-12.6296997c0-2.6847784.8233904-4.8804862,2.4716312-6.5871235,1.6467809-1.7051774,3.9154843-2.557766,6.8046504-2.557766,2.8877062,0,5.1388906.8569684,6.7491737,2.5694453,1.611743,1.7124769,2.4176145,3.9052649,2.4176145,6.5754442v12.6296997c0,2.9607018-.7839728,5.2250255-2.3519184,6.7929711-1.5679456,1.5679456-3.8395689,2.3519184-6.8148698,2.3519184-2.8891661,0-5.1578695-.8058715-6.8046504-2.4176145-1.6482408-1.6102831-2.4716312-3.854168-2.4716312-6.727275ZM932.0723914,231.2959058v-12.6296997c0-1.8424091-.5562265-3.3490384-1.6657597-4.518428-1.1109931-1.1679297-2.6891581-1.7518945-4.7359549-1.7518945-4.0497962,0-6.0746943,2.0905941-6.0746943,6.2703225v12.6296997c0,1.9884003.5503869,3.5344472,1.6540804,4.6366809,1.1036936,1.1036936,2.6570401,1.6555403,4.6600395,1.6555403,4.1081927,0,6.162289-2.0978937,6.162289-6.2922212Z"/>
        <path class="cls-3" d="M977.4260212,314.6437484v-12.6296997c0-2.6847784.8233904-4.8804862,2.4716312-6.5871235,1.6467809-1.7051774,3.9154843-2.557766,6.8046504-2.557766,2.8877062,0,5.1388906.8569684,6.7491737,2.5694453,1.611743,1.7124769,2.4176145,3.9052649,2.4176145,6.5754442v12.6296997c0,2.9607018-.7839728,5.2250255-2.3519184,6.7929711s-3.8395689,2.3519184-6.8148698,2.3519184c-2.8891661,0-5.1578695-.8058715-6.8046504-2.4176145-1.6482408-1.6102831-2.4716312-3.854168-2.4716312-6.727275ZM992.8864905,314.6437484v-12.6296997c0-1.8424091-.5562265-3.3490384-1.6657597-4.518428-1.1109931-1.1679297-2.6891581-1.7518945-4.7359549-1.7518945-4.0497962,0-6.0746943,2.0905941-6.0746943,6.2703225v12.6296997c0,1.9884003.5503869,3.5344472,1.6540804,4.6366809,1.1036936,1.1036936,2.6570401,1.6555403,4.6600395,1.6555403,4.1081927,0,6.162289-2.0978937,6.162289-6.2922212Z"/>
        <path class="cls-3" d="M935.6783743,267.9338603v-12.6296997c0-2.6847784.8233904-4.8804862,2.4716312-6.5871235,1.6467809-1.7051774,3.9154843-2.557766,6.8046504-2.557766,2.8877062,0,5.1388906.8569684,6.7491737,2.5694453,1.611743,1.7124769,2.4176145,3.9052649,2.4176145,6.5754442v12.6296997c0,2.9607018-.7839728,5.2250255-2.3519184,6.7929711s-3.8395689,2.3519184-6.8148698,2.3519184c-2.8891661,0-5.1578695-.8058715-6.8046504-2.4176145-1.6482408-1.6102831-2.4716312-3.854168-2.4716312-6.727275ZM951.1388436,267.9338603v-12.6296997c0-1.8424091-.5562265-3.3490384-1.6657597-4.518428-1.1109931-1.1679297-2.6891581-1.7518945-4.7359549-1.7518945-4.0497962,0-6.0746943,2.0905941-6.0746943,6.2703225v12.6296997c0,1.9884003.5503869,3.5344472,1.6540804,4.6366809,1.1036936,1.1036936,2.6570401,1.6555403,4.6600395,1.6555403,4.1081927,0,6.162289-2.0978937,6.162289-6.2922212Z"/>
      </g>
    </g>
  </g>
</svg>