  999
FreeCAD v0.19 24291 (Git)
  0
SECTION
  2
HEADER
 9
$ACADVER
 1
AC1009
 0
ENDSEC
 0
SECTION
 2
ENTITIES
 0
POLYLINE
 8
TITLE
 66
1
 70
1
 10
0.0
 20
0.0
 30
0.0
 0
VERTEX
 8
TITLE
 10
 -2.5400
 20
  2.5400
 30
0.0
 0
VERTEX
 8
TITLE
 10
347.2180
 20
  2.5400
 30
0.0
 0
VERTEX
 8
TITLE
 10
347.2180
 20
212.3440
 30
0.0
 0
VERTEX
 8
TITLE
 10
 -2.5400
 20
212.3440
 30
0.0
 0
SEQEND
 8
TITLE
 0
POLYLINE
 8
TITLE
 66
1
 70
1
 10
0.0
 20
0.0
 30
0.0
 0
VERTEX
 8
TITLE
 10
  0.0000
 20
  5.0800
 30
0.0
 0
VERTEX
 8
TITLE
 10
344.6780
 20
  5.0800
 30
0.0
 0
VERTEX
 8
TITLE
 10
344.6780
 20
209.8040
 30
0.0
 0
VERTEX
 8
TITLE
 10
  0.0000
 20
209.8040
 30
0.0
 0
SEQEND
 8
TITLE
 0
POLYLINE
 8
TITLE
 66
1
 10
0.0
 20
0.0
 30
0.0
 0
VERTEX
 8
TITLE
 10
 72.8980
 20
  5.0800
 30
0.0
 0
VERTEX
 8
TITLE
 10
 72.8980
 20
  2.5400
 30
0.0
 0
SEQEND
 8
TITLE
 0
POLYLINE
 8
TITLE
 66
1
 10
0.0
 20
0.0
 30
0.0
 0
VERTEX
 8
TITLE
 10
 72.8980
 20
209.8040
 30
0.0
 0
VERTEX
 8
TITLE
 10
 72.8980
 20
212.3440
 30
0.0
 0
SEQEND
 8
TITLE
 0
POLYLINE
 8
TITLE
 66
1
 10
0.0
 20
0.0
 30
0.0
 0
VERTEX
 8
TITLE
 10
140.7160
 20
  5.0800
 30
0.0
 0
VERTEX
 8
TITLE
 10
140.7160
 20
  2.5400
 30
0.0
 0
SEQEND
 8
TITLE
 0
POLYLINE
 8
TITLE
 66
1
 10
0.0
 20
0.0
 30
0.0
 0
VERTEX
 8
TITLE
 10
140.7160
 20
209.8040
 30
0.0
 0
VERTEX
 8
TITLE
 10
140.7160
 20
212.3440
 30
0.0
 0
SEQEND
 8
TITLE
 0
POLYLINE
 8
TITLE
 66
1
 10
0.0
 20
0.0
 30
0.0
 0
VERTEX
 8
TITLE
 10
208.5340
 20
  5.0800
 30
0.0
 0
VERTEX
 8
TITLE
 10
208.5340
 20
  2.5400
 30
0.0
 0
SEQEND
 8
TITLE
 0
POLYLINE
 8
TITLE
 66
1
 10
0.0
 20
0.0
 30
0.0
 0
VERTEX
 8
TITLE
 10
208.5340
 20
209.8040
 30
0.0
 0
VERTEX
 8
TITLE
 10
208.5340
 20
212.3440
 30
0.0
 0
SEQEND
 8
TITLE
 0
POLYLINE
 8
TITLE
 66
1
 10
0.0
 20
0.0
 30
0.0
 0
VERTEX
 8
TITLE
 10
276.3520
 20
  5.0800
 30
0.0
 0
VERTEX
 8
TITLE
 10
276.3520
 20
  2.5400
 30
0.0
 0
SEQEND
 8
TITLE
 0
POLYLINE
 8
TITLE
 66
1
 10
0.0
 20
0.0
 30
0.0
 0
VERTEX
 8
TITLE
 10
276.3520
 20
209.8040
 30
0.0
 0
VERTEX
 8
TITLE
 10
276.3520
 20
212.3440
 30
0.0
 0
SEQEND
 8
TITLE
 0
TEXT
 8
TITLE
 10
 38.8620
 20
  3.0480
 30
0.0
 40
  1.2700
 1
5
 0
TEXT
 8
TITLE
 10
 38.8620
 20
210.3120
 30
0.0
 40
  1.2700
 1
5
 0
TEXT
 8
TITLE
 10
106.6800
 20
  3.0480
 30
0.0
 40
  1.2700
 1
4
 0
TEXT
 8
TITLE
 10
106.6800
 20
210.3120
 30
0.0
 40
  1.2700
 1
4
 0
TEXT
 8
TITLE
 10
174.4980
 20
  3.0480
 30
0.0
 40
  1.2700
 1
3
 0
TEXT
 8
TITLE
 10
174.4980
 20
210.3120
 30
0.0
 40
  1.2700
 1
3
 0
TEXT
 8
TITLE
 10
242.3160
 20
  3.0480
 30
0.0
 40
  1.2700
 1
2
 0
TEXT
 8
TITLE
 10
242.3160
 20
210.3120
 30
0.0
 40
  1.2700
 1
2
 0
TEXT
 8
TITLE
 10
310.1340
 20
  3.0480
 30
0.0
 40
  1.2700
 1
1
 0
TEXT
 8
TITLE
 10
310.1340
 20
210.3120
 30
0.0
 40
  1.2700
 1
1
 0
POLYLINE
 8
TITLE
 66
1
 10
0.0
 20
0.0
 30
0.0
 0
VERTEX
 8
TITLE
 10
 -2.5400
 20
154.9400
 30
0.0
 0
VERTEX
 8
TITLE
 10
  0.0000
 20
154.9400
 30
0.0
 0
SEQEND
 8
TITLE
 0
POLYLINE
 8
TITLE
 66
1
 10
0.0
 20
0.0
 30
0.0
 0
VERTEX
 8
TITLE
 10
344.6780
 20
154.9400
 30
0.0
 0
VERTEX
 8
TITLE
 10
347.2180
 20
154.9400
 30
0.0
 0
SEQEND
 8
TITLE
 0
SOLID
 8
TITLE
 10
  0.0000
 20
105.1560
 30
0.0
 11
 -1.2700
 21
105.6640
 31
0.0
 12
 -1.2700
 22
104.6480
 32
0.0
 13
 -1.2700
 23
105.1560
 33
0.0
 0
SOLID
 8
TITLE
 10
344.6780
 20
105.1560
 30
0.0
 11
345.9480
 21
105.6640
 31
0.0
 12
345.9480
 22
104.6480
 32
0.0
 13
345.9480
 23
105.1560
 33
0.0
 0
POLYLINE
 8
TITLE
 66
1
 10
0.0
 20
0.0
 30
0.0
 0
VERTEX
 8
TITLE
 10
 -2.5400
 20
105.1560
 30
0.0
 0
VERTEX
 8
TITLE
 10
  0.0000
 20
105.1560
 30
0.0
 0
SEQEND
 8
TITLE
 0
POLYLINE
 8
TITLE
 66
1
 10
0.0
 20
0.0
 30
0.0
 0
VERTEX
 8
TITLE
 10
344.6780
 20
105.1560
 30
0.0
 0
VERTEX
 8
TITLE
 10
347.2180
 20
105.1560
 30
0.0
 0
SEQEND
 8
TITLE
 0
SOLID
 8
TITLE
 10
  0.0000
 20
105.1560
 30
0.0
 11
 -1.2700
 21
105.6640
 31
0.0
 12
 -1.2700
 22
104.6480
 32
0.0
 13
 -1.2700
 23
105.1560
 33
0.0
 0
SOLID
 8
TITLE
 10
344.6780
 20
105.1560
 30
0.0
 11
345.9480
 21
105.6640
 31
0.0
 12
345.9480
 22
104.6480
 32
0.0
 13
345.9480
 23
105.1560
 33
0.0
 0
POLYLINE
 8
TITLE
 66
1
 10
0.0
 20
0.0
 30
0.0
 0
VERTEX
 8
TITLE
 10
 -2.5400
 20
 55.3720
 30
0.0
 0
VERTEX
 8
TITLE
 10
  0.0000
 20
 55.3720
 30
0.0
 0
SEQEND
 8
TITLE
 0
POLYLINE
 8
TITLE
 66
1
 10
0.0
 20
0.0
 30
0.0
 0
VERTEX
 8
TITLE
 10
344.6780
 20
 55.3720
 30
0.0
 0
VERTEX
 8
TITLE
 10
347.2180
 20
 55.3720
 30
0.0
 0
SEQEND
 8
TITLE
 0
SOLID
 8
TITLE
 10
  0.0000
 20
105.1560
 30
0.0
 11
 -1.2700
 21
105.6640
 31
0.0
 12
 -1.2700
 22
104.6480
 32
0.0
 13
 -1.2700
 23
105.1560
 33
0.0
 0
SOLID
 8
TITLE
 10
344.6780
 20
105.1560
 30
0.0
 11
345.9480
 21
105.6640
 31
0.0
 12
345.9480
 22
104.6480
 32
0.0
 13
345.9480
 23
105.1560
 33
0.0
 0
TEXT
 8
TITLE
 10
 -2.0320
 20
179.8320
 30
0.0
 40
  1.2700
 1
D
 0
TEXT
 8
TITLE
 10
345.1860
 20
179.8320
 30
0.0
 40
  1.2700
 1
D
 0
TEXT
 8
TITLE
 10
 -2.0320
 20
130.0480
 30
0.0
 40
  1.2700
 1
C
 0
TEXT
 8
TITLE
 10
345.1860
 20
130.0480
 30
0.0
 40
  1.2700
 1
C
 0
TEXT
 8
TITLE
 10
 -2.0320
 20
 80.2640
 30
0.0
 40
  1.2700
 1
B
 0
TEXT
 8
TITLE
 10
345.1860
 20
 80.2640
 30
0.0
 40
  1.2700
 1
B
 0
TEXT
 8
TITLE
 10
 -2.0320
 20
 30.4800
 30
0.0
 40
  1.2700
 1
A
 0
TEXT
 8
TITLE
 10
345.1860
 20
 30.4800
 30
0.0
 40
  1.2700
 1
A
 0
TEXT
 8
TITLE
 10
261.3660
 20
 13.3963
 30
0.0
 40
  1.3057
 1
<Doc>
 0
TEXT
 8
TITLE
 10
327.4060
 20
 13.3963
 30
0.0
 40
  1.3057
 1
<RevCode>
 0
TEXT
 8
TITLE
 10
266.4460
 20
 21.0163
 30
0.0
 40
  1.3057
 1
Power supply for LIPCA ROBOT - Biorobotics Lab
 0
TEXT
 8
TITLE
 10
253.7460
 20
 13.3963
 30
0.0
 40
  1.3057
 1
Custom
 0
TEXT
 8
TITLE
 10
314.7060
 20
  8.3163
 30
0.0
 40
  1.3057
 1
1
 0
TEXT
 8
TITLE
 10
329.9460
 20
  8.3163
 30
0.0
 40
  1.3057
 1
2
 0
TEXT
 8
TITLE
 10
264.4140
 20
  8.3163
 30
0.0
 40
  1.3057
 1
Saturday, October 08, 2011
 0
TEXT
 8
PARTTEXT
 10
251.2060
 20
 23.5563
 30
0.0
 40
  1.3057
 1
Title
 0
TEXT
 8
PARTTEXT
 10
251.2060
 20
 15.9363
 30
0.0
 40
  1.3057
 1
Size
 0
TEXT
 8
PARTTEXT
 10
261.3660
 20
 15.9363
 30
0.0
 40
  1.3057
 1
Document Number
 0
TEXT
 8
PARTTEXT
 10
335.0260
 20
 15.9363
 30
0.0
 40
  1.3057
 1
Rev
 0
TEXT
 8
PARTTEXT
 10
251.2060
 20
  8.3163
 30
0.0
 40
  1.3057
 1
Date:
 0
TEXT
 8
PARTTEXT
 10
302.0060
 20
  8.3163
 30
0.0
 40
  1.3057
 1
Sheet
 0
POLYLINE
 8
TITLE
 66
1
 70
1
 10
0.0
 20
0.0
 30
0.0
 0
VERTEX
 8
TITLE
 10
251.2060
 20
 29.9720
 30
0.0
 0
VERTEX
 8
TITLE
 10
342.6460
 20
 29.9720
 30
0.0
 0
VERTEX
 8
TITLE
 10
342.6460
 20
 24.8920
 30
0.0
 0
VERTEX
 8
TITLE
 10
251.2060
 20
 24.8920
 30
0.0
 0
SEQEND
 8
TITLE
 0
POLYLINE
 8
TITLE
 66
1
 70
1
 10
0.0
 20
0.0
 30
0.0
 0
VERTEX
 8
TITLE
 10
251.2060
 20
 24.8920
 30
0.0
 0
VERTEX
 8
TITLE
 10
342.6460
 20
 24.8920
 30
0.0
 0
VERTEX
 8
TITLE
 10
342.6460
 20
 17.2720
 30
0.0
 0
VERTEX
 8
TITLE
 10
251.2060
 20
 17.2720
 30
0.0
 0
SEQEND
 8
TITLE
 0
POLYLINE
 8
TITLE
 66
1
 70
1
 10
0.0
 20
0.0
 30
0.0
 0
VERTEX
 8
TITLE
 10
251.2060
 20
 17.2720
 30
0.0
 0
VERTEX
 8
TITLE
 10
258.8260
 20
 17.2720
 30
0.0
 0
VERTEX
 8
TITLE
 10
258.8260
 20
  9.6520
 30
0.0
 0
VERTEX
 8
TITLE
 10
251.2060
 20
  9.6520
 30
0.0
 0
SEQEND
 8
TITLE
 0
POLYLINE
 8
TITLE
 66
1
 70
1
 10
0.0
 20
0.0
 30
0.0
 0
VERTEX
 8
TITLE
 10
258.8260
 20
 17.2720
 30
0.0
 0
VERTEX
 8
TITLE
 10
335.0260
 20
 17.2720
 30
0.0
 0
VERTEX
 8
TITLE
 10
335.0260
 20
  9.6520
 30
0.0
 0
VERTEX
 8
TITLE
 10
258.8260
 20
  9.6520
 30
0.0
 0
SEQEND
 8
TITLE
 0
POLYLINE
 8
TITLE
 66
1
 70
1
 10
0.0
 20
0.0
 30
0.0
 0
VERTEX
 8
TITLE
 10
335.0260
 20
 17.2720
 30
0.0
 0
VERTEX
 8
TITLE
 10
342.6460
 20
 17.2720
 30
0.0
 0
VERTEX
 8
TITLE
 10
342.6460
 20
  9.6520
 30
0.0
 0
VERTEX
 8
TITLE
 10
335.0260
 20
  9.6520
 30
0.0
 0
SEQEND
 8
TITLE
 0
POLYLINE
 8
TITLE
 66
1
 70
1
 10
0.0
 20
0.0
 30
0.0
 0
VERTEX
 8
TITLE
 10
251.2060
 20
  9.6520
 30
0.0
 0
VERTEX
 8
TITLE
 10
302.0060
 20
  9.6520
 30
0.0
 0
VERTEX
 8
TITLE
 10
302.0060
 20
  7.1120
 30
0.0
 0
VERTEX
 8
TITLE
 10
251.2060
 20
  7.1120
 30
0.0
 0
SEQEND
 8
TITLE
 0
POLYLINE
 8
TITLE
 66
1
 70
1
 10
0.0
 20
0.0
 30
0.0
 0
VERTEX
 8
TITLE
 10
302.0060
 20
  9.6520
 30
0.0
 0
VERTEX
 8
TITLE
 10
342.6460
 20
  9.6520
 30
0.0
 0
VERTEX
 8
TITLE
 10
342.6460
 20
  7.1120
 30
0.0
 0
VERTEX
 8
TITLE
 10
302.0060
 20
  7.1120
 30
0.0
 0
SEQEND
 8
TITLE
 0
TEXT
 8
PARTTEXT
 10
322.3260
 20
  8.3163
 30
0.0
 40
  1.3057
 1
of
 0
TEXT
 8
PARTTEXT
 10
 48.0060
 20
165.7963
 30
0.0
 40
  1.3057
 1
U21
 0
TEXT
 8
PARTTEXT
 10
 48.0060
 20
137.8563
 30
0.0
 40
  1.3057
 1
ACCEL
 0
LINE
 8
PARTS
 10
 40.3860
 20
149.3520
 30
0.0
 11
 48.0060
 21
149.3520
 31
0.0
 0
TEXT
 8
PARTS
 10
 50.2920
 20
148.7170
 30
0.0
 40
  1.2700
 1
/SLP
 0
TEXT
 8
PARTS
 10
 45.4660
 20
150.1140
 30
0.0
 40
  1.2700
 1
3
 0
LINE
 8
PARTS
 10
 40.3860
 20
144.2720
 30
0.0
 11
 48.0060
 21
144.2720
 31
0.0
 0
TEXT
 8
PARTS
 10
 50.2920
 20
143.6370
 30
0.0
 40
  1.2700
 1
GND
 0
TEXT
 8
PARTS
 10
 45.4660
 20
145.0340
 30
0.0
 40
  1.2700
 1
4
 0
LINE
 8
PARTS
 10
 83.5660
 20
159.5120
 30
0.0
 11
 75.9460
 21
159.5120
 31
0.0
 0
TEXT
 8
PARTS
 10
 70.6120
 20
158.8770
 30
0.0
 40
  1.2700
 1
VCC
 0
TEXT
 8
PARTS
 10
 77.4700
 20
160.2740
 30
0.0
 40
  1.2700
 1
8
 0
LINE
 8
PARTS
 10
 40.3860
 20
159.5120
 30
0.0
 11
 48.0060
 21
159.5120
 31
0.0
 0
TEXT
 8
PARTS
 10
 50.2920
 20
158.8770
 30
0.0
 40
  1.2700
 1
gSelect1
 0
TEXT
 8
PARTS
 10
 45.4660
 20
160.2740
 30
0.0
 40
  1.2700
 1
1
 0
LINE
 8
PARTS
 10
 83.5660
 20
144.2720
 30
0.0
 11
 75.9460
 21
144.2720
 31
0.0
 0
TEXT
 8
PARTS
 10
 68.5800
 20
143.6370
 30
0.0
 40
  1.2700
 1
Z-out
 0
TEXT
 8
PARTS
 10
 77.4700
 20
145.0340
 30
0.0
 40
  1.2700
 1
5
 0
LINE
 8
PARTS
 10
 40.3860
 20
154.4320
 30
0.0
 11
 48.0060
 21
154.4320
 31
0.0
 0
TEXT
 8
PARTS
 10
 50.2920
 20
153.7970
 30
0.0
 40
  1.2700
 1
gSelect2
 0
TEXT
 8
PARTS
 10
 45.4660
 20
155.1940
 30
0.0
 40
  1.2700
 1
2
 0
LINE
 8
PARTS
 10
 83.5660
 20
149.3520
 30
0.0
 11
 75.9460
 21
149.3520
 31
0.0
 0
TEXT
 8
PARTS
 10
 68.5800
 20
148.7170
 30
0.0
 40
  1.2700
 1
Y-out
 0
TEXT
 8
PARTS
 10
 77.4700
 20
150.1140
 30
0.0
 40
  1.2700
 1
6
 0
LINE
 8
PARTS
 10
 83.5660
 20
154.4320
 30
0.0
 11
 75.9460
 21
154.4320
 31
0.0
 0
TEXT
 8
PARTS
 10
 68.5800
 20
153.7970
 30
0.0
 40
  1.2700
 1
X-out
 0
TEXT
 8
PARTS
 10
 77.4700
 20
155.1940
 30
0.0
 40
  1.2700
 1
7
 0
POLYLINE
 8
PARTS
 66
1
 70
1
 10
0.0
 20
0.0
 30
0.0
 0
VERTEX
 8
PARTS
 10
 48.0060
 20
162.0520
 30
0.0
 0
VERTEX
 8
PARTS
 10
 75.9460
 20
162.0520
 30
0.0
 0
VERTEX
 8
PARTS
 10
 75.9460
 20
141.7320
 30
0.0
 0
VERTEX
 8
PARTS
 10
 48.0060
 20
141.7320
 30
0.0
 0
SEQEND
 8
PARTS
 0
TEXT
 8
PARTTEXT
 10
101.3460
 20
183.5763
 30
0.0
 40
  1.3057
 1
J1
 0
TEXT
 8
PARTTEXT
 10
101.3460
 20
155.6363
 30
0.0
 40
  1.3057
 1
AVR_PROGRAMMER
 0
LINE
 8
PARTS
 10
114.0460
 20
174.7520
 30
0.0
 11
106.4260
 21
174.7520
 31
0.0
 0
TEXT
 8
PARTS
 10
107.9500
 20
175.5140
 30
0.0
 40
  1.2700
 1
1
 0
LINE
 8
PARTS
 10
114.0460
 20
172.2120
 30
0.0
 11
106.4260
 21
172.2120
 31
0.0
 0
TEXT
 8
PARTS
 10
107.9500
 20
172.9740
 30
0.0
 40
  1.2700
 1
2
 0
LINE
 8
PARTS
 10
114.0460
 20
169.6720
 30
0.0
 11
106.4260
 21
169.6720
 31
0.0
 0
TEXT
 8
PARTS
 10
107.9500
 20
170.4340
 30
0.0
 40
  1.2700
 1
3
 0
LINE
 8
PARTS
 10
114.0460
 20
167.1320
 30
0.0
 11
106.4260
 21
167.1320
 31
0.0
 0
TEXT
 8
PARTS
 10
107.9500
 20
167.8940
 30
0.0
 40
  1.2700
 1
4
 0
LINE
 8
PARTS
 10
114.0460
 20
164.5920
 30
0.0
 11
106.4260
 21
164.5920
 31
0.0
 0
TEXT
 8
PARTS
 10
107.9500
 20
165.3540
 30
0.0
 40
  1.2700
 1
5
 0
LINE
 8
PARTS
 10
114.0460
 20
162.0520
 30
0.0
 11
106.4260
 21
162.0520
 31
0.0
 0
TEXT
 8
PARTS
 10
107.9500
 20
162.8140
 30
0.0
 40
  1.2700
 1
6
 0
POLYLINE
 8
PARTS
 66
1
 70
1
 10
0.0
 20
0.0
 30
0.0
 0
VERTEX
 8
PARTS
 10
101.3460
 20
177.2920
 30
0.0
 0
VERTEX
 8
PARTS
 10
106.4260
 20
177.2920
 30
0.0
 0
VERTEX
 8
PARTS
 10
106.4260
 20
159.5120
 30
0.0
 0
VERTEX
 8
PARTS
 10
101.3460
 20
159.5120
 30
0.0
 0
SEQEND
 8
PARTS
 0
POLYLINE
 8
PARTS
 66
1
 10
0.0
 20
0.0
 30
0.0
 0
VERTEX
 8
PARTS
 10
105.1560
 20
177.2920
 30
0.0
 0
VERTEX
 8
PARTS
 10
105.1560
 20
177.2920
 30
0.0
 0
VERTEX
 8
PARTS
 10
105.1560
 20
178.3080
 30
0.0
 0
VERTEX
 8
PARTS
 10
102.6160
 20
178.3080
 30
0.0
 0
VERTEX
 8
PARTS
 10
102.6160
 20
177.2920
 30
0.0
 0
SEQEND
 8
PARTS
 0
POLYLINE
 8
PARTS
 66
1
 10
0.0
 20
0.0
 30
0.0
 0
VERTEX
 8
PARTS
 10
102.6160
 20
159.5120
 30
0.0
 0
VERTEX
 8
PARTS
 10
102.6160
 20
159.2580
 30
0.0
 0
VERTEX
 8
PARTS
 10
102.6160
 20
158.2420
 30
0.0
 0
VERTEX
 8
PARTS
 10
105.1560
 20
158.2420
 30
0.0
 0
VERTEX
 8
PARTS
 10
105.1560
 20
159.5120
 30
0.0
 0
SEQEND
 8
PARTS
 0
TEXT
 8
PARTTEXT
 10
129.2860
 20
125.1563
 30
0.0
 40
  1.3057
 1
C6
 0
TEXT
 8
PARTTEXT
 10
126.7460
 20
120.0763
 30
0.0
 40
  1.3057
 1
20
 0
LINE
 8
PARTS
 10
126.7460
 20
121.4120
 30
0.0
 11
129.2860
 21
121.4120
 31
0.0
 0
LINE
 8
PARTS
 10
134.3660
 20
121.4120
 30
0.0
 11
131.8260
 21
121.4120
 31
0.0
 0
POLYLINE
 8
PARTS
 66
1
 10
0.0
 20
0.0
 30
0.0
 0
VERTEX
 8
PARTS
 10
129.2860
 20
121.4120
 30
0.0
 0
VERTEX
 8
PARTS
 10
129.7940
 20
121.4120
 30
0.0
 0
SEQEND
 8
PARTS
 0
POLYLINE
 8
PARTS
 66
1
 10
0.0
 20
0.0
 30
0.0
 0
VERTEX
 8
PARTS
 10
131.0640
 20
119.1260
 30
0.0
 0
VERTEX
 8
PARTS
 10
131.0640
 20
123.6980
 30
0.0
 0
SEQEND
 8
PARTS
 0
POLYLINE
 8
PARTS
 66
1
 10
0.0
 20
0.0
 30
0.0
 0
VERTEX
 8
PARTS
 10
129.7940
 20
119.1260
 30
0.0
 0
VERTEX
 8
PARTS
 10
129.7940
 20
123.6980
 30
0.0
 0
SEQEND
 8
PARTS
 0
POLYLINE
 8
PARTS
 66
1
 10
0.0
 20
0.0
 30
0.0
 0
VERTEX
 8
PARTS
 10
131.8260
 20
121.4120
 30
0.0
 0
VERTEX
 8
PARTS
 10
131.0640
 20
121.4120
 30
0.0
 0
SEQEND
 8
PARTS
 0
TEXT
 8
PARTTEXT
 10
156.7180
 20
 81.9763
 30
0.0
 40
  1.3057
 1
U15
 0
TEXT
 8
PARTTEXT
 10
162.3060
 20
 81.9763
 30
0.0
 40
  1.3057
 1
LM7805C/TO_0
 0
LINE
 8
PARTS
 10
149.6060
 20
 75.6920
 30
0.0
 11
157.2260
 21
 75.6920
 31
0.0
 0
TEXT
 8
PARTS
 10
159.5120
 20
 75.0570
 30
0.0
 40
  1.2700
 1
IN
 0
TEXT
 8
PARTS
 10
154.6860
 20
 76.4540
 30
0.0
 40
  1.2700
 1
1
 0
LINE
 8
PARTS
 10
180.0860
 20
 75.6920
 30
0.0
 11
172.4660
 21
 75.6920
 31
0.0
 0
TEXT
 8
PARTS
 10
167.1320
 20
 75.0570
 30
0.0
 40
  1.2700
 1
OUT
 0
TEXT
 8
PARTS
 10
173.9900
 20
 76.4540
 30
0.0
 40
  1.2700
 1
3
 0
LINE
 8
PARTS
 10
164.8460
 20
 62.9920
 30
0.0
 11
164.8460
 21
 70.6120
 31
0.0
 0
TEXT
 8
PARTS
 10
165.4810
 20
 72.8980
 30
0.0
 40
  1.2700
 50
 90.0000
 1
GND
 0
TEXT
 8
PARTS
 10
164.0840
 20
 67.5640
 30
0.0
 40
  1.2700
 50
 90.0000
 1
2
 0
POLYLINE
 8
PARTS
 66
1
 70
1
 10
0.0
 20
0.0
 30
0.0
 0
VERTEX
 8
PARTS
 10
157.2260
 20
 78.2320
 30
0.0
 0
VERTEX
 8
PARTS
 10
172.4660
 20
 78.2320
 30
0.0
 0
VERTEX
 8
PARTS
 10
172.4660
 20
 70.6120
 30
0.0
 0
VERTEX
 8
PARTS
 10
157.2260
 20
 70.6120
 30
0.0
 0
SEQEND
 8
PARTS
 0
TEXT
 8
PARTTEXT
 10
116.5860
 20
150.5563
 30
0.0
 40
  1.3057
 1
J0
 0
TEXT
 8
PARTTEXT
 10
116.5860
 20
130.2363
 30
0.0
 40
  1.3057
 1
UART
 0
LINE
 8
PARTS
 10
108.9660
 20
144.2720
 30
0.0
 11
116.5860
 21
144.2720
 31
0.0
 0
TEXT
 8
PARTS
 10
114.0460
 20
145.0340
 30
0.0
 40
  1.2700
 1
1
 0
LINE
 8
PARTS
 10
108.9660
 20
141.7320
 30
0.0
 11
116.5860
 21
141.7320
 31
0.0
 0
TEXT
 8
PARTS
 10
114.0460
 20
142.4940
 30
0.0
 40
  1.2700
 1
2
 0
LINE
 8
PARTS
 10
108.9660
 20
139.1920
 30
0.0
 11
116.5860
 21
139.1920
 31
0.0
 0
TEXT
 8
PARTS
 10
114.0460
 20
139.9540
 30
0.0
 40
  1.2700
 1
3
 0
LINE
 8
PARTS
 10
108.9660
 20
136.6520
 30
0.0
 11
116.5860
 21
136.6520
 31
0.0
 0
TEXT
 8
PARTS
 10
114.0460
 20
137.4140
 30
0.0
 40
  1.2700
 1
4
 0
POLYLINE
 8
PARTS
 66
1
 70
1
 10
0.0
 20
0.0
 30
0.0
 0
VERTEX
 8
PARTS
 10
124.2060
 20
146.8120
 30
0.0
 0
VERTEX
 8
PARTS
 10
116.5860
 20
146.8120
 30
0.0
 0
VERTEX
 8
PARTS
 10
116.5860
 20
134.1120
 30
0.0
 0
VERTEX
 8
PARTS
 10
124.2060
 20
134.1120
 30
0.0
 0
SEQEND
 8
PARTS
 0
POLYLINE
 8
PARTS
 66
1
 10
0.0
 20
0.0
 30
0.0
 0
VERTEX
 8
PARTS
 10
121.6660
 20
134.1120
 30
0.0
 0
VERTEX
 8
PARTS
 10
121.6660
 20
134.1120
 30
0.0
 0
VERTEX
 8
PARTS
 10
121.6660
 20
133.0960
 30
0.0
 0
VERTEX
 8
PARTS
 10
118.6180
 20
133.0960
 30
0.0
 0
VERTEX
 8
PARTS
 10
118.6180
 20
134.1120
 30
0.0
 0
SEQEND
 8
PARTS
 0
POLYLINE
 8
PARTS
 66
1
 10
0.0
 20
0.0
 30
0.0
 0
VERTEX
 8
PARTS
 10
118.6180
 20
146.8120
 30
0.0
 0
VERTEX
 8
PARTS
 10
118.6180
 20
146.8120
 30
0.0
 0
VERTEX
 8
PARTS
 10
118.6180
 20
147.8280
 30
0.0
 0
VERTEX
 8
PARTS
 10
121.6660
 20
147.8280
 30
0.0
 0
VERTEX
 8
PARTS
 10
121.6660
 20
146.8120
 30
0.0
 0
SEQEND
 8
PARTS
 0
TEXT
 8
PARTTEXT
 10
 63.2460
 20
177.2263
 30
0.0
 40
  1.3057
 1
C9
 0
TEXT
 8
PARTTEXT
 10
 63.2460
 20
166.8123
 30
0.0
 40
  1.3057
 1
100u
 0
LINE
 8
PARTS
 10
 60.7060
 20
172.2120
 30
0.0
 11
 63.2460
 21
172.2120
 31
0.0
 0
LINE
 8
PARTS
 10
 68.3260
 20
172.2120
 30
0.0
 11
 65.7860
 21
172.2120
 31
0.0
 0
POLYLINE
 8
PARTS
 66
1
 10
0.0
 20
0.0
 30
0.0
 0
VERTEX
 8
PARTS
 10
 63.2460
 20
169.6720
 30
0.0
 0
VERTEX
 8
PARTS
 10
 63.2460
 20
174.7520
 30
0.0
 0
SEQEND
 8
PARTS
 0
POLYLINE
 8
PARTS
 66
1
 10
0.0
 20
0.0
 30
0.0
 0
VERTEX
 8
PARTS
 10
 64.2620
 20
172.2120
 30
0.0
 0
VERTEX
 8
PARTS
 10
 65.7860
 20
172.2120
 30
0.0
 0
SEQEND
 8
PARTS
 0
POLYLINE
 8
PARTS
 66
1
 10
0.0
 20
0.0
 30
0.0
 0
VERTEX
 8
PARTS
 10
 65.0240
 20
174.7520
 30
0.0
 42
  0.1654
 0
VERTEX
 8
PARTS
 10
 64.2620
 20
172.2120
 30
0.0
 0
SEQEND
 8
PARTS
 0
POLYLINE
 8
PARTS
 66
1
 10
0.0
 20
0.0
 30
0.0
 0
VERTEX
 8
PARTS
 10
 64.2620
 20
172.2120
 30
0.0
 42
  0.1654
 0
VERTEX
 8
PARTS
 10
 65.0240
 20
169.6720
 30
0.0
 0
SEQEND
 8
PARTS
 0
TEXT
 8
PARTTEXT
 10
319.7860
 20
142.9363
 30
0.0
 40
  1.3057
 1
J5
 0
TEXT
 8
PARTTEXT
 10
317.2460
 20
112.4563
 30
0.0
 40
  1.3057
 1
To SMA
 0
LINE
 8
PARTS
 10
312.1660
 20
134.1120
 30
0.0
 11
319.7860
 21
134.1120
 31
0.0
 0
TEXT
 8
PARTS
 10
317.2460
 20
134.8740
 30
0.0
 40
  1.2700
 1
1
 0
LINE
 8
PARTS
 10
312.1660
 20
131.5720
 30
0.0
 11
319.7860
 21
131.5720
 31
0.0
 0
TEXT
 8
PARTS
 10
317.2460
 20
132.3340
 30
0.0
 40
  1.2700
 1
2
 0
LINE
 8
PARTS
 10
312.1660
 20
129.0320
 30
0.0
 11
319.7860
 21
129.0320
 31
0.0
 0
TEXT
 8
PARTS
 10
317.2460
 20
129.7940
 30
0.0
 40
  1.2700
 1
3
 0
LINE
 8
PARTS
 10
312.1660
 20
126.4920
 30
0.0
 11
319.7860
 21
126.4920
 31
0.0
 0
TEXT
 8
PARTS
 10
317.2460
 20
127.2540
 30
0.0
 40
  1.2700
 1
4
 0
LINE
 8
PARTS
 10
312.1660
 20
123.9520
 30
0.0
 11
319.7860
 21
123.9520
 31
0.0
 0
TEXT
 8
PARTS
 10
317.2460
 20
124.7140
 30
0.0
 40
  1.2700
 1
5
 0
LINE
 8
PARTS
 10
312.1660
 20
121.4120
 30
0.0
 11
319.7860
 21
121.4120
 31
0.0
 0
TEXT
 8
PARTS
 10
317.2460
 20
122.1740
 30
0.0
 40
  1.2700
 1
6
 0
POLYLINE
 8
PARTS
 66
1
 70
1
 10
0.0
 20
0.0
 30
0.0
 0
VERTEX
 8
PARTS
 10
324.8660
 20
136.6520
 30
0.0
 0
VERTEX
 8
PARTS
 10
319.7860
 20
136.6520
 30
0.0
 0
VERTEX
 8
PARTS
 10
319.7860
 20
118.8720
 30
0.0
 0
VERTEX
 8
PARTS
 10
324.8660
 20
118.8720
 30
0.0
 0
SEQEND
 8
PARTS
 0
POLYLINE
 8
PARTS
 66
1
 10
0.0
 20
0.0
 30
0.0
 0
VERTEX
 8
PARTS
 10
321.0560
 20
136.6520
 30
0.0
 0
VERTEX
 8
PARTS
 10
321.0560
 20
136.6520
 30
0.0
 0
VERTEX
 8
PARTS
 10
321.0560
 20
137.6680
 30
0.0
 0
VERTEX
 8
PARTS
 10
323.5960
 20
137.6680
 30
0.0
 0
VERTEX
 8
PARTS
 10
323.5960
 20
136.6520
 30
0.0
 0
SEQEND
 8
PARTS
 0
POLYLINE
 8
PARTS
 66
1
 10
0.0
 20
0.0
 30
0.0
 0
VERTEX
 8
PARTS
 10
323.5960
 20
118.8720
 30
0.0
 0
VERTEX
 8
PARTS
 10
323.5960
 20
118.6180
 30
0.0
 0
VERTEX
 8
PARTS
 10
323.5960
 20
117.6020
 30
0.0
 0
VERTEX
 8
PARTS
 10
321.0560
 20
117.6020
 30
0.0
 0
VERTEX
 8
PARTS
 10
321.0560
 20
118.8720
 30
0.0
 0
SEQEND
 8
PARTS
 0
TEXT
 8
PARTTEXT
 10
144.2720
 20
 69.2763
 30
0.0
 40
  1.3057
 1
C4
 0
TEXT
 8
PARTTEXT
 10
144.2720
 20
 66.9903
 30
0.0
 40
  1.3057
 1
470u
 0
LINE
 8
PARTS
 10
139.4460
 20
 73.1520
 30
0.0
 11
139.4460
 21
 70.6120
 31
0.0
 0
LINE
 8
PARTS
 10
139.4460
 20
 65.5320
 30
0.0
 11
139.4460
 21
 68.0720
 31
0.0
 0
POLYLINE
 8
PARTS
 66
1
 10
0.0
 20
0.0
 30
0.0
 0
VERTEX
 8
PARTS
 10
136.9060
 20
 70.6120
 30
0.0
 0
VERTEX
 8
PARTS
 10
141.9860
 20
 70.6120
 30
0.0
 0
SEQEND
 8
PARTS
 0
POLYLINE
 8
PARTS
 66
1
 10
0.0
 20
0.0
 30
0.0
 0
VERTEX
 8
PARTS
 10
139.4460
 20
 69.5960
 30
0.0
 0
VERTEX
 8
PARTS
 10
139.4460
 20
 68.0720
 30
0.0
 0
SEQEND
 8
PARTS
 0
POLYLINE
 8
PARTS
 66
1
 10
0.0
 20
0.0
 30
0.0
 0
VERTEX
 8
PARTS
 10
141.9860
 20
 68.8340
 30
0.0
 42
  0.1654
 0
VERTEX
 8
PARTS
 10
139.4460
 20
 69.5960
 30
0.0
 0
SEQEND
 8
PARTS
 0
POLYLINE
 8
PARTS
 66
1
 10
0.0
 20
0.0
 30
0.0
 0
VERTEX
 8
PARTS
 10
139.4460
 20
 69.5960
 30
0.0
 42
  0.1654
 0
VERTEX
 8
PARTS
 10
136.9060
 20
 68.8340
 30
0.0
 0
SEQEND
 8
PARTS
 0
TEXT
 8
PARTTEXT
 10
248.6660
 20
 69.2763
 30
0.0
 40
  1.3057
 1
R90
 0
TEXT
 8
PARTTEXT
 10
253.7460
 20
 69.2763
 30
0.0
 40
  1.3057
 1
56
 0
LINE
 8
PARTS
 10
246.1260
 20
 65.5320
 30
0.0
 11
248.6660
 21
 65.5320
 31
0.0
 0
LINE
 8
PARTS
 10
258.8260
 20
 65.5320
 30
0.0
 11
256.2860
 21
 65.5320
 31
0.0
 0
POLYLINE
 8
PARTS
 66
1
 10
0.0
 20
0.0
 30
0.0
 0
VERTEX
 8
PARTS
 10
248.6660
 20
 65.5320
 30
0.0
 0
VERTEX
 8
PARTS
 10
249.4280
 20
 66.2940
 30
0.0
 0
SEQEND
 8
PARTS
 0
POLYLINE
 8
PARTS
 66
1
 10
0.0
 20
0.0
 30
0.0
 0
VERTEX
 8
PARTS
 10
249.4280
 20
 66.2940
 30
0.0
 0
VERTEX
 8
PARTS
 10
250.9520
 20
 64.7700
 30
0.0
 0
SEQEND
 8
PARTS
 0
POLYLINE
 8
PARTS
 66
1
 10
0.0
 20
0.0
 30
0.0
 0
VERTEX
 8
PARTS
 10
250.9520
 20
 64.7700
 30
0.0
 0
VERTEX
 8
PARTS
 10
252.4760
 20
 66.2940
 30
0.0
 0
SEQEND
 8
PARTS
 0
POLYLINE
 8
PARTS
 66
1
 10
0.0
 20
0.0
 30
0.0
 0
VERTEX
 8
PARTS
 10
252.4760
 20
 66.2940
 30
0.0
 0
VERTEX
 8
PARTS
 10
254.0000
 20
 64.7700
 30
0.0
 0
SEQEND
 8
PARTS
 0
POLYLINE
 8
PARTS
 66
1
 10
0.0
 20
0.0
 30
0.0
 0
VERTEX
 8
PARTS
 10
254.0000
 20
 64.7700
 30
0.0
 0
VERTEX
 8
PARTS
 10
255.5240
 20
 66.2940
 30
0.0
 0
SEQEND
 8
PARTS
 0
POLYLINE
 8
PARTS
 66
1
 10
0.0
 20
0.0
 30
0.0
 0
VERTEX
 8
PARTS
 10
255.5240
 20
 66.2940
 30
0.0
 0
VERTEX
 8
PARTS
 10
256.2860
 20
 65.5320
 30
0.0
 0
SEQEND
 8
PARTS
 0
TEXT
 8
PARTTEXT
 10
253.7460
 20
183.5763
 30
0.0
 40
  1.3057
 1
R81
 0
TEXT
 8
PARTTEXT
 10
253.7460
 20
178.4963
 30
0.0
 40
  1.3057
 1
10k
 0
LINE
 8
PARTS
 10
258.8260
 20
187.4520
 30
0.0
 11
258.8260
 21
184.9120
 31
0.0
 0
LINE
 8
PARTS
 10
258.8260
 20
174.7520
 30
0.0
 11
258.8260
 21
177.2920
 31
0.0
 0
POLYLINE
 8
PARTS
 66
1
 10
0.0
 20
0.0
 30
0.0
 0
VERTEX
 8
PARTS
 10
258.8260
 20
184.9120
 30
0.0
 0
VERTEX
 8
PARTS
 10
259.5880
 20
184.1500
 30
0.0
 0
SEQEND
 8
PARTS
 0
POLYLINE
 8
PARTS
 66
1
 10
0.0
 20
0.0
 30
0.0
 0
VERTEX
 8
PARTS
 10
259.5880
 20
184.1500
 30
0.0
 0
VERTEX
 8
PARTS
 10
258.0640
 20
182.6260
 30
0.0
 0
SEQEND
 8
PARTS
 0
POLYLINE
 8
PARTS
 66
1
 10
0.0
 20
0.0
 30
0.0
 0
VERTEX
 8
PARTS
 10
258.0640
 20
182.6260
 30
0.0
 0
VERTEX
 8
PARTS
 10
259.5880
 20
181.1020
 30
0.0
 0
SEQEND
 8
PARTS
 0
POLYLINE
 8
PARTS
 66
1
 10
0.0
 20
0.0
 30
0.0
 0
VERTEX
 8
PARTS
 10
259.5880
 20
181.1020
 30
0.0
 0
VERTEX
 8
PARTS
 10
258.0640
 20
179.5780
 30
0.0
 0
SEQEND
 8
PARTS
 0
POLYLINE
 8
PARTS
 66
1
 10
0.0
 20
0.0
 30
0.0
 0
VERTEX
 8
PARTS
 10
258.0640
 20
179.5780
 30
0.0
 0
VERTEX
 8
PARTS
 10
259.5880
 20
178.0540
 30
0.0
 0
SEQEND
 8
PARTS
 0
POLYLINE
 8
PARTS
 66
1
 10
0.0
 20
0.0
 30
0.0
 0
VERTEX
 8
PARTS
 10
259.5880
 20
178.0540
 30
0.0
 0
VERTEX
 8
PARTS
 10
258.8260
 20
177.2920
 30
0.0
 0
SEQEND
 8
PARTS
 0
TEXT
 8
PARTTEXT
 10
248.6660
 20
 89.5963
 30
0.0
 40
  1.3057
 1
R89
 0
TEXT
 8
PARTTEXT
 10
253.7460
 20
 89.5963
 30
0.0
 40
  1.3057
 1
56
 0
LINE
 8
PARTS
 10
246.1260
 20
 85.8520
 30
0.0
 11
248.6660
 21
 85.8520
 31
0.0
 0
LINE
 8
PARTS
 10
258.8260
 20
 85.8520
 30
0.0
 11
256.2860
 21
 85.8520
 31
0.0
 0
POLYLINE
 8
PARTS
 66
1
 10
0.0
 20
0.0
 30
0.0
 0
VERTEX
 8
PARTS
 10
248.6660
 20
 85.8520
 30
0.0
 0
VERTEX
 8
PARTS
 10
249.4280
 20
 86.6140
 30
0.0
 0
SEQEND
 8
PARTS
 0
POLYLINE
 8
PARTS
 66
1
 10
0.0
 20
0.0
 30
0.0
 0
VERTEX
 8
PARTS
 10
249.4280
 20
 86.6140
 30
0.0
 0
VERTEX
 8
PARTS
 10
250.9520
 20
 85.0900
 30
0.0
 0
SEQEND
 8
PARTS
 0
POLYLINE
 8
PARTS
 66
1
 10
0.0
 20
0.0
 30
0.0
 0
VERTEX
 8
PARTS
 10
250.9520
 20
 85.0900
 30
0.0
 0
VERTEX
 8
PARTS
 10
252.4760
 20
 86.6140
 30
0.0
 0
SEQEND
 8
PARTS
 0
POLYLINE
 8
PARTS
 66
1
 10
0.0
 20
0.0
 30
0.0
 0
VERTEX
 8
PARTS
 10
252.4760
 20
 86.6140
 30
0.0
 0
VERTEX
 8
PARTS
 10
254.0000
 20
 85.0900
 30
0.0
 0
SEQEND
 8
PARTS
 0
POLYLINE
 8
PARTS
 66
1
 10
0.0
 20
0.0
 30
0.0
 0
VERTEX
 8
PARTS
 10
254.0000
 20
 85.0900
 30
0.0
 0
VERTEX
 8
PARTS
 10
255.5240
 20
 86.6140
 30
0.0
 0
SEQEND
 8
PARTS
 0
POLYLINE
 8
PARTS
 66
1
 10
0.0
 20
0.0
 30
0.0
 0
VERTEX
 8
PARTS
 10
255.5240
 20
 86.6140
 30
0.0
 0
VERTEX
 8
PARTS
 10
256.2860
 20
 85.8520
 30
0.0
 0
SEQEND
 8
PARTS
 0
TEXT
 8
PARTTEXT
 10
144.5260
 20
196.2763
 30
0.0
 40
  1.3057
 1
U10
 0
TEXT
 8
PARTTEXT
 10
162.3060
 20
 97.2163
 30
0.0
 40
  1.3057
 1
ATMEGA128
 0
LINE
 8
PARTS
 10
136.9060
 20
108.7120
 30
0.0
 11
144.5260
 21
108.7120
 31
0.0
 0
TEXT
 8
PARTS
 10
146.8120
 20
108.0770
 30
0.0
 40
  1.2700
 1
OC0B/PG5
 0
TEXT
 8
PARTS
 10
141.9860
 20
109.4740
 30
0.0
 40
  1.2700
 1
1
 0
LINE
 8
PARTS
 10
136.9060
 20
189.9920
 30
0.0
 11
144.5260
 21
189.9920
 31
0.0
 0
TEXT
 8
PARTS
 10
146.8120
 20
189.3570
 30
0.0
 40
  1.2700
 1
PA0/AD0
 0
TEXT
 8
PARTS
 10
140.9700
 20
190.7540
 30
0.0
 40
  1.2700
 1
51
 0
LINE
 8
PARTS
 10
136.9060
 20
187.4520
 30
0.0
 11
144.5260
 21
187.4520
 31
0.0
 0
TEXT
 8
PARTS
 10
146.8120
 20
186.8170
 30
0.0
 40
  1.2700
 1
PA1/AD1
 0
TEXT
 8
PARTS
 10
140.9700
 20
188.2140
 30
0.0
 40
  1.2700
 1
50
 0
LINE
 8
PARTS
 10
136.9060
 20
184.9120
 30
0.0
 11
144.5260
 21
184.9120
 31
0.0
 0
TEXT
 8
PARTS
 10
146.8120
 20
184.2770
 30
0.0
 40
  1.2700
 1
PA2/AD2
 0
TEXT
 8
PARTS
 10
140.9700
 20
185.6740
 30
0.0
 40
  1.2700
 1
49
 0
LINE
 8
PARTS
 10
136.9060
 20
182.3720
 30
0.0
 11
144.5260
 21
182.3720
 31
0.0
 0
TEXT
 8
PARTS
 10
146.8120
 20
181.7370
 30
0.0
 40
  1.2700
 1
PA3/AD3
 0
TEXT
 8
PARTS
 10
140.9700
 20
183.1340
 30
0.0
 40
  1.2700
 1
48
 0
LINE
 8
PARTS
 10
136.9060
 20
179.8320
 30
0.0
 11
144.5260
 21
179.8320
 31
0.0
 0
TEXT
 8
PARTS
 10
146.8120
 20
179.1970
 30
0.0
 40
  1.2700
 1
PA4/AD4
 0
TEXT
 8
PARTS
 10
140.9700
 20
180.5940
 30
0.0
 40
  1.2700
 1
47
 0
LINE
 8
PARTS
 10
136.9060
 20
177.2920
 30
0.0
 11
144.5260
 21
177.2920
 31
0.0
 0
TEXT
 8
PARTS
 10
146.8120
 20
176.6570
 30
0.0
 40
  1.2700
 1
PA5/AD5
 0
TEXT
 8
PARTS
 10
140.9700
 20
178.0540
 30
0.0
 40
  1.2700
 1
46
 0
LINE
 8
PARTS
 10
136.9060
 20
174.7520
 30
0.0
 11
144.5260
 21
174.7520
 31
0.0
 0
TEXT
 8
PARTS
 10
146.8120
 20
174.1170
 30
0.0
 40
  1.2700
 1
PA6/AD6
 0
TEXT
 8
PARTS
 10
140.9700
 20
175.5140
 30
0.0
 40
  1.2700
 1
45
 0
LINE
 8
PARTS
 10
136.9060
 20
172.2120
 30
0.0
 11
144.5260
 21
172.2120
 31
0.0
 0
TEXT
 8
PARTS
 10
146.8120
 20
171.5770
 30
0.0
 40
  1.2700
 1
PA7/AD7
 0
TEXT
 8
PARTS
 10
140.9700
 20
172.9740
 30
0.0
 40
  1.2700
 1
44
 0
CIRCLE
 8
PARTS
 10
143.7640
 20
167.1320
 30
0.0
 40
  0.7620
 0
LINE
 8
PARTS
 10
136.9060
 20
167.1320
 30
0.0
 11
143.0020
 21
167.1320
 31
0.0
 0
TEXT
 8
PARTS
 10
146.8120
 20
166.4970
 30
0.0
 40
  1.2700
 1
(%%oSS%%o/PCINT0)/PB0
 0
TEXT
 8
PARTS
 10
140.9700
 20
167.8940
 30
0.0
 40
  1.2700
 1
10
 0
LINE
 8
PARTS
 10
136.9060
 20
164.5920
 30
0.0
 11
144.5260
 21
164.5920
 31
0.0
 0
LINE
 8
PARTS
 10
144.5260
 20
166.1160
 30
0.0
 11
146.0500
 21
164.5920
 31
0.0
 0
LINE
 8
PARTS
 10
146.0500
 20
164.5920
 30
0.0
 11
144.5260
 21
163.0680
 31
0.0
 0
TEXT
 8
PARTS
 10
146.8120
 20
163.9570
 30
0.0
 40
  1.2700
 1
(SCK/PCINT1)/PB1
 0
TEXT
 8
PARTS
 10
140.9700
 20
165.3540
 30
0.0
 40
  1.2700
 1
11
 0
LINE
 8
PARTS
 10
136.9060
 20
162.0520
 30
0.0
 11
144.5260
 21
162.0520
 31
0.0
 0
TEXT
 8
PARTS
 10
146.8120
 20
161.4170
 30
0.0
 40
  1.2700
 1
(MOSI/PCINT2)/PB2
 0
TEXT
 8
PARTS
 10
140.9700
 20
162.8140
 30
0.0
 40
  1.2700
 1
12
 0
LINE
 8
PARTS
 10
136.9060
 20
159.5120
 30
0.0
 11
144.5260
 21
159.5120
 31
0.0
 0
TEXT
 8
PARTS
 10
146.8120
 20
158.8770
 30
0.0
 40
  1.2700
 1
(MISO/PCINT3)/PB3
 0
TEXT
 8
PARTS
 10
140.9700
 20
160.2740
 30
0.0
 40
  1.2700
 1
13
 0
LINE
 8
PARTS
 10
136.9060
 20
156.9720
 30
0.0
 11
144.5260
 21
156.9720
 31
0.0
 0
TEXT
 8
PARTS
 10
146.8120
 20
156.3370
 30
0.0
 40
  1.2700
 1
(OC2A/PCINT4)/PB4
 0
TEXT
 8
PARTS
 10
140.9700
 20
157.7340
 30
0.0
 40
  1.2700
 1
14
 0
LINE
 8
PARTS
 10
136.9060
 20
154.4320
 30
0.0
 11
144.5260
 21
154.4320
 31
0.0
 0
TEXT
 8
PARTS
 10
146.8120
 20
153.7970
 30
0.0
 40
  1.2700
 1
(OC1A/PCINT5)/PB5
 0
TEXT
 8
PARTS
 10
140.9700
 20
155.1940
 30
0.0
 40
  1.2700
 1
15
 0
LINE
 8
PARTS
 10
136.9060
 20
151.8920
 30
0.0
 11
144.5260
 21
151.8920
 31
0.0
 0
TEXT
 8
PARTS
 10
146.8120
 20
151.2570
 30
0.0
 40
  1.2700
 1
(OC1B/PCINT6)/PB6
 0
TEXT
 8
PARTS
 10
140.9700
 20
152.6540
 30
0.0
 40
  1.2700
 1
16
 0
LINE
 8
PARTS
 10
136.9060
 20
149.3520
 30
0.0
 11
144.5260
 21
149.3520
 31
0.0
 0
TEXT
 8
PARTS
 10
146.8120
 20
148.7170
 30
0.0
 40
  1.2700
 1
(OC0A/PCINT7)/OC1C/PB7
 0
TEXT
 8
PARTS
 10
140.9700
 20
150.1140
 30
0.0
 40
  1.2700
 1
17
 0
LINE
 8
PARTS
 10
136.9060
 20
144.2720
 30
0.0
 11
144.5260
 21
144.2720
 31
0.0
 0
TEXT
 8
PARTS
 10
146.8120
 20
143.6370
 30
0.0
 40
  1.2700
 1
PC0/A8
 0
TEXT
 8
PARTS
 10
140.9700
 20
145.0340
 30
0.0
 40
  1.2700
 1
35
 0
LINE
 8
PARTS
 10
136.9060
 20
141.7320
 30
0.0
 11
144.5260
 21
141.7320
 31
0.0
 0
TEXT
 8
PARTS
 10
146.8120
 20
141.0970
 30
0.0
 40
  1.2700
 1
PC1/A9
 0
TEXT
 8
PARTS
 10
140.9700
 20
142.4940
 30
0.0
 40
  1.2700
 1
36
 0
LINE
 8
PARTS
 10
136.9060
 20
139.1920
 30
0.0
 11
144.5260
 21
139.1920
 31
0.0
 0
TEXT
 8
PARTS
 10
146.8120
 20
138.5570
 30
0.0
 40
  1.2700
 1
PC2/A10
 0
TEXT
 8
PARTS
 10
140.9700
 20
139.9540
 30
0.0
 40
  1.2700
 1
37
 0
LINE
 8
PARTS
 10
136.9060
 20
136.6520
 30
0.0
 11
144.5260
 21
136.6520
 31
0.0
 0
TEXT
 8
PARTS
 10
146.8120
 20
136.0170
 30
0.0
 40
  1.2700
 1
PC3/A11
 0
TEXT
 8
PARTS
 10
140.9700
 20
137.4140
 30
0.0
 40
  1.2700
 1
38
 0
LINE
 8
PARTS
 10
136.9060
 20
134.1120
 30
0.0
 11
144.5260
 21
134.1120
 31
0.0
 0
TEXT
 8
PARTS
 10
146.8120
 20
133.4770
 30
0.0
 40
  1.2700
 1
PC4/A12
 0
TEXT
 8
PARTS
 10
140.9700
 20
134.8740
 30
0.0
 40
  1.2700
 1
39
 0
LINE
 8
PARTS
 10
136.9060
 20
131.5720
 30
0.0
 11
144.5260
 21
131.5720
 31
0.0
 0
TEXT
 8
PARTS
 10
146.8120
 20
130.9370
 30
0.0
 40
  1.2700
 1
PC5/A13
 0
TEXT
 8
PARTS
 10
140.9700
 20
132.3340
 30
0.0
 40
  1.2700
 1
40
 0
LINE
 8
PARTS
 10
136.9060
 20
129.0320
 30
0.0
 11
144.5260
 21
129.0320
 31
0.0
 0
TEXT
 8
PARTS
 10
146.8120
 20
128.3970
 30
0.0
 40
  1.2700
 1
PC6/A14
 0
TEXT
 8
PARTS
 10
140.9700
 20
129.7940
 30
0.0
 40
  1.2700
 1
41
 0
LINE
 8
PARTS
 10
136.9060
 20
126.4920
 30
0.0
 11
144.5260
 21
126.4920
 31
0.0
 0
TEXT
 8
PARTS
 10
146.8120
 20
125.8570
 30
0.0
 40
  1.2700
 1
PC7/A15
 0
TEXT
 8
PARTS
 10
140.9700
 20
127.2540
 30
0.0
 40
  1.2700
 1
42
 0
LINE
 8
PARTS
 10
210.5660
 20
177.2920
 30
0.0
 11
202.9460
 21
177.2920
 31
0.0
 0
LINE
 8
PARTS
 10
202.9460
 20
178.8160
 30
0.0
 11
201.4220
 21
177.2920
 31
0.0
 0
LINE
 8
PARTS
 10
201.4220
 20
177.2920
 30
0.0
 11
202.9460
 21
175.7680
 31
0.0
 0
TEXT
 8
PARTS
 10
188.4680
 20
176.6570
 30
0.0
 40
  1.2700
 1
SCL/INT0/PD0
 0
TEXT
 8
PARTS
 10
204.4700
 20
178.0540
 30
0.0
 40
  1.2700
 1
25
 0
LINE
 8
PARTS
 10
210.5660
 20
174.7520
 30
0.0
 11
202.9460
 21
174.7520
 31
0.0
 0
TEXT
 8
PARTS
 10
188.4680
 20
174.1170
 30
0.0
 40
  1.2700
 1
SDA/INT1/PD1
 0
TEXT
 8
PARTS
 10
204.4700
 20
175.5140
 30
0.0
 40
  1.2700
 1
26
 0
LINE
 8
PARTS
 10
210.5660
 20
172.2120
 30
0.0
 11
202.9460
 21
172.2120
 31
0.0
 0
TEXT
 8
PARTS
 10
187.4520
 20
171.5770
 30
0.0
 40
  1.2700
 1
RXD1/INT2/PD2
 0
TEXT
 8
PARTS
 10
204.4700
 20
172.9740
 30
0.0
 40
  1.2700
 1
27
 0
LINE
 8
PARTS
 10
210.5660
 20
169.6720
 30
0.0
 11
202.9460
 21
169.6720
 31
0.0
 0
TEXT
 8
PARTS
 10
187.4520
 20
169.0370
 30
0.0
 40
  1.2700
 1
TXD1/INT3/PD3
 0
TEXT
 8
PARTS
 10
204.4700
 20
170.4340
 30
0.0
 40
  1.2700
 1
28
 0
LINE
 8
PARTS
 10
210.5660
 20
167.1320
 30
0.0
 11
202.9460
 21
167.1320
 31
0.0
 0
TEXT
 8
PARTS
 10
192.5320
 20
166.4970
 30
0.0
 40
  1.2700
 1
ICP1/PD4
 0
TEXT
 8
PARTS
 10
204.4700
 20
167.8940
 30
0.0
 40
  1.2700
 1
29
 0
LINE
 8
PARTS
 10
210.5660
 20
164.5920
 30
0.0
 11
202.9460
 21
164.5920
 31
0.0
 0
LINE
 8
PARTS
 10
202.9460
 20
166.1160
 30
0.0
 11
201.4220
 21
164.5920
 31
0.0
 0
LINE
 8
PARTS
 10
201.4220
 20
164.5920
 30
0.0
 11
202.9460
 21
163.0680
 31
0.0
 0
TEXT
 8
PARTS
 10
192.5320
 20
163.9570
 30
0.0
 40
  1.2700
 1
XCK1/PD5
 0
TEXT
 8
PARTS
 10
204.4700
 20
165.3540
 30
0.0
 40
  1.2700
 1
30
 0
LINE
 8
PARTS
 10
210.5660
 20
162.0520
 30
0.0
 11
202.9460
 21
162.0520
 31
0.0
 0
TEXT
 8
PARTS
 10
194.5640
 20
161.4170
 30
0.0
 40
  1.2700
 1
T1/PD6
 0
TEXT
 8
PARTS
 10
204.4700
 20
162.8140
 30
0.0
 40
  1.2700
 1
31
 0
LINE
 8
PARTS
 10
210.5660
 20
159.5120
 30
0.0
 11
202.9460
 21
159.5120
 31
0.0
 0
TEXT
 8
PARTS
 10
194.5640
 20
158.8770
 30
0.0
 40
  1.2700
 1
T2/PD7
 0
TEXT
 8
PARTS
 10
204.4700
 20
160.2740
 30
0.0
 40
  1.2700
 1
32
 0
LINE
 8
PARTS
 10
210.5660
 20
131.5720
 30
0.0
 11
202.9460
 21
131.5720
 31
0.0
 0
TEXT
 8
PARTS
 10
192.5320
 20
130.9370
 30
0.0
 40
  1.2700
 1
PF0/ADC0
 0
TEXT
 8
PARTS
 10
204.4700
 20
132.3340
 30
0.0
 40
  1.2700
 1
61
 0
LINE
 8
PARTS
 10
210.5660
 20
129.0320
 30
0.0
 11
202.9460
 21
129.0320
 31
0.0
 0
TEXT
 8
PARTS
 10
192.5320
 20
128.3970
 30
0.0
 40
  1.2700
 1
PF1/ADC1
 0
TEXT
 8
PARTS
 10
204.4700
 20
129.7940
 30
0.0
 40
  1.2700
 1
60
 0
LINE
 8
PARTS
 10
210.5660
 20
126.4920
 30
0.0
 11
202.9460
 21
126.4920
 31
0.0
 0
TEXT
 8
PARTS
 10
192.5320
 20
125.8570
 30
0.0
 40
  1.2700
 1
PF2/ADC2
 0
TEXT
 8
PARTS
 10
204.4700
 20
127.2540
 30
0.0
 40
  1.2700
 1
59
 0
LINE
 8
PARTS
 10
210.5660
 20
123.9520
 30
0.0
 11
202.9460
 21
123.9520
 31
0.0
 0
TEXT
 8
PARTS
 10
192.5320
 20
123.3170
 30
0.0
 40
  1.2700
 1
PF3/ADC3
 0
TEXT
 8
PARTS
 10
204.4700
 20
124.7140
 30
0.0
 40
  1.2700
 1
58
 0
LINE
 8
PARTS
 10
210.5660
 20
121.4120
 30
0.0
 11
202.9460
 21
121.4120
 31
0.0
 0
LINE
 8
PARTS
 10
202.9460
 20
122.9360
 30
0.0
 11
201.4220
 21
121.4120
 31
0.0
 0
LINE
 8
PARTS
 10
201.4220
 20
121.4120
 30
0.0
 11
202.9460
 21
119.8880
 31
0.0
 0
TEXT
 8
PARTS
 10
188.4680
 20
120.7770
 30
0.0
 40
  1.2700
 1
PF4/ADC4/TCK
 0
TEXT
 8
PARTS
 10
204.4700
 20
122.1740
 30
0.0
 40
  1.2700
 1
57
 0
LINE
 8
PARTS
 10
210.5660
 20
118.8720
 30
0.0
 11
202.9460
 21
118.8720
 31
0.0
 0
TEXT
 8
PARTS
 10
188.4680
 20
118.2370
 30
0.0
 40
  1.2700
 1
PF5/ADC5/TMS
 0
TEXT
 8
PARTS
 10
204.4700
 20
119.6340
 30
0.0
 40
  1.2700
 1
56
 0
LINE
 8
PARTS
 10
210.5660
 20
116.3320
 30
0.0
 11
202.9460
 21
116.3320
 31
0.0
 0
TEXT
 8
PARTS
 10
188.4680
 20
115.6970
 30
0.0
 40
  1.2700
 1
PF6/ADC6/TDO
 0
TEXT
 8
PARTS
 10
204.4700
 20
117.0940
 30
0.0
 40
  1.2700
 1
55
 0
LINE
 8
PARTS
 10
210.5660
 20
113.7920
 30
0.0
 11
202.9460
 21
113.7920
 31
0.0
 0
TEXT
 8
PARTS
 10
188.4680
 20
113.1570
 30
0.0
 40
  1.2700
 1
PF7/ADC7/TDI
 0
TEXT
 8
PARTS
 10
204.4700
 20
114.5540
 30
0.0
 40
  1.2700
 1
54
 0
LINE
 8
PARTS
 10
210.5660
 20
101.0920
 30
0.0
 11
202.9460
 21
101.0920
 31
0.0
 0
TEXT
 8
PARTS
 10
191.5160
 20
100.4570
 30
0.0
 40
  1.2700
 1
TOSC2/PG3
 0
TEXT
 8
PARTS
 10
204.4700
 20
101.8540
 30
0.0
 40
  1.2700
 1
18
 0
LINE
 8
PARTS
 10
210.5660
 20
 98.5520
 30
0.0
 11
202.9460
 21
 98.5520
 31
0.0
 0
TEXT
 8
PARTS
 10
191.5160
 20
 97.9170
 30
0.0
 40
  1.2700
 1
TOSC1/PG4
 0
TEXT
 8
PARTS
 10
204.4700
 20
 99.3140
 30
0.0
 40
  1.2700
 1
19
 0
CIRCLE
 8
PARTS
 10
143.7640
 20
106.1720
 30
0.0
 40
  0.7620
 0
LINE
 8
PARTS
 10
136.9060
 20
106.1720
 30
0.0
 11
143.0020
 21
106.1720
 31
0.0
 0
TEXT
 8
PARTS
 10
146.8120
 20
105.5370
 30
0.0
 40
  1.2700
 1
%%oRST%%o
 0
TEXT
 8
PARTS
 10
140.9700
 20
106.9340
 30
0.0
 40
  1.2700
 1
20
 0
LINE
 8
PARTS
 10
136.9060
 20
113.7920
 30
0.0
 11
144.5260
 21
113.7920
 31
0.0
 0
LINE
 8
PARTS
 10
144.5260
 20
115.3160
 30
0.0
 11
146.0500
 21
113.7920
 31
0.0
 0
LINE
 8
PARTS
 10
146.0500
 20
113.7920
 30
0.0
 11
144.5260
 21
112.2680
 31
0.0
 0
TEXT
 8
PARTS
 10
146.8120
 20
113.1570
 30
0.0
 40
  1.2700
 1
XTAL2
 0
TEXT
 8
PARTS
 10
140.9700
 20
114.5540
 30
0.0
 40
  1.2700
 1
23
 0
LINE
 8
PARTS
 10
136.9060
 20
116.3320
 30
0.0
 11
144.5260
 21
116.3320
 31
0.0
 0
LINE
 8
PARTS
 10
144.5260
 20
117.8560
 30
0.0
 11
146.0500
 21
116.3320
 31
0.0
 0
LINE
 8
PARTS
 10
146.0500
 20
116.3320
 30
0.0
 11
144.5260
 21
114.8080
 31
0.0
 0
TEXT
 8
PARTS
 10
146.8120
 20
115.6970
 30
0.0
 40
  1.2700
 1
XTAL1
 0
TEXT
 8
PARTS
 10
140.9700
 20
117.0940
 30
0.0
 40
  1.2700
 1
24
 0
LINE
 8
PARTS
 10
210.5660
 20
108.7120
 30
0.0
 11
202.9460
 21
108.7120
 31
0.0
 0
TEXT
 8
PARTS
 10
194.5640
 20
108.0770
 30
0.0
 40
  1.2700
 1
PG0/%%oWR%%o
 0
TEXT
 8
PARTS
 10
204.4700
 20
109.4740
 30
0.0
 40
  1.2700
 1
33
 0
LINE
 8
PARTS
 10
210.5660
 20
106.1720
 30
0.0
 11
202.9460
 21
106.1720
 31
0.0
 0
TEXT
 8
PARTS
 10
194.5640
 20
105.5370
 30
0.0
 40
  1.2700
 1
PG1/%%oRD%%o
 0
TEXT
 8
PARTS
 10
204.4700
 20
106.9340
 30
0.0
 40
  1.2700
 1
34
 0
LINE
 8
PARTS
 10
210.5660
 20
103.6320
 30
0.0
 11
202.9460
 21
103.6320
 31
0.0
 0
TEXT
 8
PARTS
 10
193.5480
 20
102.9970
 30
0.0
 40
  1.2700
 1
PG2/ALE
 0
TEXT
 8
PARTS
 10
204.4700
 20
104.3940
 30
0.0
 40
  1.2700
 1
43
 0
LINE
 8
PARTS
 10
210.5660
 20
154.4320
 30
0.0
 11
202.9460
 21
154.4320
 31
0.0
 0
TEXT
 8
PARTS
 10
181.3560
 20
153.7970
 30
0.0
 40
  1.2700
 1
RXD0/PCINT8/PDI/PE0
 0
TEXT
 8
PARTS
 10
204.4700
 20
155.1940
 30
0.0
 40
  1.2700
 1
2
 0
LINE
 8
PARTS
 10
210.5660
 20
151.8920
 30
0.0
 11
202.9460
 21
151.8920
 31
0.0
 0
TEXT
 8
PARTS
 10
188.4680
 20
151.2570
 30
0.0
 40
  1.2700
 1
TXD0/PDO/PE1
 0
TEXT
 8
PARTS
 10
204.4700
 20
152.6540
 30
0.0
 40
  1.2700
 1
3
 0
LINE
 8
PARTS
 10
210.5660
 20
149.3520
 30
0.0
 11
202.9460
 21
149.3520
 31
0.0
 0
LINE
 8
PARTS
 10
202.9460
 20
150.8760
 30
0.0
 11
201.4220
 21
149.3520
 31
0.0
 0
LINE
 8
PARTS
 10
201.4220
 20
149.3520
 30
0.0
 11
202.9460
 21
147.8280
 31
0.0
 0
TEXT
 8
PARTS
 10
187.4520
 20
148.7170
 30
0.0
 40
  1.2700
 1
XCK0/AIN0/PE2
 0
TEXT
 8
PARTS
 10
204.4700
 20
150.1140
 30
0.0
 40
  1.2700
 1
4
 0
LINE
 8
PARTS
 10
210.5660
 20
146.8120
 30
0.0
 11
202.9460
 21
146.8120
 31
0.0
 0
TEXT
 8
PARTS
 10
187.4520
 20
146.1770
 30
0.0
 40
  1.2700
 1
OC3A/AIN1/PE3
 0
TEXT
 8
PARTS
 10
204.4700
 20
147.5740
 30
0.0
 40
  1.2700
 1
5
 0
LINE
 8
PARTS
 10
210.5660
 20
144.2720
 30
0.0
 11
202.9460
 21
144.2720
 31
0.0
 0
TEXT
 8
PARTS
 10
187.4520
 20
143.6370
 30
0.0
 40
  1.2700
 1
OC3B/INT4/PE4
 0
TEXT
 8
PARTS
 10
204.4700
 20
145.0340
 30
0.0
 40
  1.2700
 1
6
 0
LINE
 8
PARTS
 10
210.5660
 20
141.7320
 30
0.0
 11
202.9460
 21
141.7320
 31
0.0
 0
TEXT
 8
PARTS
 10
187.4520
 20
141.0970
 30
0.0
 40
  1.2700
 1
OC3C/INT5/PE5
 0
TEXT
 8
PARTS
 10
204.4700
 20
142.4940
 30
0.0
 40
  1.2700
 1
7
 0
LINE
 8
PARTS
 10
210.5660
 20
139.1920
 30
0.0
 11
202.9460
 21
139.1920
 31
0.0
 0
TEXT
 8
PARTS
 10
189.4840
 20
138.5570
 30
0.0
 40
  1.2700
 1
T3/INT6/PE6
 0
TEXT
 8
PARTS
 10
204.4700
 20
139.9540
 30
0.0
 40
  1.2700
 1
8
 0
LINE
 8
PARTS
 10
210.5660
 20
136.6520
 30
0.0
 11
202.9460
 21
136.6520
 31
0.0
 0
TEXT
 8
PARTS
 10
182.3720
 20
136.0170
 30
0.0
 40
  1.2700
 1
ICP3/CLKO/INT7/PE7
 0
TEXT
 8
PARTS
 10
204.4700
 20
137.4140
 30
0.0
 40
  1.2700
 1
9
 0
LINE
 8
PARTS
 10
210.5660
 20
184.9120
 30
0.0
 11
202.9460
 21
184.9120
 31
0.0
 0
TEXT
 8
PARTS
 10
197.6120
 20
184.2770
 30
0.0
 40
  1.2700
 1
VCC
 0
TEXT
 8
PARTS
 10
204.4700
 20
185.6740
 30
0.0
 40
  1.2700
 1
21
 0
LINE
 8
PARTS
 10
210.5660
 20
182.3720
 30
0.0
 11
202.9460
 21
182.3720
 31
0.0
 0
TEXT
 8
PARTS
 10
197.6120
 20
181.7370
 30
0.0
 40
  1.2700
 1
VCC
 0
TEXT
 8
PARTS
 10
204.4700
 20
183.1340
 30
0.0
 40
  1.2700
 1
52
 0
LINE
 8
PARTS
 10
210.5660
 20
189.9920
 30
0.0
 11
202.9460
 21
189.9920
 31
0.0
 0
TEXT
 8
PARTS
 10
196.5960
 20
189.3570
 30
0.0
 40
  1.2700
 1
AVCC
 0
TEXT
 8
PARTS
 10
204.4700
 20
190.7540
 30
0.0
 40
  1.2700
 1
64
 0
LINE
 8
PARTS
 10
136.9060
 20
101.0920
 30
0.0
 11
144.5260
 21
101.0920
 31
0.0
 0
TEXT
 8
PARTS
 10
146.8120
 20
100.4570
 30
0.0
 40
  1.2700
 1
GND
 0
TEXT
 8
PARTS
 10
140.9700
 20
101.8540
 30
0.0
 40
  1.2700
 1
22
 0
LINE
 8
PARTS
 10
136.9060
 20
 98.5520
 30
0.0
 11
144.5260
 21
 98.5520
 31
0.0
 0
TEXT
 8
PARTS
 10
146.8120
 20
 97.9170
 30
0.0
 40
  1.2700
 1
GND
 0
TEXT
 8
PARTS
 10
140.9700
 20
 99.3140
 30
0.0
 40
  1.2700
 1
53
 0
LINE
 8
PARTS
 10
136.9060
 20
 96.0120
 30
0.0
 11
144.5260
 21
 96.0120
 31
0.0
 0
TEXT
 8
PARTS
 10
146.8120
 20
 95.3770
 30
0.0
 40
  1.2700
 1
GND
 0
TEXT
 8
PARTS
 10
140.9700
 20
 96.7740
 30
0.0
 40
  1.2700
 1
63
 0
LINE
 8
PARTS
 10
136.9060
 20
121.4120
 30
0.0
 11
144.5260
 21
121.4120
 31
0.0
 0
TEXT
 8
PARTS
 10
146.8120
 20
120.7770
 30
0.0
 40
  1.2700
 1
AREF
 0
TEXT
 8
PARTS
 10
140.9700
 20
122.1740
 30
0.0
 40
  1.2700
 1
62
 0
POLYLINE
 8
PARTS
 66
1
 70
1
 10
0.0
 20
0.0
 30
0.0
 0
VERTEX
 8
PARTS
 10
144.5260
 20
192.5320
 30
0.0
 0
VERTEX
 8
PARTS
 10
202.9460
 20
192.5320
 30
0.0
 0
VERTEX
 8
PARTS
 10
202.9460
 20
 93.4720
 30
0.0
 0
VERTEX
 8
PARTS
 10
144.5260
 20
 93.4720
 30
0.0
 0
SEQEND
 8
PARTS
 0
TEXT
 8
PARTTEXT
 10
121.6660
 20
 84.5163
 30
0.0
 40
  1.3057
 1
SW3
 0
TEXT
 8
PARTTEXT
 10
119.1260
 20
 71.8163
 30
0.0
 40
  1.3057
 1
SW KEY-SPDT
 0
CIRCLE
 8
PARTS
 10
120.9040
 20
 78.2320
 30
0.0
 40
  0.7620
 0
LINE
 8
PARTS
 10
114.0460
 20
 78.2320
 30
0.0
 11
120.1420
 21
 78.2320
 31
0.0
 0
CIRCLE
 8
PARTS
 10
127.5080
 20
 80.7720
 30
0.0
 40
  0.7620
 0
LINE
 8
PARTS
 10
134.3660
 20
 80.7720
 30
0.0
 11
128.2700
 21
 80.7720
 31
0.0
 0
CIRCLE
 8
PARTS
 10
127.5080
 20
 75.6920
 30
0.0
 40
  0.7620
 0
LINE
 8
PARTS
 10
134.3660
 20
 75.6920
 30
0.0
 11
128.2700
 21
 75.6920
 31
0.0
 0
POLYLINE
 8
PARTS
 66
1
 10
0.0
 20
0.0
 30
0.0
 0
VERTEX
 8
PARTS
 10
121.6660
 20
 78.2320
 30
0.0
 0
VERTEX
 8
PARTS
 10
126.7460
 20
 80.7720
 30
0.0
 0
SEQEND
 8
PARTS
 0
TEXT
 8
PARTTEXT
 10
 22.6060
 20
165.7963
 30
0.0
 40
  1.3057
 1
SW5
 0
TEXT
 8
PARTTEXT
 10
 27.6860
 20
165.7963
 30
0.0
 40
  1.3057
 1
SW SPST
 0
CIRCLE
 8
PARTS
 10
 21.8440
 20
159.5120
 30
0.0
 40
  0.7620
 0
LINE
 8
PARTS
 10
 14.9860
 20
159.5120
 30
0.0
 11
 21.0820
 21
159.5120
 31
0.0
 0
CIRCLE
 8
PARTS
 10
 28.4480
 20
159.5120
 30
0.0
 40
  0.7620
 0
LINE
 8
PARTS
 10
 35.3060
 20
159.5120
 30
0.0
 11
 29.2100
 21
159.5120
 31
0.0
 0
POLYLINE
 8
PARTS
 66
1
 10
0.0
 20
0.0
 30
0.0
 0
VERTEX
 8
PARTS
 10
 22.6060
 20
159.5120
 30
0.0
 0
VERTEX
 8
PARTS
 10
 27.6860
 20
162.0520
 30
0.0
 0
SEQEND
 8
PARTS
 0
TEXT
 8
PARTTEXT
 10
281.6860
 20
198.8163
 30
0.0
 40
  1.3057
 1
U16
 0
LINE
 8
PARTS
 10
266.4460
 20
192.5320
 30
0.0
 11
274.0660
 21
192.5320
 31
0.0
 0
LINE
 8
PARTS
 10
266.4460
 20
184.9120
 30
0.0
 11
274.0660
 21
184.9120
 31
0.0
 0
LINE
 8
PARTS
 10
266.4460
 20
177.2920
 30
0.0
 11
274.0660
 21
177.2920
 31
0.0
 0
LINE
 8
PARTS
 10
266.4460
 20
169.6720
 30
0.0
 11
274.0660
 21
169.6720
 31
0.0
 0
LINE
 8
PARTS
 10
302.0060
 20
169.6720
 30
0.0
 11
294.3860
 21
169.6720
 31
0.0
 0
LINE
 8
PARTS
 10
302.0060
 20
177.2920
 30
0.0
 11
294.3860
 21
177.2920
 31
0.0
 0
LINE
 8
PARTS
 10
302.0060
 20
184.9120
 30
0.0
 11
294.3860
 21
184.9120
 31
0.0
 0
LINE
 8
PARTS
 10
302.0060
 20
192.5320
 30
0.0
 11
294.3860
 21
192.5320
 31
0.0
 0
POLYLINE
 8
PARTS
 66
1
 70
1
 10
0.0
 20
0.0
 30
0.0
 0
VERTEX
 8
PARTS
 10
285.4960
 20
187.4520
 30
0.0
 0
VERTEX
 8
PARTS
 10
288.0360
 20
187.4520
 30
0.0
 0
VERTEX
 8
PARTS
 10
286.7660
 20
188.7220
 30
0.0
 0
VERTEX
 8
PARTS
 10
285.4960
 20
187.4520
 30
0.0
 0
SEQEND
 8
PARTS
 0
POLYLINE
 8
PARTS
 66
1
 10
0.0
 20
0.0
 30
0.0
 0
VERTEX
 8
PARTS
 10
285.4960
 20
188.7220
 30
0.0
 0
VERTEX
 8
PARTS
 10
288.0360
 20
188.7220
 30
0.0
 0
SEQEND
 8
PARTS
 0
POLYLINE
 8
PARTS
 66
1
 10
0.0
 20
0.0
 30
0.0
 0
VERTEX
 8
PARTS
 10
279.1460
 20
189.9920
 30
0.0
 0
VERTEX
 8
PARTS
 10
279.1460
 20
184.9120
 30
0.0
 0
SEQEND
 8
PARTS
 0
POLYLINE
 8
PARTS
 66
1
 10
0.0
 20
0.0
 30
0.0
 0
VERTEX
 8
PARTS
 10
279.1460
 20
184.9120
 30
0.0
 0
VERTEX
 8
PARTS
 10
276.6060
 20
184.9120
 30
0.0
 0
SEQEND
 8
PARTS
 0
POLYLINE
 8
PARTS
 66
1
 10
0.0
 20
0.0
 30
0.0
 0
VERTEX
 8
PARTS
 10
280.4160
 20
183.6420
 30
0.0
 0
VERTEX
 8
PARTS
 10
280.4160
 20
185.6740
 30
0.0
 0
SEQEND
 8
PARTS
 0
POLYLINE
 8
PARTS
 66
1
 10
0.0
 20
0.0
 30
0.0
 0
VERTEX
 8
PARTS
 10
280.4160
 20
186.4360
 30
0.0
 0
VERTEX
 8
PARTS
 10
280.4160
 20
188.4680
 30
0.0
 0
SEQEND
 8
PARTS
 0
POLYLINE
 8
PARTS
 66
1
 10
0.0
 20
0.0
 30
0.0
 0
VERTEX
 8
PARTS
 10
280.4160
 20
189.2300
 30
0.0
 0
VERTEX
 8
PARTS
 10
280.4160
 20
191.2620
 30
0.0
 0
SEQEND
 8
PARTS
 0
POLYLINE
 8
PARTS
 66
1
 10
0.0
 20
0.0
 30
0.0
 0
VERTEX
 8
PARTS
 10
280.4160
 20
184.6580
 30
0.0
 0
VERTEX
 8
PARTS
 10
286.7660
 20
184.6580
 30
0.0
 0
SEQEND
 8
PARTS
 0
POLYLINE
 8
PARTS
 66
1
 10
0.0
 20
0.0
 30
0.0
 0
VERTEX
 8
PARTS
 10
286.7660
 20
184.6580
 30
0.0
 0
VERTEX
 8
PARTS
 10
286.7660
 20
187.4520
 30
0.0
 0
SEQEND
 8
PARTS
 0
POLYLINE
 8
PARTS
 66
1
 10
0.0
 20
0.0
 30
0.0
 0
VERTEX
 8
PARTS
 10
286.7660
 20
188.7220
 30
0.0
 0
VERTEX
 8
PARTS
 10
286.7660
 20
190.2460
 30
0.0
 0
SEQEND
 8
PARTS
 0
POLYLINE
 8
PARTS
 66
1
 10
0.0
 20
0.0
 30
0.0
 0
VERTEX
 8
PARTS
 10
286.7660
 20
190.2460
 30
0.0
 0
VERTEX
 8
PARTS
 10
280.4160
 20
190.2460
 30
0.0
 0
SEQEND
 8
PARTS
 0
POLYLINE
 8
PARTS
 66
1
 10
0.0
 20
0.0
 30
0.0
 0
VERTEX
 8
PARTS
 10
284.2260
 20
192.5320
 30
0.0
 0
VERTEX
 8
PARTS
 10
284.2260
 20
190.2460
 30
0.0
 0
SEQEND
 8
PARTS
 0
POLYLINE
 8
PARTS
 66
1
 10
0.0
 20
0.0
 30
0.0
 0
VERTEX
 8
PARTS
 10
281.6860
 20
187.4520
 30
0.0
 0
VERTEX
 8
PARTS
 10
284.2260
 20
187.4520
 30
0.0
 0
SEQEND
 8
PARTS
 0
POLYLINE
 8
PARTS
 66
1
 10
0.0
 20
0.0
 30
0.0
 0
VERTEX
 8
PARTS
 10
284.2260
 20
187.4520
 30
0.0
 0
VERTEX
 8
PARTS
 10
284.2260
 20
184.6580
 30
0.0
 0
SEQEND
 8
PARTS
 0
POLYLINE
 8
PARTS
 66
1
 10
0.0
 20
0.0
 30
0.0
 0
VERTEX
 8
PARTS
 10
288.0360
 20
188.7220
 30
0.0
 0
VERTEX
 8
PARTS
 10
288.5440
 20
189.2300
 30
0.0
 0
SEQEND
 8
PARTS
 0
POLYLINE
 8
PARTS
 66
1
 10
0.0
 20
0.0
 30
0.0
 0
VERTEX
 8
PARTS
 10
284.9880
 20
188.2140
 30
0.0
 0
VERTEX
 8
PARTS
 10
285.4960
 20
188.7220
 30
0.0
 0
SEQEND
 8
PARTS
 0
POLYLINE
 8
PARTS
 66
1
 10
0.0
 20
0.0
 30
0.0
 0
VERTEX
 8
PARTS
 10
284.2260
 20
182.3720
 30
0.0
 0
VERTEX
 8
PARTS
 10
284.2260
 20
184.9120
 30
0.0
 0
SEQEND
 8
PARTS
 0
POLYLINE
 8
PARTS
 66
1
 70
1
 10
0.0
 20
0.0
 30
0.0
 0
VERTEX
 8
PARTS
 10
280.4160
 20
187.4520
 30
0.0
 0
VERTEX
 8
PARTS
 10
282.1940
 20
186.9440
 30
0.0
 0
VERTEX
 8
PARTS
 10
282.1940
 20
187.9600
 30
0.0
 0
VERTEX
 8
PARTS
 10
280.4160
 20
187.4520
 30
0.0
 0
SEQEND
 8
PARTS
 0
POLYLINE
 8
PARTS
 66
1
 70
1
 10
0.0
 20
0.0
 30
0.0
 0
VERTEX
 8
PARTS
 10
284.7340
 20
190.2460
 30
0.0
 42
  0.0985
 0
VERTEX
 8
PARTS
 10
284.6953
 20
190.4404
 30
0.0
 42
  0.0985
 0
VERTEX
 8
PARTS
 10
284.5852
 20
190.6052
 30
0.0
 42
  0.0985
 0
VERTEX
 8
PARTS
 10
284.4204
 20
190.7153
 30
0.0
 42
  0.0985
 0
VERTEX
 8
PARTS
 10
284.2260
 20
190.7540
 30
0.0
 42
  0.0985
 0
VERTEX
 8
PARTS
 10
284.0316
 20
190.7153
 30
0.0
 42
  0.0985
 0
VERTEX
 8
PARTS
 10
283.8668
 20
190.6052
 30
0.0
 42
  0.0985
 0
VERTEX
 8
PARTS
 10
283.7567
 20
190.4404
 30
0.0
 42
  0.0985
 0
VERTEX
 8
PARTS
 10
283.7180
 20
190.2460
 30
0.0
 42
  0.0985
 0
VERTEX
 8
PARTS
 10
283.7567
 20
190.0516
 30
0.0
 42
  0.0985
 0
VERTEX
 8
PARTS
 10
283.8668
 20
189.8868
 30
0.0
 42
  0.0985
 0
VERTEX
 8
PARTS
 10
284.0316
 20
189.7767
 30
0.0
 42
  0.0985
 0
VERTEX
 8
PARTS
 10
284.2260
 20
189.7380
 30
0.0
 42
  0.0985
 0
VERTEX
 8
PARTS
 10
284.4204
 20
189.7767
 30
0.0
 42
  0.0985
 0
VERTEX
 8
PARTS
 10
284.5852
 20
189.8868
 30
0.0
 42
  0.0985
 0
VERTEX
 8
PARTS
 10
284.6953
 20
190.0516
 30
0.0
 42
  0.0985
 0
SEQEND
 8
PARTS
 0
POLYLINE
 8
PARTS
 66
1
 70
1
 10
0.0
 20
0.0
 30
0.0
 0
VERTEX
 8
PARTS
 10
284.7340
 20
184.6580
 30
0.0
 42
  0.0985
 0
VERTEX
 8
PARTS
 10
284.6953
 20
184.8524
 30
0.0
 42
  0.0985
 0
VERTEX
 8
PARTS
 10
284.5852
 20
185.0172
 30
0.0
 42
  0.0985
 0
VERTEX
 8
PARTS
 10
284.4204
 20
185.1273
 30
0.0
 42
  0.0985
 0
VERTEX
 8
PARTS
 10
284.2260
 20
185.1660
 30
0.0
 42
  0.0985
 0
VERTEX
 8
PARTS
 10
284.0316
 20
185.1273
 30
0.0
 42
  0.0985
 0
VERTEX
 8
PARTS
 10
283.8668
 20
185.0172
 30
0.0
 42
  0.0985
 0
VERTEX
 8
PARTS
 10
283.7567
 20
184.8524
 30
0.0
 42
  0.0985
 0
VERTEX
 8
PARTS
 10
283.7180
 20
184.6580
 30
0.0
 42
  0.0985
 0
VERTEX
 8
PARTS
 10
283.7567
 20
184.4636
 30
0.0
 42
  0.0985
 0
VERTEX
 8
PARTS
 10
283.8668
 20
184.2988
 30
0.0
 42
  0.0985
 0
VERTEX
 8
PARTS
 10
284.0316
 20
184.1887
 30
0.0
 42
  0.0985
 0
VERTEX
 8
PARTS
 10
284.2260
 20
184.1500
 30
0.0
 42
  0.0985
 0
VERTEX
 8
PARTS
 10
284.4204
 20
184.1887
 30
0.0
 42
  0.0985
 0
VERTEX
 8
PARTS
 10
284.5852
 20
184.2988
 30
0.0
 42
  0.0985
 0
VERTEX
 8
PARTS
 10
284.6953
 20
184.4636
 30
0.0
 42
  0.0985
 0
SEQEND
 8
PARTS
 0
POLYLINE
 8
PARTS
 66
1
 10
0.0
 20
0.0
 30
0.0
 0
VERTEX
 8
PARTS
 10
286.7660
 20
175.0060
 30
0.0
 0
VERTEX
 8
PARTS
 10
280.4160
 20
175.0060
 30
0.0
 0
SEQEND
 8
PARTS
 0
POLYLINE
 8
PARTS
 66
1
 70
1
 10
0.0
 20
0.0
 30
0.0
 0
VERTEX
 8
PARTS
 10
284.7340
 20
169.4180
 30
0.0
 42
  0.0985
 0
VERTEX
 8
PARTS
 10
284.6953
 20
169.6124
 30
0.0
 42
  0.0985
 0
VERTEX
 8
PARTS
 10
284.5852
 20
169.7772
 30
0.0
 42
  0.0985
 0
VERTEX
 8
PARTS
 10
284.4204
 20
169.8873
 30
0.0
 42
  0.0985
 0
VERTEX
 8
PARTS
 10
284.2260
 20
169.9260
 30
0.0
 42
  0.0985
 0
VERTEX
 8
PARTS
 10
284.0316
 20
169.8873
 30
0.0
 42
  0.0985
 0
VERTEX
 8
PARTS
 10
283.8668
 20
169.7772
 30
0.0
 42
  0.0985
 0
VERTEX
 8
PARTS
 10
283.7567
 20
169.6124
 30
0.0
 42
  0.0985
 0
VERTEX
 8
PARTS
 10
283.7180
 20
169.4180
 30
0.0
 42
  0.0985
 0
VERTEX
 8
PARTS
 10
283.7567
 20
169.2236
 30
0.0
 42
  0.0985
 0
VERTEX
 8
PARTS
 10
283.8668
 20
169.0588
 30
0.0
 42
  0.0985
 0
VERTEX
 8
PARTS
 10
284.0316
 20
168.9487
 30
0.0
 42
  0.0985
 0
VERTEX
 8
PARTS
 10
284.2260
 20
168.9100
 30
0.0
 42
  0.0985
 0
VERTEX
 8
PARTS
 10
284.4204
 20
168.9487
 30
0.0
 42
  0.0985
 0
VERTEX
 8
PARTS
 10
284.5852
 20
169.0588
 30
0.0
 42
  0.0985
 0
VERTEX
 8
PARTS
 10
284.6953
 20
169.2236
 30
0.0
 42
  0.0985
 0
SEQEND
 8
PARTS
 0
POLYLINE
 8
PARTS
 66
1
 10
0.0
 20
0.0
 30
0.0
 0
VERTEX
 8
PARTS
 10
286.7660
 20
173.4820
 30
0.0
 0
VERTEX
 8
PARTS
 10
286.7660
 20
175.0060
 30
0.0
 0
SEQEND
 8
PARTS
 0
POLYLINE
 8
PARTS
 66
1
 10
0.0
 20
0.0
 30
0.0
 0
VERTEX
 8
PARTS
 10
286.7660
 20
169.4180
 30
0.0
 0
VERTEX
 8
PARTS
 10
286.7660
 20
172.2120
 30
0.0
 0
SEQEND
 8
PARTS
 0
POLYLINE
 8
PARTS
 66
1
 10
0.0
 20
0.0
 30
0.0
 0
VERTEX
 8
PARTS
 10
280.4160
 20
169.4180
 30
0.0
 0
VERTEX
 8
PARTS
 10
286.7660
 20
169.4180
 30
0.0
 0
SEQEND
 8
PARTS
 0
POLYLINE
 8
PARTS
 66
1
 10
0.0
 20
0.0
 30
0.0
 0
VERTEX
 8
PARTS
 10
280.4160
 20
173.9900
 30
0.0
 0
VERTEX
 8
PARTS
 10
280.4160
 20
176.0220
 30
0.0
 0
SEQEND
 8
PARTS
 0
POLYLINE
 8
PARTS
 66
1
 70
1
 10
0.0
 20
0.0
 30
0.0
 0
VERTEX
 8
PARTS
 10
284.7340
 20
175.0060
 30
0.0
 42
  0.0985
 0
VERTEX
 8
PARTS
 10
284.6953
 20
175.2004
 30
0.0
 42
  0.0985
 0
VERTEX
 8
PARTS
 10
284.5852
 20
175.3652
 30
0.0
 42
  0.0985
 0
VERTEX
 8
PARTS
 10
284.4204
 20
175.4753
 30
0.0
 42
  0.0985
 0
VERTEX
 8
PARTS
 10
284.2260
 20
175.5140
 30
0.0
 42
  0.0985
 0
VERTEX
 8
PARTS
 10
284.0316
 20
175.4753
 30
0.0
 42
  0.0985
 0
VERTEX
 8
PARTS
 10
283.8668
 20
175.3652
 30
0.0
 42
  0.0985
 0
VERTEX
 8
PARTS
 10
283.7567
 20
175.2004
 30
0.0
 42
  0.0985
 0
VERTEX
 8
PARTS
 10
283.7180
 20
175.0060
 30
0.0
 42
  0.0985
 0
VERTEX
 8
PARTS
 10
283.7567
 20
174.8116
 30
0.0
 42
  0.0985
 0
VERTEX
 8
PARTS
 10
283.8668
 20
174.6468
 30
0.0
 42
  0.0985
 0
VERTEX
 8
PARTS
 10
284.0316
 20
174.5367
 30
0.0
 42
  0.0985
 0
VERTEX
 8
PARTS
 10
284.2260
 20
174.4980
 30
0.0
 42
  0.0985
 0
VERTEX
 8
PARTS
 10
284.4204
 20
174.5367
 30
0.0
 42
  0.0985
 0
VERTEX
 8
PARTS
 10
284.5852
 20
174.6468
 30
0.0
 42
  0.0985
 0
VERTEX
 8
PARTS
 10
284.6953
 20
174.8116
 30
0.0
 42
  0.0985
 0
SEQEND
 8
PARTS
 0
POLYLINE
 8
PARTS
 66
1
 10
0.0
 20
0.0
 30
0.0
 0
VERTEX
 8
PARTS
 10
280.4160
 20
171.1960
 30
0.0
 0
VERTEX
 8
PARTS
 10
280.4160
 20
173.2280
 30
0.0
 0
SEQEND
 8
PARTS
 0
POLYLINE
 8
PARTS
 66
1
 10
0.0
 20
0.0
 30
0.0
 0
VERTEX
 8
PARTS
 10
280.4160
 20
168.4020
 30
0.0
 0
VERTEX
 8
PARTS
 10
280.4160
 20
170.4340
 30
0.0
 0
SEQEND
 8
PARTS
 0
POLYLINE
 8
PARTS
 66
1
 10
0.0
 20
0.0
 30
0.0
 0
VERTEX
 8
PARTS
 10
279.1460
 20
169.6720
 30
0.0
 0
VERTEX
 8
PARTS
 10
276.6060
 20
169.6720
 30
0.0
 0
SEQEND
 8
PARTS
 0
POLYLINE
 8
PARTS
 66
1
 10
0.0
 20
0.0
 30
0.0
 0
VERTEX
 8
PARTS
 10
279.1460
 20
174.7520
 30
0.0
 0
VERTEX
 8
PARTS
 10
279.1460
 20
169.6720
 30
0.0
 0
SEQEND
 8
PARTS
 0
POLYLINE
 8
PARTS
 66
1
 70
1
 10
0.0
 20
0.0
 30
0.0
 0
VERTEX
 8
PARTS
 10
280.4160
 20
172.2120
 30
0.0
 0
VERTEX
 8
PARTS
 10
282.1940
 20
171.7040
 30
0.0
 0
VERTEX
 8
PARTS
 10
282.1940
 20
172.7200
 30
0.0
 0
VERTEX
 8
PARTS
 10
280.4160
 20
172.2120
 30
0.0
 0
SEQEND
 8
PARTS
 0
POLYLINE
 8
PARTS
 66
1
 10
0.0
 20
0.0
 30
0.0
 0
VERTEX
 8
PARTS
 10
285.4960
 20
173.4820
 30
0.0
 0
VERTEX
 8
PARTS
 10
288.0360
 20
173.4820
 30
0.0
 0
SEQEND
 8
PARTS
 0
POLYLINE
 8
PARTS
 66
1
 10
0.0
 20
0.0
 30
0.0
 0
VERTEX
 8
PARTS
 10
284.2260
 20
167.1320
 30
0.0
 0
VERTEX
 8
PARTS
 10
284.2260
 20
169.6720
 30
0.0
 0
SEQEND
 8
PARTS
 0
POLYLINE
 8
PARTS
 66
1
 10
0.0
 20
0.0
 30
0.0
 0
VERTEX
 8
PARTS
 10
284.9880
 20
172.9740
 30
0.0
 0
VERTEX
 8
PARTS
 10
285.4960
 20
173.4820
 30
0.0
 0
SEQEND
 8
PARTS
 0
POLYLINE
 8
PARTS
 66
1
 10
0.0
 20
0.0
 30
0.0
 0
VERTEX
 8
PARTS
 10
288.0360
 20
173.4820
 30
0.0
 0
VERTEX
 8
PARTS
 10
288.5440
 20
173.9900
 30
0.0
 0
SEQEND
 8
PARTS
 0
POLYLINE
 8
PARTS
 66
1
 70
1
 10
0.0
 20
0.0
 30
0.0
 0
VERTEX
 8
PARTS
 10
285.4960
 20
172.2120
 30
0.0
 0
VERTEX
 8
PARTS
 10
288.0360
 20
172.2120
 30
0.0
 0
VERTEX
 8
PARTS
 10
286.7660
 20
173.4820
 30
0.0
 0
VERTEX
 8
PARTS
 10
285.4960
 20
172.2120
 30
0.0
 0
SEQEND
 8
PARTS
 0
POLYLINE
 8
PARTS
 66
1
 10
0.0
 20
0.0
 30
0.0
 0
VERTEX
 8
PARTS
 10
284.2260
 20
172.2120
 30
0.0
 0
VERTEX
 8
PARTS
 10
284.2260
 20
169.4180
 30
0.0
 0
SEQEND
 8
PARTS
 0
POLYLINE
 8
PARTS
 66
1
 10
0.0
 20
0.0
 30
0.0
 0
VERTEX
 8
PARTS
 10
281.6860
 20
172.2120
 30
0.0
 0
VERTEX
 8
PARTS
 10
284.2260
 20
172.2120
 30
0.0
 0
SEQEND
 8
PARTS
 0
POLYLINE
 8
PARTS
 66
1
 10
0.0
 20
0.0
 30
0.0
 0
VERTEX
 8
PARTS
 10
284.2260
 20
177.2920
 30
0.0
 0
VERTEX
 8
PARTS
 10
284.2260
 20
175.0060
 30
0.0
 0
SEQEND
 8
PARTS
 0
POLYLINE
 8
PARTS
 66
1
 10
0.0
 20
0.0
 30
0.0
 0
VERTEX
 8
PARTS
 10
284.2260
 20
192.5320
 30
0.0
 0
VERTEX
 8
PARTS
 10
294.3860
 20
192.5320
 30
0.0
 0
SEQEND
 8
PARTS
 0
POLYLINE
 8
PARTS
 66
1
 10
0.0
 20
0.0
 30
0.0
 0
VERTEX
 8
PARTS
 10
294.3860
 20
184.9120
 30
0.0
 0
VERTEX
 8
PARTS
 10
289.3060
 20
184.9120
 30
0.0
 0
SEQEND
 8
PARTS
 0
POLYLINE
 8
PARTS
 66
1
 10
0.0
 20
0.0
 30
0.0
 0
VERTEX
 8
PARTS
 10
289.3060
 20
184.9120
 30
0.0
 0
VERTEX
 8
PARTS
 10
289.3060
 20
192.5320
 30
0.0
 0
SEQEND
 8
PARTS
 0
POLYLINE
 8
PARTS
 66
1
 10
0.0
 20
0.0
 30
0.0
 0
VERTEX
 8
PARTS
 10
276.6060
 20
184.9120
 30
0.0
 0
VERTEX
 8
PARTS
 10
274.0660
 20
184.9120
 30
0.0
 0
SEQEND
 8
PARTS
 0
POLYLINE
 8
PARTS
 66
1
 10
0.0
 20
0.0
 30
0.0
 0
VERTEX
 8
PARTS
 10
284.2260
 20
182.3720
 30
0.0
 0
VERTEX
 8
PARTS
 10
276.6060
 20
182.3720
 30
0.0
 0
SEQEND
 8
PARTS
 0
POLYLINE
 8
PARTS
 66
1
 10
0.0
 20
0.0
 30
0.0
 0
VERTEX
 8
PARTS
 10
276.6060
 20
182.3720
 30
0.0
 0
VERTEX
 8
PARTS
 10
276.6060
 20
192.5320
 30
0.0
 0
SEQEND
 8
PARTS
 0
POLYLINE
 8
PARTS
 66
1
 10
0.0
 20
0.0
 30
0.0
 0
VERTEX
 8
PARTS
 10
276.6060
 20
192.5320
 30
0.0
 0
VERTEX
 8
PARTS
 10
274.0660
 20
192.5320
 30
0.0
 0
SEQEND
 8
PARTS
 0
POLYLINE
 8
PARTS
 66
1
 10
0.0
 20
0.0
 30
0.0
 0
VERTEX
 8
PARTS
 10
284.2260
 20
177.2920
 30
0.0
 0
VERTEX
 8
PARTS
 10
289.3060
 20
177.2920
 30
0.0
 0
SEQEND
 8
PARTS
 0
POLYLINE
 8
PARTS
 66
1
 10
0.0
 20
0.0
 30
0.0
 0
VERTEX
 8
PARTS
 10
289.3060
 20
177.2920
 30
0.0
 0
VERTEX
 8
PARTS
 10
294.3860
 20
177.2920
 30
0.0
 0
SEQEND
 8
PARTS
 0
POLYLINE
 8
PARTS
 66
1
 10
0.0
 20
0.0
 30
0.0
 0
VERTEX
 8
PARTS
 10
294.3860
 20
169.6720
 30
0.0
 0
VERTEX
 8
PARTS
 10
289.3060
 20
169.6720
 30
0.0
 0
SEQEND
 8
PARTS
 0
POLYLINE
 8
PARTS
 66
1
 10
0.0
 20
0.0
 30
0.0
 0
VERTEX
 8
PARTS
 10
289.3060
 20
169.6720
 30
0.0
 0
VERTEX
 8
PARTS
 10
289.3060
 20
177.2920
 30
0.0
 0
SEQEND
 8
PARTS
 0
POLYLINE
 8
PARTS
 66
1
 10
0.0
 20
0.0
 30
0.0
 0
VERTEX
 8
PARTS
 10
274.0660
 20
169.6720
 30
0.0
 0
VERTEX
 8
PARTS
 10
276.6060
 20
169.6720
 30
0.0
 0
SEQEND
 8
PARTS
 0
POLYLINE
 8
PARTS
 66
1
 10
0.0
 20
0.0
 30
0.0
 0
VERTEX
 8
PARTS
 10
284.2260
 20
167.1320
 30
0.0
 0
VERTEX
 8
PARTS
 10
276.6060
 20
167.1320
 30
0.0
 0
SEQEND
 8
PARTS
 0
POLYLINE
 8
PARTS
 66
1
 10
0.0
 20
0.0
 30
0.0
 0
VERTEX
 8
PARTS
 10
276.6060
 20
167.1320
 30
0.0
 0
VERTEX
 8
PARTS
 10
276.6060
 20
177.2920
 30
0.0
 0
SEQEND
 8
PARTS
 0
POLYLINE
 8
PARTS
 66
1
 10
0.0
 20
0.0
 30
0.0
 0
VERTEX
 8
PARTS
 10
276.6060
 20
177.2920
 30
0.0
 0
VERTEX
 8
PARTS
 10
274.0660
 20
177.2920
 30
0.0
 0
SEQEND
 8
PARTS
 0
TEXT
 8
PARTTEXT
 10
274.0660
 20
193.7363
 30
0.0
 40
  1.3057
 1
S1
 0
TEXT
 8
PARTTEXT
 10
274.0660
 20
186.1163
 30
0.0
 40
  1.3057
 1
G1
 0
TEXT
 8
PARTTEXT
 10
274.0660
 20
178.4963
 30
0.0
 40
  1.3057
 1
S2
 0
TEXT
 8
PARTTEXT
 10
274.0660
 20
170.8763
 30
0.0
 40
  1.3057
 1
G2
 0
TEXT
 8
PARTTEXT
 10
291.8460
 20
193.7363
 30
0.0
 40
  1.3057
 1
D1
 0
TEXT
 8
PARTTEXT
 10
291.8460
 20
186.1163
 30
0.0
 40
  1.3057
 1
D1
 0
TEXT
 8
PARTTEXT
 10
291.8460
 20
178.4963
 30
0.0
 40
  1.3057
 1
D2
 0
TEXT
 8
PARTTEXT
 10
291.8460
 20
170.8763
 30
0.0
 40
  1.3057
 1
D2
 0
POLYLINE
 8
PARTS
 66
1
 70
1
 10
0.0
 20
0.0
 30
0.0
 0
VERTEX
 8
PARTS
 10
274.0660
 20
197.6120
 30
0.0
 0
VERTEX
 8
PARTS
 10
294.3860
 20
197.6120
 30
0.0
 0
VERTEX
 8
PARTS
 10
294.3860
 20
164.5920
 30
0.0
 0
VERTEX
 8
PARTS
 10
274.0660
 20
164.5920
 30
0.0
 0
SEQEND
 8
PARTS
 0
TEXT
 8
PARTTEXT
 10
253.7460
 20
163.2563
 30
0.0
 40
  1.3057
 1
R82
 0
TEXT
 8
PARTTEXT
 10
253.7460
 20
158.1763
 30
0.0
 40
  1.3057
 1
10k
 0
LINE
 8
PARTS
 10
258.8260
 20
154.4320
 30
0.0
 11
258.8260
 21
156.9720
 31
0.0
 0
LINE
 8
PARTS
 10
258.8260
 20
167.1320
 30
0.0
 11
258.8260
 21
164.5920
 31
0.0
 0
POLYLINE
 8
PARTS
 66
1
 10
0.0
 20
0.0
 30
0.0
 0
VERTEX
 8
PARTS
 10
258.8260
 20
156.9720
 30
0.0
 0
VERTEX
 8
PARTS
 10
258.0640
 20
157.7340
 30
0.0
 0
SEQEND
 8
PARTS
 0
POLYLINE
 8
PARTS
 66
1
 10
0.0
 20
0.0
 30
0.0
 0
VERTEX
 8
PARTS
 10
258.0640
 20
157.7340
 30
0.0
 0
VERTEX
 8
PARTS
 10
259.5880
 20
159.2580
 30
0.0
 0
SEQEND
 8
PARTS
 0
POLYLINE
 8
PARTS
 66
1
 10
0.0
 20
0.0
 30
0.0
 0
VERTEX
 8
PARTS
 10
259.5880
 20
159.2580
 30
0.0
 0
VERTEX
 8
PARTS
 10
258.0640
 20
160.7820
 30
0.0
 0
SEQEND
 8
PARTS
 0
POLYLINE
 8
PARTS
 66
1
 10
0.0
 20
0.0
 30
0.0
 0
VERTEX
 8
PARTS
 10
258.0640
 20
160.7820
 30
0.0
 0
VERTEX
 8
PARTS
 10
259.5880
 20
162.3060
 30
0.0
 0
SEQEND
 8
PARTS
 0
POLYLINE
 8
PARTS
 66
1
 10
0.0
 20
0.0
 30
0.0
 0
VERTEX
 8
PARTS
 10
259.5880
 20
162.3060
 30
0.0
 0
VERTEX
 8
PARTS
 10
258.0640
 20
163.8300
 30
0.0
 0
SEQEND
 8
PARTS
 0
POLYLINE
 8
PARTS
 66
1
 10
0.0
 20
0.0
 30
0.0
 0
VERTEX
 8
PARTS
 10
258.0640
 20
163.8300
 30
0.0
 0
VERTEX
 8
PARTS
 10
258.8260
 20
164.5920
 30
0.0
 0
SEQEND
 8
PARTS
 0
TEXT
 8
PARTTEXT
 10
281.6860
 20
145.4763
 30
0.0
 40
  1.3057
 1
U17
 0
LINE
 8
PARTS
 10
266.4460
 20
139.1920
 30
0.0
 11
274.0660
 21
139.1920
 31
0.0
 0
LINE
 8
PARTS
 10
266.4460
 20
131.5720
 30
0.0
 11
274.0660
 21
131.5720
 31
0.0
 0
LINE
 8
PARTS
 10
266.4460
 20
123.9520
 30
0.0
 11
274.0660
 21
123.9520
 31
0.0
 0
LINE
 8
PARTS
 10
266.4460
 20
116.3320
 30
0.0
 11
274.0660
 21
116.3320
 31
0.0
 0
LINE
 8
PARTS
 10
302.0060
 20
116.3320
 30
0.0
 11
294.3860
 21
116.3320
 31
0.0
 0
LINE
 8
PARTS
 10
302.0060
 20
123.9520
 30
0.0
 11
294.3860
 21
123.9520
 31
0.0
 0
LINE
 8
PARTS
 10
302.0060
 20
131.5720
 30
0.0
 11
294.3860
 21
131.5720
 31
0.0
 0
LINE
 8
PARTS
 10
302.0060
 20
139.1920
 30
0.0
 11
294.3860
 21
139.1920
 31
0.0
 0
POLYLINE
 8
PARTS
 66
1
 70
1
 10
0.0
 20
0.0
 30
0.0
 0
VERTEX
 8
PARTS
 10
285.4960
 20
134.1120
 30
0.0
 0
VERTEX
 8
PARTS
 10
288.0360
 20
134.1120
 30
0.0
 0
VERTEX
 8
PARTS
 10
286.7660
 20
135.3820
 30
0.0
 0
VERTEX
 8
PARTS
 10
285.4960
 20
134.1120
 30
0.0
 0
SEQEND
 8
PARTS
 0
POLYLINE
 8
PARTS
 66
1
 10
0.0
 20
0.0
 30
0.0
 0
VERTEX
 8
PARTS
 10
285.4960
 20
135.3820
 30
0.0
 0
VERTEX
 8
PARTS
 10
288.0360
 20
135.3820
 30
0.0
 0
SEQEND
 8
PARTS
 0
POLYLINE
 8
PARTS
 66
1
 10
0.0
 20
0.0
 30
0.0
 0
VERTEX
 8
PARTS
 10
279.1460
 20
136.6520
 30
0.0
 0
VERTEX
 8
PARTS
 10
279.1460
 20
131.5720
 30
0.0
 0
SEQEND
 8
PARTS
 0
POLYLINE
 8
PARTS
 66
1
 10
0.0
 20
0.0
 30
0.0
 0
VERTEX
 8
PARTS
 10
279.1460
 20
131.5720
 30
0.0
 0
VERTEX
 8
PARTS
 10
276.6060
 20
131.5720
 30
0.0
 0
SEQEND
 8
PARTS
 0
POLYLINE
 8
PARTS
 66
1
 10
0.0
 20
0.0
 30
0.0
 0
VERTEX
 8
PARTS
 10
280.4160
 20
130.3020
 30
0.0
 0
VERTEX
 8
PARTS
 10
280.4160
 20
132.3340
 30
0.0
 0
SEQEND
 8
PARTS
 0
POLYLINE
 8
PARTS
 66
1
 10
0.0
 20
0.0
 30
0.0
 0
VERTEX
 8
PARTS
 10
280.4160
 20
133.0960
 30
0.0
 0
VERTEX
 8
PARTS
 10
280.4160
 20
135.1280
 30
0.0
 0
SEQEND
 8
PARTS
 0
POLYLINE
 8
PARTS
 66
1
 10
0.0
 20
0.0
 30
0.0
 0
VERTEX
 8
PARTS
 10
280.4160
 20
135.8900
 30
0.0
 0
VERTEX
 8
PARTS
 10
280.4160
 20
137.9220
 30
0.0
 0
SEQEND
 8
PARTS
 0
POLYLINE
 8
PARTS
 66
1
 10
0.0
 20
0.0
 30
0.0
 0
VERTEX
 8
PARTS
 10
280.4160
 20
131.3180
 30
0.0
 0
VERTEX
 8
PARTS
 10
286.7660
 20
131.3180
 30
0.0
 0
SEQEND
 8
PARTS
 0
POLYLINE
 8
PARTS
 66
1
 10
0.0
 20
0.0
 30
0.0
 0
VERTEX
 8
PARTS
 10
286.7660
 20
131.3180
 30
0.0
 0
VERTEX
 8
PARTS
 10
286.7660
 20
134.1120
 30
0.0
 0
SEQEND
 8
PARTS
 0
POLYLINE
 8
PARTS
 66
1
 10
0.0
 20
0.0
 30
0.0
 0
VERTEX
 8
PARTS
 10
286.7660
 20
135.3820
 30
0.0
 0
VERTEX
 8
PARTS
 10
286.7660
 20
136.9060
 30
0.0
 0
SEQEND
 8
PARTS
 0
POLYLINE
 8
PARTS
 66
1
 10
0.0
 20
0.0
 30
0.0
 0
VERTEX
 8
PARTS
 10
286.7660
 20
136.9060
 30
0.0
 0
VERTEX
 8
PARTS
 10
280.4160
 20
136.9060
 30
0.0
 0
SEQEND
 8
PARTS
 0
POLYLINE
 8
PARTS
 66
1
 10
0.0
 20
0.0
 30
0.0
 0
VERTEX
 8
PARTS
 10
284.2260
 20
139.1920
 30
0.0
 0
VERTEX
 8
PARTS
 10
284.2260
 20
136.9060
 30
0.0
 0
SEQEND
 8
PARTS
 0
POLYLINE
 8
PARTS
 66
1
 10
0.0
 20
0.0
 30
0.0
 0
VERTEX
 8
PARTS
 10
281.6860
 20
134.1120
 30
0.0
 0
VERTEX
 8
PARTS
 10
284.2260
 20
134.1120
 30
0.0
 0
SEQEND
 8
PARTS
 0
POLYLINE
 8
PARTS
 66
1
 10
0.0
 20
0.0
 30
0.0
 0
VERTEX
 8
PARTS
 10
284.2260
 20
134.1120
 30
0.0
 0
VERTEX
 8
PARTS
 10
284.2260
 20
131.3180
 30
0.0
 0
SEQEND
 8
PARTS
 0
POLYLINE
 8
PARTS
 66
1
 10
0.0
 20
0.0
 30
0.0
 0
VERTEX
 8
PARTS
 10
288.0360
 20
135.3820
 30
0.0
 0
VERTEX
 8
PARTS
 10
288.5440
 20
135.8900
 30
0.0
 0
SEQEND
 8
PARTS
 0
POLYLINE
 8
PARTS
 66
1
 10
0.0
 20
0.0
 30
0.0
 0
VERTEX
 8
PARTS
 10
284.9880
 20
134.8740
 30
0.0
 0
VERTEX
 8
PARTS
 10
285.4960
 20
135.3820
 30
0.0
 0
SEQEND
 8
PARTS
 0
POLYLINE
 8
PARTS
 66
1
 10
0.0
 20
0.0
 30
0.0
 0
VERTEX
 8
PARTS
 10
284.2260
 20
129.0320
 30
0.0
 0
VERTEX
 8
PARTS
 10
284.2260
 20
131.5720
 30
0.0
 0
SEQEND
 8
PARTS
 0
POLYLINE
 8
PARTS
 66
1
 70
1
 10
0.0
 20
0.0
 30
0.0
 0
VERTEX
 8
PARTS
 10
280.4160
 20
134.1120
 30
0.0
 0
VERTEX
 8
PARTS
 10
282.1940
 20
133.6040
 30
0.0
 0
VERTEX
 8
PARTS
 10
282.1940
 20
134.6200
 30
0.0
 0
VERTEX
 8
PARTS
 10
280.4160
 20
134.1120
 30
0.0
 0
SEQEND
 8
PARTS
 0
POLYLINE
 8
PARTS
 66
1
 70
1
 10
0.0
 20
0.0
 30
0.0
 0
VERTEX
 8
PARTS
 10
284.7340
 20
136.9060
 30
0.0
 42
  0.0985
 0
VERTEX
 8
PARTS
 10
284.6953
 20
137.1004
 30
0.0
 42
  0.0985
 0
VERTEX
 8
PARTS
 10
284.5852
 20
137.2652
 30
0.0
 42
  0.0985
 0
VERTEX
 8
PARTS
 10
284.4204
 20
137.3753
 30
0.0
 42
  0.0985
 0
VERTEX
 8
PARTS
 10
284.2260
 20
137.4140
 30
0.0
 42
  0.0985
 0
VERTEX
 8
PARTS
 10
284.0316
 20
137.3753
 30
0.0
 42
  0.0985
 0
VERTEX
 8
PARTS
 10
283.8668
 20
137.2652
 30
0.0
 42
  0.0985
 0
VERTEX
 8
PARTS
 10
283.7567
 20
137.1004
 30
0.0
 42
  0.0985
 0
VERTEX
 8
PARTS
 10
283.7180
 20
136.9060
 30
0.0
 42
  0.0985
 0
VERTEX
 8
PARTS
 10
283.7567
 20
136.7116
 30
0.0
 42
  0.0985
 0
VERTEX
 8
PARTS
 10
283.8668
 20
136.5468
 30
0.0
 42
  0.0985
 0
VERTEX
 8
PARTS
 10
284.0316
 20
136.4367
 30
0.0
 42
  0.0985
 0
VERTEX
 8
PARTS
 10
284.2260
 20
136.3980
 30
0.0
 42
  0.0985
 0
VERTEX
 8
PARTS
 10
284.4204
 20
136.4367
 30
0.0
 42
  0.0985
 0
VERTEX
 8
PARTS
 10
284.5852
 20
136.5468
 30
0.0
 42
  0.0985
 0
VERTEX
 8
PARTS
 10
284.6953
 20
136.7116
 30
0.0
 42
  0.0985
 0
SEQEND
 8
PARTS
 0
POLYLINE
 8
PARTS
 66
1
 70
1
 10
0.0
 20
0.0
 30
0.0
 0
VERTEX
 8
PARTS
 10
284.7340
 20
131.3180
 30
0.0
 42
  0.0985
 0
VERTEX
 8
PARTS
 10
284.6953
 20
131.5124
 30
0.0
 42
  0.0985
 0
VERTEX
 8
PARTS
 10
284.5852
 20
131.6772
 30
0.0
 42
  0.0985
 0
VERTEX
 8
PARTS
 10
284.4204
 20
131.7873
 30
0.0
 42
  0.0985
 0
VERTEX
 8
PARTS
 10
284.2260
 20
131.8260
 30
0.0
 42
  0.0985
 0
VERTEX
 8
PARTS
 10
284.0316
 20
131.7873
 30
0.0
 42
  0.0985
 0
VERTEX
 8
PARTS
 10
283.8668
 20
131.6772
 30
0.0
 42
  0.0985
 0
VERTEX
 8
PARTS
 10
283.7567
 20
131.5124
 30
0.0
 42
  0.0985
 0
VERTEX
 8
PARTS
 10
283.7180
 20
131.3180
 30
0.0
 42
  0.0985
 0
VERTEX
 8
PARTS
 10
283.7567
 20
131.1236
 30
0.0
 42
  0.0985
 0
VERTEX
 8
PARTS
 10
283.8668
 20
130.9588
 30
0.0
 42
  0.0985
 0
VERTEX
 8
PARTS
 10
284.0316
 20
130.8487
 30
0.0
 42
  0.0985
 0
VERTEX
 8
PARTS
 10
284.2260
 20
130.8100
 30
0.0
 42
  0.0985
 0
VERTEX
 8
PARTS
 10
284.4204
 20
130.8487
 30
0.0
 42
  0.0985
 0
VERTEX
 8
PARTS
 10
284.5852
 20
130.9588
 30
0.0
 42
  0.0985
 0
VERTEX
 8
PARTS
 10
284.6953
 20
131.1236
 30
0.0
 42
  0.0985
 0
SEQEND
 8
PARTS
 0
POLYLINE
 8
PARTS
 66
1
 10
0.0
 20
0.0
 30
0.0
 0
VERTEX
 8
PARTS
 10
286.7660
 20
121.6660
 30
0.0
 0
VERTEX
 8
PARTS
 10
280.4160
 20
121.6660
 30
0.0
 0
SEQEND
 8
PARTS
 0
POLYLINE
 8
PARTS
 66
1
 70
1
 10
0.0
 20
0.0
 30
0.0
 0
VERTEX
 8
PARTS
 10
284.7340
 20
116.0780
 30
0.0
 42
  0.0985
 0
VERTEX
 8
PARTS
 10
284.6953
 20
116.2724
 30
0.0
 42
  0.0985
 0
VERTEX
 8
PARTS
 10
284.5852
 20
116.4372
 30
0.0
 42
  0.0985
 0
VERTEX
 8
PARTS
 10
284.4204
 20
116.5473
 30
0.0
 42
  0.0985
 0
VERTEX
 8
PARTS
 10
284.2260
 20
116.5860
 30
0.0
 42
  0.0985
 0
VERTEX
 8
PARTS
 10
284.0316
 20
116.5473
 30
0.0
 42
  0.0985
 0
VERTEX
 8
PARTS
 10
283.8668
 20
116.4372
 30
0.0
 42
  0.0985
 0
VERTEX
 8
PARTS
 10
283.7567
 20
116.2724
 30
0.0
 42
  0.0985
 0
VERTEX
 8
PARTS
 10
283.7180
 20
116.0780
 30
0.0
 42
  0.0985
 0
VERTEX
 8
PARTS
 10
283.7567
 20
115.8836
 30
0.0
 42
  0.0985
 0
VERTEX
 8
PARTS
 10
283.8668
 20
115.7188
 30
0.0
 42
  0.0985
 0
VERTEX
 8
PARTS
 10
284.0316
 20
115.6087
 30
0.0
 42
  0.0985
 0
VERTEX
 8
PARTS
 10
284.2260
 20
115.5700
 30
0.0
 42
  0.0985
 0
VERTEX
 8
PARTS
 10
284.4204
 20
115.6087
 30
0.0
 42
  0.0985
 0
VERTEX
 8
PARTS
 10
284.5852
 20
115.7188
 30
0.0
 42
  0.0985
 0
VERTEX
 8
PARTS
 10
284.6953
 20
115.8836
 30
0.0
 42
  0.0985
 0
SEQEND
 8
PARTS
 0
POLYLINE
 8
PARTS
 66
1
 10
0.0
 20
0.0
 30
0.0
 0
VERTEX
 8
PARTS
 10
286.7660
 20
120.1420
 30
0.0
 0
VERTEX
 8
PARTS
 10
286.7660
 20
121.6660
 30
0.0
 0
SEQEND
 8
PARTS
 0
POLYLINE
 8
PARTS
 66
1
 10
0.0
 20
0.0
 30
0.0
 0
VERTEX
 8
PARTS
 10
286.7660
 20
116.0780
 30
0.0
 0
VERTEX
 8
PARTS
 10
286.7660
 20
118.8720
 30
0.0
 0
SEQEND
 8
PARTS
 0
POLYLINE
 8
PARTS
 66
1
 10
0.0
 20
0.0
 30
0.0
 0
VERTEX
 8
PARTS
 10
280.4160
 20
116.0780
 30
0.0
 0
VERTEX
 8
PARTS
 10
286.7660
 20
116.0780
 30
0.0
 0
SEQEND
 8
PARTS
 0
POLYLINE
 8
PARTS
 66
1
 10
0.0
 20
0.0
 30
0.0
 0
VERTEX
 8
PARTS
 10
280.4160
 20
120.6500
 30
0.0
 0
VERTEX
 8
PARTS
 10
280.4160
 20
122.6820
 30
0.0
 0
SEQEND
 8
PARTS
 0
POLYLINE
 8
PARTS
 66
1
 70
1
 10
0.0
 20
0.0
 30
0.0
 0
VERTEX
 8
PARTS
 10
284.7340
 20
121.6660
 30
0.0
 42
  0.0985
 0
VERTEX
 8
PARTS
 10
284.6953
 20
121.8604
 30
0.0
 42
  0.0985
 0
VERTEX
 8
PARTS
 10
284.5852
 20
122.0252
 30
0.0
 42
  0.0985
 0
VERTEX
 8
PARTS
 10
284.4204
 20
122.1353
 30
0.0
 42
  0.0985
 0
VERTEX
 8
PARTS
 10
284.2260
 20
122.1740
 30
0.0
 42
  0.0985
 0
VERTEX
 8
PARTS
 10
284.0316
 20
122.1353
 30
0.0
 42
  0.0985
 0
VERTEX
 8
PARTS
 10
283.8668
 20
122.0252
 30
0.0
 42
  0.0985
 0
VERTEX
 8
PARTS
 10
283.7567
 20
121.8604
 30
0.0
 42
  0.0985
 0
VERTEX
 8
PARTS
 10
283.7180
 20
121.6660
 30
0.0
 42
  0.0985
 0
VERTEX
 8
PARTS
 10
283.7567
 20
121.4716
 30
0.0
 42
  0.0985
 0
VERTEX
 8
PARTS
 10
283.8668
 20
121.3068
 30
0.0
 42
  0.0985
 0
VERTEX
 8
PARTS
 10
284.0316
 20
121.1967
 30
0.0
 42
  0.0985
 0
VERTEX
 8
PARTS
 10
284.2260
 20
121.1580
 30
0.0
 42
  0.0985
 0
VERTEX
 8
PARTS
 10
284.4204
 20
121.1967
 30
0.0
 42
  0.0985
 0
VERTEX
 8
PARTS
 10
284.5852
 20
121.3068
 30
0.0
 42
  0.0985
 0
VERTEX
 8
PARTS
 10
284.6953
 20
121.4716
 30
0.0
 42
  0.0985
 0
SEQEND
 8
PARTS
 0
POLYLINE
 8
PARTS
 66
1
 10
0.0
 20
0.0
 30
0.0
 0
VERTEX
 8
PARTS
 10
280.4160
 20
117.8560
 30
0.0
 0
VERTEX
 8
PARTS
 10
280.4160
 20
119.8880
 30
0.0
 0
SEQEND
 8
PARTS
 0
POLYLINE
 8
PARTS
 66
1
 10
0.0
 20
0.0
 30
0.0
 0
VERTEX
 8
PARTS
 10
280.4160
 20
115.0620
 30
0.0
 0
VERTEX
 8
PARTS
 10
280.4160
 20
117.0940
 30
0.0
 0
SEQEND
 8
PARTS
 0
POLYLINE
 8
PARTS
 66
1
 10
0.0
 20
0.0
 30
0.0
 0
VERTEX
 8
PARTS
 10
279.1460
 20
116.3320
 30
0.0
 0
VERTEX
 8
PARTS
 10
276.6060
 20
116.3320
 30
0.0
 0
SEQEND
 8
PARTS
 0
POLYLINE
 8
PARTS
 66
1
 10
0.0
 20
0.0
 30
0.0
 0
VERTEX
 8
PARTS
 10
279.1460
 20
121.4120
 30
0.0
 0
VERTEX
 8
PARTS
 10
279.1460
 20
116.3320
 30
0.0
 0
SEQEND
 8
PARTS
 0
POLYLINE
 8
PARTS
 66
1
 70
1
 10
0.0
 20
0.0
 30
0.0
 0
VERTEX
 8
PARTS
 10
280.4160
 20
118.8720
 30
0.0
 0
VERTEX
 8
PARTS
 10
282.1940
 20
118.3640
 30
0.0
 0
VERTEX
 8
PARTS
 10
282.1940
 20
119.3800
 30
0.0
 0
VERTEX
 8
PARTS
 10
280.4160
 20
118.8720
 30
0.0
 0
SEQEND
 8
PARTS
 0
POLYLINE
 8
PARTS
 66
1
 10
0.0
 20
0.0
 30
0.0
 0
VERTEX
 8
PARTS
 10
285.4960
 20
120.1420
 30
0.0
 0
VERTEX
 8
PARTS
 10
288.0360
 20
120.1420
 30
0.0
 0
SEQEND
 8
PARTS
 0
POLYLINE
 8
PARTS
 66
1
 10
0.0
 20
0.0
 30
0.0
 0
VERTEX
 8
PARTS
 10
284.2260
 20
113.7920
 30
0.0
 0
VERTEX
 8
PARTS
 10
284.2260
 20
116.3320
 30
0.0
 0
SEQEND
 8
PARTS
 0
POLYLINE
 8
PARTS
 66
1
 10
0.0
 20
0.0
 30
0.0
 0
VERTEX
 8
PARTS
 10
284.9880
 20
119.6340
 30
0.0
 0
VERTEX
 8
PARTS
 10
285.4960
 20
120.1420
 30
0.0
 0
SEQEND
 8
PARTS
 0
POLYLINE
 8
PARTS
 66
1
 10
0.0
 20
0.0
 30
0.0
 0
VERTEX
 8
PARTS
 10
288.0360
 20
120.1420
 30
0.0
 0
VERTEX
 8
PARTS
 10
288.5440
 20
120.6500
 30
0.0
 0
SEQEND
 8
PARTS
 0
POLYLINE
 8
PARTS
 66
1
 70
1
 10
0.0
 20
0.0
 30
0.0
 0
VERTEX
 8
PARTS
 10
285.4960
 20
118.8720
 30
0.0
 0
VERTEX
 8
PARTS
 10
288.0360
 20
118.8720
 30
0.0
 0
VERTEX
 8
PARTS
 10
286.7660
 20
120.1420
 30
0.0
 0
VERTEX
 8
PARTS
 10
285.4960
 20
118.8720
 30
0.0
 0
SEQEND
 8
PARTS
 0
POLYLINE
 8
PARTS
 66
1
 10
0.0
 20
0.0
 30
0.0
 0
VERTEX
 8
PARTS
 10
284.2260
 20
118.8720
 30
0.0
 0
VERTEX
 8
PARTS
 10
284.2260
 20
116.0780
 30
0.0
 0
SEQEND
 8
PARTS
 0
POLYLINE
 8
PARTS
 66
1
 10
0.0
 20
0.0
 30
0.0
 0
VERTEX
 8
PARTS
 10
281.6860
 20
118.8720
 30
0.0
 0
VERTEX
 8
PARTS
 10
284.2260
 20
118.8720
 30
0.0
 0
SEQEND
 8
PARTS
 0
POLYLINE
 8
PARTS
 66
1
 10
0.0
 20
0.0
 30
0.0
 0
VERTEX
 8
PARTS
 10
284.2260
 20
123.9520
 30
0.0
 0
VERTEX
 8
PARTS
 10
284.2260
 20
121.6660
 30
0.0
 0
SEQEND
 8
PARTS
 0
POLYLINE
 8
PARTS
 66
1
 10
0.0
 20
0.0
 30
0.0
 0
VERTEX
 8
PARTS
 10
284.2260
 20
139.1920
 30
0.0
 0
VERTEX
 8
PARTS
 10
294.3860
 20
139.1920
 30
0.0
 0
SEQEND
 8
PARTS
 0
POLYLINE
 8
PARTS
 66
1
 10
0.0
 20
0.0
 30
0.0
 0
VERTEX
 8
PARTS
 10
294.3860
 20
131.5720
 30
0.0
 0
VERTEX
 8
PARTS
 10
289.3060
 20
131.5720
 30
0.0
 0
SEQEND
 8
PARTS
 0
POLYLINE
 8
PARTS
 66
1
 10
0.0
 20
0.0
 30
0.0
 0
VERTEX
 8
PARTS
 10
289.3060
 20
131.5720
 30
0.0
 0
VERTEX
 8
PARTS
 10
289.3060
 20
139.1920
 30
0.0
 0
SEQEND
 8
PARTS
 0
POLYLINE
 8
PARTS
 66
1
 10
0.0
 20
0.0
 30
0.0
 0
VERTEX
 8
PARTS
 10
276.6060
 20
131.5720
 30
0.0
 0
VERTEX
 8
PARTS
 10
274.0660
 20
131.5720
 30
0.0
 0
SEQEND
 8
PARTS
 0
POLYLINE
 8
PARTS
 66
1
 10
0.0
 20
0.0
 30
0.0
 0
VERTEX
 8
PARTS
 10
284.2260
 20
129.0320
 30
0.0
 0
VERTEX
 8
PARTS
 10
276.6060
 20
129.0320
 30
0.0
 0
SEQEND
 8
PARTS
 0
POLYLINE
 8
PARTS
 66
1
 10
0.0
 20
0.0
 30
0.0
 0
VERTEX
 8
PARTS
 10
276.6060
 20
129.0320
 30
0.0
 0
VERTEX
 8
PARTS
 10
276.6060
 20
139.1920
 30
0.0
 0
SEQEND
 8
PARTS
 0
POLYLINE
 8
PARTS
 66
1
 10
0.0
 20
0.0
 30
0.0
 0
VERTEX
 8
PARTS
 10
276.6060
 20
139.1920
 30
0.0
 0
VERTEX
 8
PARTS
 10
274.0660
 20
139.1920
 30
0.0
 0
SEQEND
 8
PARTS
 0
POLYLINE
 8
PARTS
 66
1
 10
0.0
 20
0.0
 30
0.0
 0
VERTEX
 8
PARTS
 10
284.2260
 20
123.9520
 30
0.0
 0
VERTEX
 8
PARTS
 10
289.3060
 20
123.9520
 30
0.0
 0
SEQEND
 8
PARTS
 0
POLYLINE
 8
PARTS
 66
1
 10
0.0
 20
0.0
 30
0.0
 0
VERTEX
 8
PARTS
 10
289.3060
 20
123.9520
 30
0.0
 0
VERTEX
 8
PARTS
 10
294.3860
 20
123.9520
 30
0.0
 0
SEQEND
 8
PARTS
 0
POLYLINE
 8
PARTS
 66
1
 10
0.0
 20
0.0
 30
0.0
 0
VERTEX
 8
PARTS
 10
294.3860
 20
116.3320
 30
0.0
 0
VERTEX
 8
PARTS
 10
289.3060
 20
116.3320
 30
0.0
 0
SEQEND
 8
PARTS
 0
POLYLINE
 8
PARTS
 66
1
 10
0.0
 20
0.0
 30
0.0
 0
VERTEX
 8
PARTS
 10
289.3060
 20
116.3320
 30
0.0
 0
VERTEX
 8
PARTS
 10
289.3060
 20
123.9520
 30
0.0
 0
SEQEND
 8
PARTS
 0
POLYLINE
 8
PARTS
 66
1
 10
0.0
 20
0.0
 30
0.0
 0
VERTEX
 8
PARTS
 10
274.0660
 20
116.3320
 30
0.0
 0
VERTEX
 8
PARTS
 10
276.6060
 20
116.3320
 30
0.0
 0
SEQEND
 8
PARTS
 0
POLYLINE
 8
PARTS
 66
1
 10
0.0
 20
0.0
 30
0.0
 0
VERTEX
 8
PARTS
 10
284.2260
 20
113.7920
 30
0.0
 0
VERTEX
 8
PARTS
 10
276.6060
 20
113.7920
 30
0.0
 0
SEQEND
 8
PARTS
 0
POLYLINE
 8
PARTS
 66
1
 10
0.0
 20
0.0
 30
0.0
 0
VERTEX
 8
PARTS
 10
276.6060
 20
113.7920
 30
0.0
 0
VERTEX
 8
PARTS
 10
276.6060
 20
123.9520
 30
0.0
 0
SEQEND
 8
PARTS
 0
POLYLINE
 8
PARTS
 66
1
 10
0.0
 20
0.0
 30
0.0
 0
VERTEX
 8
PARTS
 10
276.6060
 20
123.9520
 30
0.0
 0
VERTEX
 8
PARTS
 10
274.0660
 20
123.9520
 30
0.0
 0
SEQEND
 8
PARTS
 0
TEXT
 8
PARTTEXT
 10
274.0660
 20
140.3963
 30
0.0
 40
  1.3057
 1
S1
 0
TEXT
 8
PARTTEXT
 10
274.0660
 20
132.7763
 30
0.0
 40
  1.3057
 1
G1
 0
TEXT
 8
PARTTEXT
 10
274.0660
 20
125.1563
 30
0.0
 40
  1.3057
 1
S2
 0
TEXT
 8
PARTTEXT
 10
274.0660
 20
117.5363
 30
0.0
 40
  1.3057
 1
G2
 0
TEXT
 8
PARTTEXT
 10
291.8460
 20
140.3963
 30
0.0
 40
  1.3057
 1
D1
 0
TEXT
 8
PARTTEXT
 10
291.8460
 20
132.7763
 30
0.0
 40
  1.3057
 1
D1
 0
TEXT
 8
PARTTEXT
 10
291.8460
 20
125.1563
 30
0.0
 40
  1.3057
 1
D2
 0
TEXT
 8
PARTTEXT
 10
291.8460
 20
117.5363
 30
0.0
 40
  1.3057
 1
D2
 0
POLYLINE
 8
PARTS
 66
1
 70
1
 10
0.0
 20
0.0
 30
0.0
 0
VERTEX
 8
PARTS
 10
274.0660
 20
144.2720
 30
0.0
 0
VERTEX
 8
PARTS
 10
294.3860
 20
144.2720
 30
0.0
 0
VERTEX
 8
PARTS
 10
294.3860
 20
111.2520
 30
0.0
 0
VERTEX
 8
PARTS
 10
274.0660
 20
111.2520
 30
0.0
 0
SEQEND
 8
PARTS
 0
TEXT
 8
PARTTEXT
 10
248.6660
 20
193.7363
 30
0.0
 40
  1.3057
 1
R79
 0
TEXT
 8
PARTTEXT
 10
253.7460
 20
193.7363
 30
0.0
 40
  1.3057
 1
56
 0
LINE
 8
PARTS
 10
246.1260
 20
189.9920
 30
0.0
 11
248.6660
 21
189.9920
 31
0.0
 0
LINE
 8
PARTS
 10
258.8260
 20
189.9920
 30
0.0
 11
256.2860
 21
189.9920
 31
0.0
 0
POLYLINE
 8
PARTS
 66
1
 10
0.0
 20
0.0
 30
0.0
 0
VERTEX
 8
PARTS
 10
248.6660
 20
189.9920
 30
0.0
 0
VERTEX
 8
PARTS
 10
249.4280
 20
190.7540
 30
0.0
 0
SEQEND
 8
PARTS
 0
POLYLINE
 8
PARTS
 66
1
 10
0.0
 20
0.0
 30
0.0
 0
VERTEX
 8
PARTS
 10
249.4280
 20
190.7540
 30
0.0
 0
VERTEX
 8
PARTS
 10
250.9520
 20
189.2300
 30
0.0
 0
SEQEND
 8
PARTS
 0
POLYLINE
 8
PARTS
 66
1
 10
0.0
 20
0.0
 30
0.0
 0
VERTEX
 8
PARTS
 10
250.9520
 20
189.2300
 30
0.0
 0
VERTEX
 8
PARTS
 10
252.4760
 20
190.7540
 30
0.0
 0
SEQEND
 8
PARTS
 0
POLYLINE
 8
PARTS
 66
1
 10
0.0
 20
0.0
 30
0.0
 0
VERTEX
 8
PARTS
 10
252.4760
 20
190.7540
 30
0.0
 0
VERTEX
 8
PARTS
 10
254.0000
 20
189.2300
 30
0.0
 0
SEQEND
 8
PARTS
 0
POLYLINE
 8
PARTS
 66
1
 10
0.0
 20
0.0
 30
0.0
 0
VERTEX
 8
PARTS
 10
254.0000
 20
189.2300
 30
0.0
 0
VERTEX
 8
PARTS
 10
255.5240
 20
190.7540
 30
0.0
 0
SEQEND
 8
PARTS
 0
POLYLINE
 8
PARTS
 66
1
 10
0.0
 20
0.0
 30
0.0
 0
VERTEX
 8
PARTS
 10
255.5240
 20
190.7540
 30
0.0
 0
VERTEX
 8
PARTS
 10
256.2860
 20
189.9920
 30
0.0
 0
SEQEND
 8
PARTS
 0
TEXT
 8
PARTTEXT
 10
253.7460
 20
 79.4363
 30
0.0
 40
  1.3057
 1
R87
 0
TEXT
 8
PARTTEXT
 10
253.7460
 20
 74.3563
 30
0.0
 40
  1.3057
 1
10k
 0
LINE
 8
PARTS
 10
258.8260
 20
 83.3120
 30
0.0
 11
258.8260
 21
 80.7720
 31
0.0
 0
LINE
 8
PARTS
 10
258.8260
 20
 70.6120
 30
0.0
 11
258.8260
 21
 73.1520
 31
0.0
 0
POLYLINE
 8
PARTS
 66
1
 10
0.0
 20
0.0
 30
0.0
 0
VERTEX
 8
PARTS
 10
258.8260
 20
 80.7720
 30
0.0
 0
VERTEX
 8
PARTS
 10
259.5880
 20
 80.0100
 30
0.0
 0
SEQEND
 8
PARTS
 0
POLYLINE
 8
PARTS
 66
1
 10
0.0
 20
0.0
 30
0.0
 0
VERTEX
 8
PARTS
 10
259.5880
 20
 80.0100
 30
0.0
 0
VERTEX
 8
PARTS
 10
258.0640
 20
 78.4860
 30
0.0
 0
SEQEND
 8
PARTS
 0
POLYLINE
 8
PARTS
 66
1
 10
0.0
 20
0.0
 30
0.0
 0
VERTEX
 8
PARTS
 10
258.0640
 20
 78.4860
 30
0.0
 0
VERTEX
 8
PARTS
 10
259.5880
 20
 76.9620
 30
0.0
 0
SEQEND
 8
PARTS
 0
POLYLINE
 8
PARTS
 66
1
 10
0.0
 20
0.0
 30
0.0
 0
VERTEX
 8
PARTS
 10
259.5880
 20
 76.9620
 30
0.0
 0
VERTEX
 8
PARTS
 10
258.0640
 20
 75.4380
 30
0.0
 0
SEQEND
 8
PARTS
 0
POLYLINE
 8
PARTS
 66
1
 10
0.0
 20
0.0
 30
0.0
 0
VERTEX
 8
PARTS
 10
258.0640
 20
 75.4380
 30
0.0
 0
VERTEX
 8
PARTS
 10
259.5880
 20
 73.9140
 30
0.0
 0
SEQEND
 8
PARTS
 0
POLYLINE
 8
PARTS
 66
1
 10
0.0
 20
0.0
 30
0.0
 0
VERTEX
 8
PARTS
 10
259.5880
 20
 73.9140
 30
0.0
 0
VERTEX
 8
PARTS
 10
258.8260
 20
 73.1520
 30
0.0
 0
SEQEND
 8
PARTS
 0
TEXT
 8
PARTTEXT
 10
248.6660
 20
173.4163
 30
0.0
 40
  1.3057
 1
R80
 0
TEXT
 8
PARTTEXT
 10
253.7460
 20
173.4163
 30
0.0
 40
  1.3057
 1
56
 0
LINE
 8
PARTS
 10
246.1260
 20
169.6720
 30
0.0
 11
248.6660
 21
169.6720
 31
0.0
 0
LINE
 8
PARTS
 10
258.8260
 20
169.6720
 30
0.0
 11
256.2860
 21
169.6720
 31
0.0
 0
POLYLINE
 8
PARTS
 66
1
 10
0.0
 20
0.0
 30
0.0
 0
VERTEX
 8
PARTS
 10
248.6660
 20
169.6720
 30
0.0
 0
VERTEX
 8
PARTS
 10
249.4280
 20
170.4340
 30
0.0
 0
SEQEND
 8
PARTS
 0
POLYLINE
 8
PARTS
 66
1
 10
0.0
 20
0.0
 30
0.0
 0
VERTEX
 8
PARTS
 10
249.4280
 20
170.4340
 30
0.0
 0
VERTEX
 8
PARTS
 10
250.9520
 20
168.9100
 30
0.0
 0
SEQEND
 8
PARTS
 0
POLYLINE
 8
PARTS
 66
1
 10
0.0
 20
0.0
 30
0.0
 0
VERTEX
 8
PARTS
 10
250.9520
 20
168.9100
 30
0.0
 0
VERTEX
 8
PARTS
 10
252.4760
 20
170.4340
 30
0.0
 0
SEQEND
 8
PARTS
 0
POLYLINE
 8
PARTS
 66
1
 10
0.0
 20
0.0
 30
0.0
 0
VERTEX
 8
PARTS
 10
252.4760
 20
170.4340
 30
0.0
 0
VERTEX
 8
PARTS
 10
254.0000
 20
168.9100
 30
0.0
 0
SEQEND
 8
PARTS
 0
POLYLINE
 8
PARTS
 66
1
 10
0.0
 20
0.0
 30
0.0
 0
VERTEX
 8
PARTS
 10
254.0000
 20
168.9100
 30
0.0
 0
VERTEX
 8
PARTS
 10
255.5240
 20
170.4340
 30
0.0
 0
SEQEND
 8
PARTS
 0
POLYLINE
 8
PARTS
 66
1
 10
0.0
 20
0.0
 30
0.0
 0
VERTEX
 8
PARTS
 10
255.5240
 20
170.4340
 30
0.0
 0
VERTEX
 8
PARTS
 10
256.2860
 20
169.6720
 30
0.0
 0
SEQEND
 8
PARTS
 0
TEXT
 8
PARTTEXT
 10
218.9480
 20
 54.0363
 30
0.0
 40
  1.3057
 1
R78
 0
TEXT
 8
PARTTEXT
 10
214.3760
 20
 54.0363
 30
0.0
 40
  1.3057
 1
300
 0
LINE
 8
PARTS
 10
225.8060
 20
 50.2920
 30
0.0
 11
223.2660
 21
 50.2920
 31
0.0
 0
LINE
 8
PARTS
 10
213.1060
 20
 50.2920
 30
0.0
 11
215.6460
 21
 50.2920
 31
0.0
 0
POLYLINE
 8
PARTS
 66
1
 10
0.0
 20
0.0
 30
0.0
 0
VERTEX
 8
PARTS
 10
223.2660
 20
 50.2920
 30
0.0
 0
VERTEX
 8
PARTS
 10
222.5040
 20
 51.0540
 30
0.0
 0
SEQEND
 8
PARTS
 0
POLYLINE
 8
PARTS
 66
1
 10
0.0
 20
0.0
 30
0.0
 0
VERTEX
 8
PARTS
 10
222.5040
 20
 51.0540
 30
0.0
 0
VERTEX
 8
PARTS
 10
220.9800
 20
 49.5300
 30
0.0
 0
SEQEND
 8
PARTS
 0
POLYLINE
 8
PARTS
 66
1
 10
0.0
 20
0.0
 30
0.0
 0
VERTEX
 8
PARTS
 10
220.9800
 20
 49.5300
 30
0.0
 0
VERTEX
 8
PARTS
 10
219.4560
 20
 51.0540
 30
0.0
 0
SEQEND
 8
PARTS
 0
POLYLINE
 8
PARTS
 66
1
 10
0.0
 20
0.0
 30
0.0
 0
VERTEX
 8
PARTS
 10
219.4560
 20
 51.0540
 30
0.0
 0
VERTEX
 8
PARTS
 10
217.9320
 20
 49.5300
 30
0.0
 0
SEQEND
 8
PARTS
 0
POLYLINE
 8
PARTS
 66
1
 10
0.0
 20
0.0
 30
0.0
 0
VERTEX
 8
PARTS
 10
217.9320
 20
 49.5300
 30
0.0
 0
VERTEX
 8
PARTS
 10
216.4080
 20
 51.0540
 30
0.0
 0
SEQEND
 8
PARTS
 0
POLYLINE
 8
PARTS
 66
1
 10
0.0
 20
0.0
 30
0.0
 0
VERTEX
 8
PARTS
 10
216.4080
 20
 51.0540
 30
0.0
 0
VERTEX
 8
PARTS
 10
215.6460
 20
 50.2920
 30
0.0
 0
SEQEND
 8
PARTS
 0
TEXT
 8
PARTTEXT
 10
152.1460
 20
 54.0363
 30
0.0
 40
  1.3057
 1
R77
 0
TEXT
 8
PARTTEXT
 10
157.2260
 20
 54.0363
 30
0.0
 40
  1.3057
 1
300
 0
LINE
 8
PARTS
 10
149.6060
 20
 50.2920
 30
0.0
 11
152.1460
 21
 50.2920
 31
0.0
 0
LINE
 8
PARTS
 10
162.3060
 20
 50.2920
 30
0.0
 11
159.7660
 21
 50.2920
 31
0.0
 0
POLYLINE
 8
PARTS
 66
1
 10
0.0
 20
0.0
 30
0.0
 0
VERTEX
 8
PARTS
 10
152.1460
 20
 50.2920
 30
0.0
 0
VERTEX
 8
PARTS
 10
152.9080
 20
 51.0540
 30
0.0
 0
SEQEND
 8
PARTS
 0
POLYLINE
 8
PARTS
 66
1
 10
0.0
 20
0.0
 30
0.0
 0
VERTEX
 8
PARTS
 10
152.9080
 20
 51.0540
 30
0.0
 0
VERTEX
 8
PARTS
 10
154.4320
 20
 49.5300
 30
0.0
 0
SEQEND
 8
PARTS
 0
POLYLINE
 8
PARTS
 66
1
 10
0.0
 20
0.0
 30
0.0
 0
VERTEX
 8
PARTS
 10
154.4320
 20
 49.5300
 30
0.0
 0
VERTEX
 8
PARTS
 10
155.9560
 20
 51.0540
 30
0.0
 0
SEQEND
 8
PARTS
 0
POLYLINE
 8
PARTS
 66
1
 10
0.0
 20
0.0
 30
0.0
 0
VERTEX
 8
PARTS
 10
155.9560
 20
 51.0540
 30
0.0
 0
VERTEX
 8
PARTS
 10
157.4800
 20
 49.5300
 30
0.0
 0
SEQEND
 8
PARTS
 0
POLYLINE
 8
PARTS
 66
1
 10
0.0
 20
0.0
 30
0.0
 0
VERTEX
 8
PARTS
 10
157.4800
 20
 49.5300
 30
0.0
 0
VERTEX
 8
PARTS
 10
159.0040
 20
 51.0540
 30
0.0
 0
SEQEND
 8
PARTS
 0
POLYLINE
 8
PARTS
 66
1
 10
0.0
 20
0.0
 30
0.0
 0
VERTEX
 8
PARTS
 10
159.0040
 20
 51.0540
 30
0.0
 0
VERTEX
 8
PARTS
 10
159.7660
 20
 50.2920
 30
0.0
 0
SEQEND
 8
PARTS
 0
TEXT
 8
PARTTEXT
 10
125.7300
 20
186.1163
 30
0.0
 40
  1.3057
 1
R60
 0
TEXT
 8
PARTTEXT
 10
125.7300
 20
183.0683
 30
0.0
 40
  1.3057
 1
10k
 0
LINE
 8
PARTS
 10
121.6660
 20
189.9920
 30
0.0
 11
121.6660
 21
187.4520
 31
0.0
 0
LINE
 8
PARTS
 10
121.6660
 20
177.2920
 30
0.0
 11
121.6660
 21
179.8320
 31
0.0
 0
POLYLINE
 8
PARTS
 66
1
 10
0.0
 20
0.0
 30
0.0
 0
VERTEX
 8
PARTS
 10
121.6660
 20
187.4520
 30
0.0
 0
VERTEX
 8
PARTS
 10
122.4280
 20
186.6900
 30
0.0
 0
SEQEND
 8
PARTS
 0
POLYLINE
 8
PARTS
 66
1
 10
0.0
 20
0.0
 30
0.0
 0
VERTEX
 8
PARTS
 10
122.4280
 20
186.6900
 30
0.0
 0
VERTEX
 8
PARTS
 10
120.9040
 20
185.1660
 30
0.0
 0
SEQEND
 8
PARTS
 0
POLYLINE
 8
PARTS
 66
1
 10
0.0
 20
0.0
 30
0.0
 0
VERTEX
 8
PARTS
 10
120.9040
 20
185.1660
 30
0.0
 0
VERTEX
 8
PARTS
 10
122.4280
 20
183.6420
 30
0.0
 0
SEQEND
 8
PARTS
 0
POLYLINE
 8
PARTS
 66
1
 10
0.0
 20
0.0
 30
0.0
 0
VERTEX
 8
PARTS
 10
122.4280
 20
183.6420
 30
0.0
 0
VERTEX
 8
PARTS
 10
120.9040
 20
182.1180
 30
0.0
 0
SEQEND
 8
PARTS
 0
POLYLINE
 8
PARTS
 66
1
 10
0.0
 20
0.0
 30
0.0
 0
VERTEX
 8
PARTS
 10
120.9040
 20
182.1180
 30
0.0
 0
VERTEX
 8
PARTS
 10
122.4280
 20
180.5940
 30
0.0
 0
SEQEND
 8
PARTS
 0
POLYLINE
 8
PARTS
 66
1
 10
0.0
 20
0.0
 30
0.0
 0
VERTEX
 8
PARTS
 10
122.4280
 20
180.5940
 30
0.0
 0
VERTEX
 8
PARTS
 10
121.6660
 20
179.8320
 30
0.0
 0
SEQEND
 8
PARTS
 0
TEXT
 8
PARTTEXT
 10
 47.4980
 20
196.2763
 30
0.0
 40
  1.3057
 1
U19
 0
TEXT
 8
PARTTEXT
 10
 53.0860
 20
196.2763
 30
0.0
 40
  1.3057
 1
AP1084K33LA
 0
LINE
 8
PARTS
 10
 40.3860
 20
189.9920
 30
0.0
 11
 48.0060
 21
189.9920
 31
0.0
 0
TEXT
 8
PARTS
 10
 50.2920
 20
189.3570
 30
0.0
 40
  1.2700
 1
IN
 0
TEXT
 8
PARTS
 10
 45.4660
 20
190.7540
 30
0.0
 40
  1.2700
 1
3
 0
LINE
 8
PARTS
 10
 70.8660
 20
189.9920
 30
0.0
 11
 63.2460
 21
189.9920
 31
0.0
 0
TEXT
 8
PARTS
 10
 51.8160
 20
189.3570
 30
0.0
 40
  1.2700
 1
Adj (GND)
 0
TEXT
 8
PARTS
 10
 64.7700
 20
190.7540
 30
0.0
 40
  1.2700
 1
1
 0
LINE
 8
PARTS
 10
 55.6260
 20
177.2920
 30
0.0
 11
 55.6260
 21
184.9120
 31
0.0
 0
TEXT
 8
PARTS
 10
 56.2610
 20
187.1980
 30
0.0
 40
  1.2700
 50
 90.0000
 1
Out
 0
TEXT
 8
PARTS
 10
 54.8640
 20
181.8640
 30
0.0
 40
  1.2700
 50
 90.0000
 1
2
 0
POLYLINE
 8
PARTS
 66
1
 70
1
 10
0.0
 20
0.0
 30
0.0
 0
VERTEX
 8
PARTS
 10
 48.0060
 20
192.5320
 30
0.0
 0
VERTEX
 8
PARTS
 10
 63.2460
 20
192.5320
 30
0.0
 0
VERTEX
 8
PARTS
 10
 63.2460
 20
184.9120
 30
0.0
 0
VERTEX
 8
PARTS
 10
 48.0060
 20
184.9120
 30
0.0
 0
SEQEND
 8
PARTS
 0
TEXT
 8
PARTTEXT
 10
195.0720
 20
 69.2763
 30
0.0
 40
  1.3057
 1
C2
 0
TEXT
 8
PARTTEXT
 10
195.0720
 20
 66.9903
 30
0.0
 40
  1.3057
 1
470u
 0
LINE
 8
PARTS
 10
190.2460
 20
 73.1520
 30
0.0
 11
190.2460
 21
 70.6120
 31
0.0
 0
LINE
 8
PARTS
 10
190.2460
 20
 65.5320
 30
0.0
 11
190.2460
 21
 68.0720
 31
0.0
 0
POLYLINE
 8
PARTS
 66
1
 10
0.0
 20
0.0
 30
0.0
 0
VERTEX
 8
PARTS
 10
187.7060
 20
 70.6120
 30
0.0
 0
VERTEX
 8
PARTS
 10
192.7860
 20
 70.6120
 30
0.0
 0
SEQEND
 8
PARTS
 0
POLYLINE
 8
PARTS
 66
1
 10
0.0
 20
0.0
 30
0.0
 0
VERTEX
 8
PARTS
 10
190.2460
 20
 69.5960
 30
0.0
 0
VERTEX
 8
PARTS
 10
190.2460
 20
 68.0720
 30
0.0
 0
SEQEND
 8
PARTS
 0
POLYLINE
 8
PARTS
 66
1
 10
0.0
 20
0.0
 30
0.0
 0
VERTEX
 8
PARTS
 10
192.7860
 20
 68.8340
 30
0.0
 42
  0.1654
 0
VERTEX
 8
PARTS
 10
190.2460
 20
 69.5960
 30
0.0
 0
SEQEND
 8
PARTS
 0
POLYLINE
 8
PARTS
 66
1
 10
0.0
 20
0.0
 30
0.0
 0
VERTEX
 8
PARTS
 10
190.2460
 20
 69.5960
 30
0.0
 42
  0.1654
 0
VERTEX
 8
PARTS
 10
187.7060
 20
 68.8340
 30
0.0
 0
SEQEND
 8
PARTS
 0
TEXT
 8
PARTTEXT
 10
248.6660
 20
120.0763
 30
0.0
 40
  1.3057
 1
R86
 0
TEXT
 8
PARTTEXT
 10
253.7460
 20
120.0763
 30
0.0
 40
  1.3057
 1
56
 0
LINE
 8
PARTS
 10
246.1260
 20
116.3320
 30
0.0
 11
248.6660
 21
116.3320
 31
0.0
 0
LINE
 8
PARTS
 10
258.8260
 20
116.3320
 30
0.0
 11
256.2860
 21
116.3320
 31
0.0
 0
POLYLINE
 8
PARTS
 66
1
 10
0.0
 20
0.0
 30
0.0
 0
VERTEX
 8
PARTS
 10
248.6660
 20
116.3320
 30
0.0
 0
VERTEX
 8
PARTS
 10
249.4280
 20
117.0940
 30
0.0
 0
SEQEND
 8
PARTS
 0
POLYLINE
 8
PARTS
 66
1
 10
0.0
 20
0.0
 30
0.0
 0
VERTEX
 8
PARTS
 10
249.4280
 20
117.0940
 30
0.0
 0
VERTEX
 8
PARTS
 10
250.9520
 20
115.5700
 30
0.0
 0
SEQEND
 8
PARTS
 0
POLYLINE
 8
PARTS
 66
1
 10
0.0
 20
0.0
 30
0.0
 0
VERTEX
 8
PARTS
 10
250.9520
 20
115.5700
 30
0.0
 0
VERTEX
 8
PARTS
 10
252.4760
 20
117.0940
 30
0.0
 0
SEQEND
 8
PARTS
 0
POLYLINE
 8
PARTS
 66
1
 10
0.0
 20
0.0
 30
0.0
 0
VERTEX
 8
PARTS
 10
252.4760
 20
117.0940
 30
0.0
 0
VERTEX
 8
PARTS
 10
254.0000
 20
115.5700
 30
0.0
 0
SEQEND
 8
PARTS
 0
POLYLINE
 8
PARTS
 66
1
 10
0.0
 20
0.0
 30
0.0
 0
VERTEX
 8
PARTS
 10
254.0000
 20
115.5700
 30
0.0
 0
VERTEX
 8
PARTS
 10
255.5240
 20
117.0940
 30
0.0
 0
SEQEND
 8
PARTS
 0
POLYLINE
 8
PARTS
 66
1
 10
0.0
 20
0.0
 30
0.0
 0
VERTEX
 8
PARTS
 10
255.5240
 20
117.0940
 30
0.0
 0
VERTEX
 8
PARTS
 10
256.2860
 20
116.3320
 30
0.0
 0
SEQEND
 8
PARTS
 0
TEXT
 8
PARTTEXT
 10
111.5060
 20
109.9163
 30
0.0
 40
  1.3057
 1
C8
 0
TEXT
 8
PARTTEXT
 10
114.0460
 20
102.2963
 30
0.0
 40
  1.3057
 1
20
 0
LINE
 8
PARTS
 10
114.0460
 20
106.1720
 30
0.0
 11
116.5860
 21
106.1720
 31
0.0
 0
LINE
 8
PARTS
 10
121.6660
 20
106.1720
 30
0.0
 11
119.1260
 21
106.1720
 31
0.0
 0
POLYLINE
 8
PARTS
 66
1
 10
0.0
 20
0.0
 30
0.0
 0
VERTEX
 8
PARTS
 10
116.5860
 20
106.1720
 30
0.0
 0
VERTEX
 8
PARTS
 10
117.0940
 20
106.1720
 30
0.0
 0
SEQEND
 8
PARTS
 0
POLYLINE
 8
PARTS
 66
1
 10
0.0
 20
0.0
 30
0.0
 0
VERTEX
 8
PARTS
 10
118.3640
 20
103.8860
 30
0.0
 0
VERTEX
 8
PARTS
 10
118.3640
 20
108.4580
 30
0.0
 0
SEQEND
 8
PARTS
 0
POLYLINE
 8
PARTS
 66
1
 10
0.0
 20
0.0
 30
0.0
 0
VERTEX
 8
PARTS
 10
117.0940
 20
103.8860
 30
0.0
 0
VERTEX
 8
PARTS
 10
117.0940
 20
108.4580
 30
0.0
 0
SEQEND
 8
PARTS
 0
POLYLINE
 8
PARTS
 66
1
 10
0.0
 20
0.0
 30
0.0
 0
VERTEX
 8
PARTS
 10
119.1260
 20
106.1720
 30
0.0
 0
VERTEX
 8
PARTS
 10
118.3640
 20
106.1720
 30
0.0
 0
SEQEND
 8
PARTS
 0
TEXT
 8
PARTTEXT
 10
248.6660
 20
140.3963
 30
0.0
 40
  1.3057
 1
R85
 0
TEXT
 8
PARTTEXT
 10
253.7460
 20
140.3963
 30
0.0
 40
  1.3057
 1
56
 0
LINE
 8
PARTS
 10
246.1260
 20
136.6520
 30
0.0
 11
248.6660
 21
136.6520
 31
0.0
 0
LINE
 8
PARTS
 10
258.8260
 20
136.6520
 30
0.0
 11
256.2860
 21
136.6520
 31
0.0
 0
POLYLINE
 8
PARTS
 66
1
 10
0.0
 20
0.0
 30
0.0
 0
VERTEX
 8
PARTS
 10
248.6660
 20
136.6520
 30
0.0
 0
VERTEX
 8
PARTS
 10
249.4280
 20
137.4140
 30
0.0
 0
SEQEND
 8
PARTS
 0
POLYLINE
 8
PARTS
 66
1
 10
0.0
 20
0.0
 30
0.0
 0
VERTEX
 8
PARTS
 10
249.4280
 20
137.4140
 30
0.0
 0
VERTEX
 8
PARTS
 10
250.9520
 20
135.8900
 30
0.0
 0
SEQEND
 8
PARTS
 0
POLYLINE
 8
PARTS
 66
1
 10
0.0
 20
0.0
 30
0.0
 0
VERTEX
 8
PARTS
 10
250.9520
 20
135.8900
 30
0.0
 0
VERTEX
 8
PARTS
 10
252.4760
 20
137.4140
 30
0.0
 0
SEQEND
 8
PARTS
 0
POLYLINE
 8
PARTS
 66
1
 10
0.0
 20
0.0
 30
0.0
 0
VERTEX
 8
PARTS
 10
252.4760
 20
137.4140
 30
0.0
 0
VERTEX
 8
PARTS
 10
254.0000
 20
135.8900
 30
0.0
 0
SEQEND
 8
PARTS
 0
POLYLINE
 8
PARTS
 66
1
 10
0.0
 20
0.0
 30
0.0
 0
VERTEX
 8
PARTS
 10
254.0000
 20
135.8900
 30
0.0
 0
VERTEX
 8
PARTS
 10
255.5240
 20
137.4140
 30
0.0
 0
SEQEND
 8
PARTS
 0
POLYLINE
 8
PARTS
 66
1
 10
0.0
 20
0.0
 30
0.0
 0
VERTEX
 8
PARTS
 10
255.5240
 20
137.4140
 30
0.0
 0
VERTEX
 8
PARTS
 10
256.2860
 20
136.6520
 30
0.0
 0
SEQEND
 8
PARTS
 0
TEXT
 8
PARTTEXT
 10
 17.5260
 20
142.9363
 30
0.0
 40
  1.3057
 1
SW6
 0
TEXT
 8
PARTTEXT
 10
 25.1460
 20
142.9363
 30
0.0
 40
  1.3057
 1
SW SPST
 0
CIRCLE
 8
PARTS
 10
 21.8440
 20
149.3520
 30
0.0
 40
  0.7620
 0
LINE
 8
PARTS
 10
 14.9860
 20
149.3520
 30
0.0
 11
 21.0820
 21
149.3520
 31
0.0
 0
CIRCLE
 8
PARTS
 10
 28.4480
 20
149.3520
 30
0.0
 40
  0.7620
 0
LINE
 8
PARTS
 10
 35.3060
 20
149.3520
 30
0.0
 11
 29.2100
 21
149.3520
 31
0.0
 0
POLYLINE
 8
PARTS
 66
1
 10
0.0
 20
0.0
 30
0.0
 0
VERTEX
 8
PARTS
 10
 22.6060
 20
149.3520
 30
0.0
 0
VERTEX
 8
PARTS
 10
 27.6860
 20
151.8920
 30
0.0
 0
SEQEND
 8
PARTS
 0
TEXT
 8
PARTTEXT
 10
116.5860
 20
120.0763
 30
0.0
 40
  1.3057
 1
C5
 0
TEXT
 8
PARTTEXT
 10
114.0460
 20
114.9963
 30
0.0
 40
  1.3057
 1
20
 0
LINE
 8
PARTS
 10
114.0460
 20
116.3320
 30
0.0
 11
116.5860
 21
116.3320
 31
0.0
 0
LINE
 8
PARTS
 10
121.6660
 20
116.3320
 30
0.0
 11
119.1260
 21
116.3320
 31
0.0
 0
POLYLINE
 8
PARTS
 66
1
 10
0.0
 20
0.0
 30
0.0
 0
VERTEX
 8
PARTS
 10
116.5860
 20
116.3320
 30
0.0
 0
VERTEX
 8
PARTS
 10
117.0940
 20
116.3320
 30
0.0
 0
SEQEND
 8
PARTS
 0
POLYLINE
 8
PARTS
 66
1
 10
0.0
 20
0.0
 30
0.0
 0
VERTEX
 8
PARTS
 10
118.3640
 20
114.0460
 30
0.0
 0
VERTEX
 8
PARTS
 10
118.3640
 20
118.6180
 30
0.0
 0
SEQEND
 8
PARTS
 0
POLYLINE
 8
PARTS
 66
1
 10
0.0
 20
0.0
 30
0.0
 0
VERTEX
 8
PARTS
 10
117.0940
 20
114.0460
 30
0.0
 0
VERTEX
 8
PARTS
 10
117.0940
 20
118.6180
 30
0.0
 0
SEQEND
 8
PARTS
 0
POLYLINE
 8
PARTS
 66
1
 10
0.0
 20
0.0
 30
0.0
 0
VERTEX
 8
PARTS
 10
119.1260
 20
116.3320
 30
0.0
 0
VERTEX
 8
PARTS
 10
118.3640
 20
116.3320
 30
0.0
 0
SEQEND
 8
PARTS
 0
TEXT
 8
PARTTEXT
 10
101.3460
 20
 69.2763
 30
0.0
 40
  1.3057
 1
J4
 0
TEXT
 8
PARTTEXT
 10
 98.8060
 20
 84.5163
 30
0.0
 40
  1.3057
 1
POWER
 0
LINE
 8
PARTS
 10
114.0460
 20
 75.6920
 30
0.0
 11
106.4260
 21
 75.6920
 31
0.0
 0
TEXT
 8
PARTS
 10
107.9500
 20
 76.4540
 30
0.0
 40
  1.2700
 1
1
 0
LINE
 8
PARTS
 10
114.0460
 20
 78.2320
 30
0.0
 11
106.4260
 21
 78.2320
 31
0.0
 0
TEXT
 8
PARTS
 10
107.9500
 20
 78.9940
 30
0.0
 40
  1.2700
 1
2
 0
POLYLINE
 8
PARTS
 66
1
 70
1
 10
0.0
 20
0.0
 30
0.0
 0
VERTEX
 8
PARTS
 10
 98.8060
 20
 73.1520
 30
0.0
 0
VERTEX
 8
PARTS
 10
106.4260
 20
 73.1520
 30
0.0
 0
VERTEX
 8
PARTS
 10
106.4260
 20
 80.7720
 30
0.0
 0
VERTEX
 8
PARTS
 10
 98.8060
 20
 80.7720
 30
0.0
 0
SEQEND
 8
PARTS
 0
POLYLINE
 8
PARTS
 66
1
 10
0.0
 20
0.0
 30
0.0
 0
VERTEX
 8
PARTS
 10
103.8860
 20
 73.1520
 30
0.0
 0
VERTEX
 8
PARTS
 10
103.8860
 20
 73.1520
 30
0.0
 0
VERTEX
 8
PARTS
 10
103.8860
 20
 72.3900
 30
0.0
 0
VERTEX
 8
PARTS
 10
101.6000
 20
 72.3900
 30
0.0
 0
VERTEX
 8
PARTS
 10
101.6000
 20
 73.1520
 30
0.0
 0
SEQEND
 8
PARTS
 0
POLYLINE
 8
PARTS
 66
1
 10
0.0
 20
0.0
 30
0.0
 0
VERTEX
 8
PARTS
 10
101.6000
 20
 80.7720
 30
0.0
 0
VERTEX
 8
PARTS
 10
101.6000
 20
 80.7720
 30
0.0
 0
VERTEX
 8
PARTS
 10
101.6000
 20
 81.5340
 30
0.0
 0
VERTEX
 8
PARTS
 10
103.8860
 20
 81.5340
 30
0.0
 0
VERTEX
 8
PARTS
 10
103.8860
 20
 80.7720
 30
0.0
 0
SEQEND
 8
PARTS
 0
TEXT
 8
PARTTEXT
 10
281.6860
 20
 94.6763
 30
0.0
 40
  1.3057
 1
U18
 0
LINE
 8
PARTS
 10
266.4460
 20
 88.3920
 30
0.0
 11
274.0660
 21
 88.3920
 31
0.0
 0
LINE
 8
PARTS
 10
266.4460
 20
 80.7720
 30
0.0
 11
274.0660
 21
 80.7720
 31
0.0
 0
LINE
 8
PARTS
 10
266.4460
 20
 73.1520
 30
0.0
 11
274.0660
 21
 73.1520
 31
0.0
 0
LINE
 8
PARTS
 10
266.4460
 20
 65.5320
 30
0.0
 11
274.0660
 21
 65.5320
 31
0.0
 0
LINE
 8
PARTS
 10
302.0060
 20
 65.5320
 30
0.0
 11
294.3860
 21
 65.5320
 31
0.0
 0
LINE
 8
PARTS
 10
302.0060
 20
 73.1520
 30
0.0
 11
294.3860
 21
 73.1520
 31
0.0
 0
LINE
 8
PARTS
 10
302.0060
 20
 80.7720
 30
0.0
 11
294.3860
 21
 80.7720
 31
0.0
 0
LINE
 8
PARTS
 10
302.0060
 20
 88.3920
 30
0.0
 11
294.3860
 21
 88.3920
 31
0.0
 0
POLYLINE
 8
PARTS
 66
1
 70
1
 10
0.0
 20
0.0
 30
0.0
 0
VERTEX
 8
PARTS
 10
285.4960
 20
 83.3120
 30
0.0
 0
VERTEX
 8
PARTS
 10
288.0360
 20
 83.3120
 30
0.0
 0
VERTEX
 8
PARTS
 10
286.7660
 20
 84.5820
 30
0.0
 0
VERTEX
 8
PARTS
 10
285.4960
 20
 83.3120
 30
0.0
 0
SEQEND
 8
PARTS
 0
POLYLINE
 8
PARTS
 66
1
 10
0.0
 20
0.0
 30
0.0
 0
VERTEX
 8
PARTS
 10
285.4960
 20
 84.5820
 30
0.0
 0
VERTEX
 8
PARTS
 10
288.0360
 20
 84.5820
 30
0.0
 0
SEQEND
 8
PARTS
 0
POLYLINE
 8
PARTS
 66
1
 10
0.0
 20
0.0
 30
0.0
 0
VERTEX
 8
PARTS
 10
279.1460
 20
 85.8520
 30
0.0
 0
VERTEX
 8
PARTS
 10
279.1460
 20
 80.7720
 30
0.0
 0
SEQEND
 8
PARTS
 0
POLYLINE
 8
PARTS
 66
1
 10
0.0
 20
0.0
 30
0.0
 0
VERTEX
 8
PARTS
 10
279.1460
 20
 80.7720
 30
0.0
 0
VERTEX
 8
PARTS
 10
276.6060
 20
 80.7720
 30
0.0
 0
SEQEND
 8
PARTS
 0
POLYLINE
 8
PARTS
 66
1
 10
0.0
 20
0.0
 30
0.0
 0
VERTEX
 8
PARTS
 10
280.4160
 20
 79.5020
 30
0.0
 0
VERTEX
 8
PARTS
 10
280.4160
 20
 81.5340
 30
0.0
 0
SEQEND
 8
PARTS
 0
POLYLINE
 8
PARTS
 66
1
 10
0.0
 20
0.0
 30
0.0
 0
VERTEX
 8
PARTS
 10
280.4160
 20
 82.2960
 30
0.0
 0
VERTEX
 8
PARTS
 10
280.4160
 20
 84.3280
 30
0.0
 0
SEQEND
 8
PARTS
 0
POLYLINE
 8
PARTS
 66
1
 10
0.0
 20
0.0
 30
0.0
 0
VERTEX
 8
PARTS
 10
280.4160
 20
 85.0900
 30
0.0
 0
VERTEX
 8
PARTS
 10
280.4160
 20
 87.1220
 30
0.0
 0
SEQEND
 8
PARTS
 0
POLYLINE
 8
PARTS
 66
1
 10
0.0
 20
0.0
 30
0.0
 0
VERTEX
 8
PARTS
 10
280.4160
 20
 80.5180
 30
0.0
 0
VERTEX
 8
PARTS
 10
286.7660
 20
 80.5180
 30
0.0
 0
SEQEND
 8
PARTS
 0
POLYLINE
 8
PARTS
 66
1
 10
0.0
 20
0.0
 30
0.0
 0
VERTEX
 8
PARTS
 10
286.7660
 20
 80.5180
 30
0.0
 0
VERTEX
 8
PARTS
 10
286.7660
 20
 83.3120
 30
0.0
 0
SEQEND
 8
PARTS
 0
POLYLINE
 8
PARTS
 66
1
 10
0.0
 20
0.0
 30
0.0
 0
VERTEX
 8
PARTS
 10
286.7660
 20
 84.5820
 30
0.0
 0
VERTEX
 8
PARTS
 10
286.7660
 20
 86.1060
 30
0.0
 0
SEQEND
 8
PARTS
 0
POLYLINE
 8
PARTS
 66
1
 10
0.0
 20
0.0
 30
0.0
 0
VERTEX
 8
PARTS
 10
286.7660
 20
 86.1060
 30
0.0
 0
VERTEX
 8
PARTS
 10
280.4160
 20
 86.1060
 30
0.0
 0
SEQEND
 8
PARTS
 0
POLYLINE
 8
PARTS
 66
1
 10
0.0
 20
0.0
 30
0.0
 0
VERTEX
 8
PARTS
 10
284.2260
 20
 88.3920
 30
0.0
 0
VERTEX
 8
PARTS
 10
284.2260
 20
 86.1060
 30
0.0
 0
SEQEND
 8
PARTS
 0
POLYLINE
 8
PARTS
 66
1
 10
0.0
 20
0.0
 30
0.0
 0
VERTEX
 8
PARTS
 10
281.6860
 20
 83.3120
 30
0.0
 0
VERTEX
 8
PARTS
 10
284.2260
 20
 83.3120
 30
0.0
 0
SEQEND
 8
PARTS
 0
POLYLINE
 8
PARTS
 66
1
 10
0.0
 20
0.0
 30
0.0
 0
VERTEX
 8
PARTS
 10
284.2260
 20
 83.3120
 30
0.0
 0
VERTEX
 8
PARTS
 10
284.2260
 20
 80.5180
 30
0.0
 0
SEQEND
 8
PARTS
 0
POLYLINE
 8
PARTS
 66
1
 10
0.0
 20
0.0
 30
0.0
 0
VERTEX
 8
PARTS
 10
288.0360
 20
 84.5820
 30
0.0
 0
VERTEX
 8
PARTS
 10
288.5440
 20
 85.0900
 30
0.0
 0
SEQEND
 8
PARTS
 0
POLYLINE
 8
PARTS
 66
1
 10
0.0
 20
0.0
 30
0.0
 0
VERTEX
 8
PARTS
 10
284.9880
 20
 84.0740
 30
0.0
 0
VERTEX
 8
PARTS
 10
285.4960
 20
 84.5820
 30
0.0
 0
SEQEND
 8
PARTS
 0
POLYLINE
 8
PARTS
 66
1
 10
0.0
 20
0.0
 30
0.0
 0
VERTEX
 8
PARTS
 10
284.2260
 20
 78.2320
 30
0.0
 0
VERTEX
 8
PARTS
 10
284.2260
 20
 80.7720
 30
0.0
 0
SEQEND
 8
PARTS
 0
POLYLINE
 8
PARTS
 66
1
 70
1
 10
0.0
 20
0.0
 30
0.0
 0
VERTEX
 8
PARTS
 10
280.4160
 20
 83.3120
 30
0.0
 0
VERTEX
 8
PARTS
 10
282.1940
 20
 82.8040
 30
0.0
 0
VERTEX
 8
PARTS
 10
282.1940
 20
 83.8200
 30
0.0
 0
VERTEX
 8
PARTS
 10
280.4160
 20
 83.3120
 30
0.0
 0
SEQEND
 8
PARTS
 0
POLYLINE
 8
PARTS
 66
1
 70
1
 10
0.0
 20
0.0
 30
0.0
 0
VERTEX
 8
PARTS
 10
284.7340
 20
 86.1060
 30
0.0
 42
  0.0985
 0
VERTEX
 8
PARTS
 10
284.6953
 20
 86.3004
 30
0.0
 42
  0.0985
 0
VERTEX
 8
PARTS
 10
284.5852
 20
 86.4652
 30
0.0
 42
  0.0985
 0
VERTEX
 8
PARTS
 10
284.4204
 20
 86.5753
 30
0.0
 42
  0.0985
 0
VERTEX
 8
PARTS
 10
284.2260
 20
 86.6140
 30
0.0
 42
  0.0985
 0
VERTEX
 8
PARTS
 10
284.0316
 20
 86.5753
 30
0.0
 42
  0.0985
 0
VERTEX
 8
PARTS
 10
283.8668
 20
 86.4652
 30
0.0
 42
  0.0985
 0
VERTEX
 8
PARTS
 10
283.7567
 20
 86.3004
 30
0.0
 42
  0.0985
 0
VERTEX
 8
PARTS
 10
283.7180
 20
 86.1060
 30
0.0
 42
  0.0985
 0
VERTEX
 8
PARTS
 10
283.7567
 20
 85.9116
 30
0.0
 42
  0.0985
 0
VERTEX
 8
PARTS
 10
283.8668
 20
 85.7468
 30
0.0
 42
  0.0985
 0
VERTEX
 8
PARTS
 10
284.0316
 20
 85.6367
 30
0.0
 42
  0.0985
 0
VERTEX
 8
PARTS
 10
284.2260
 20
 85.5980
 30
0.0
 42
  0.0985
 0
VERTEX
 8
PARTS
 10
284.4204
 20
 85.6367
 30
0.0
 42
  0.0985
 0
VERTEX
 8
PARTS
 10
284.5852
 20
 85.7468
 30
0.0
 42
  0.0985
 0
VERTEX
 8
PARTS
 10
284.6953
 20
 85.9116
 30
0.0
 42
  0.0985
 0
SEQEND
 8
PARTS
 0
POLYLINE
 8
PARTS
 66
1
 70
1
 10
0.0
 20
0.0
 30
0.0
 0
VERTEX
 8
PARTS
 10
284.7340
 20
 80.5180
 30
0.0
 42
  0.0985
 0
VERTEX
 8
PARTS
 10
284.6953
 20
 80.7124
 30
0.0
 42
  0.0985
 0
VERTEX
 8
PARTS
 10
284.5852
 20
 80.8772
 30
0.0
 42
  0.0985
 0
VERTEX
 8
PARTS
 10
284.4204
 20
 80.9873
 30
0.0
 42
  0.0985
 0
VERTEX
 8
PARTS
 10
284.2260
 20
 81.0260
 30
0.0
 42
  0.0985
 0
VERTEX
 8
PARTS
 10
284.0316
 20
 80.9873
 30
0.0
 42
  0.0985
 0
VERTEX
 8
PARTS
 10
283.8668
 20
 80.8772
 30
0.0
 42
  0.0985
 0
VERTEX
 8
PARTS
 10
283.7567
 20
 80.7124
 30
0.0
 42
  0.0985
 0
VERTEX
 8
PARTS
 10
283.7180
 20
 80.5180
 30
0.0
 42
  0.0985
 0
VERTEX
 8
PARTS
 10
283.7567
 20
 80.3236
 30
0.0
 42
  0.0985
 0
VERTEX
 8
PARTS
 10
283.8668
 20
 80.1588
 30
0.0
 42
  0.0985
 0
VERTEX
 8
PARTS
 10
284.0316
 20
 80.0487
 30
0.0
 42
  0.0985
 0
VERTEX
 8
PARTS
 10
284.2260
 20
 80.0100
 30
0.0
 42
  0.0985
 0
VERTEX
 8
PARTS
 10
284.4204
 20
 80.0487
 30
0.0
 42
  0.0985
 0
VERTEX
 8
PARTS
 10
284.5852
 20
 80.1588
 30
0.0
 42
  0.0985
 0
VERTEX
 8
PARTS
 10
284.6953
 20
 80.3236
 30
0.0
 42
  0.0985
 0
SEQEND
 8
PARTS
 0
POLYLINE
 8
PARTS
 66
1
 10
0.0
 20
0.0
 30
0.0
 0
VERTEX
 8
PARTS
 10
286.7660
 20
 70.8660
 30
0.0
 0
VERTEX
 8
PARTS
 10
280.4160
 20
 70.8660
 30
0.0
 0
SEQEND
 8
PARTS
 0
POLYLINE
 8
PARTS
 66
1
 70
1
 10
0.0
 20
0.0
 30
0.0
 0
VERTEX
 8
PARTS
 10
284.7340
 20
 65.2780
 30
0.0
 42
  0.0985
 0
VERTEX
 8
PARTS
 10
284.6953
 20
 65.4724
 30
0.0
 42
  0.0985
 0
VERTEX
 8
PARTS
 10
284.5852
 20
 65.6372
 30
0.0
 42
  0.0985
 0
VERTEX
 8
PARTS
 10
284.4204
 20
 65.7473
 30
0.0
 42
  0.0985
 0
VERTEX
 8
PARTS
 10
284.2260
 20
 65.7860
 30
0.0
 42
  0.0985
 0
VERTEX
 8
PARTS
 10
284.0316
 20
 65.7473
 30
0.0
 42
  0.0985
 0
VERTEX
 8
PARTS
 10
283.8668
 20
 65.6372
 30
0.0
 42
  0.0985
 0
VERTEX
 8
PARTS
 10
283.7567
 20
 65.4724
 30
0.0
 42
  0.0985
 0
VERTEX
 8
PARTS
 10
283.7180
 20
 65.2780
 30
0.0
 42
  0.0985
 0
VERTEX
 8
PARTS
 10
283.7567
 20
 65.0836
 30
0.0
 42
  0.0985
 0
VERTEX
 8
PARTS
 10
283.8668
 20
 64.9188
 30
0.0
 42
  0.0985
 0
VERTEX
 8
PARTS
 10
284.0316
 20
 64.8087
 30
0.0
 42
  0.0985
 0
VERTEX
 8
PARTS
 10
284.2260
 20
 64.7700
 30
0.0
 42
  0.0985
 0
VERTEX
 8
PARTS
 10
284.4204
 20
 64.8087
 30
0.0
 42
  0.0985
 0
VERTEX
 8
PARTS
 10
284.5852
 20
 64.9188
 30
0.0
 42
  0.0985
 0
VERTEX
 8
PARTS
 10
284.6953
 20
 65.0836
 30
0.0
 42
  0.0985
 0
SEQEND
 8
PARTS
 0
POLYLINE
 8
PARTS
 66
1
 10
0.0
 20
0.0
 30
0.0
 0
VERTEX
 8
PARTS
 10
286.7660
 20
 69.3420
 30
0.0
 0
VERTEX
 8
PARTS
 10
286.7660
 20
 70.8660
 30
0.0
 0
SEQEND
 8
PARTS
 0
POLYLINE
 8
PARTS
 66
1
 10
0.0
 20
0.0
 30
0.0
 0
VERTEX
 8
PARTS
 10
286.7660
 20
 65.2780
 30
0.0
 0
VERTEX
 8
PARTS
 10
286.7660
 20
 68.0720
 30
0.0
 0
SEQEND
 8
PARTS
 0
POLYLINE
 8
PARTS
 66
1
 10
0.0
 20
0.0
 30
0.0
 0
VERTEX
 8
PARTS
 10
280.4160
 20
 65.2780
 30
0.0
 0
VERTEX
 8
PARTS
 10
286.7660
 20
 65.2780
 30
0.0
 0
SEQEND
 8
PARTS
 0
POLYLINE
 8
PARTS
 66
1
 10
0.0
 20
0.0
 30
0.0
 0
VERTEX
 8
PARTS
 10
280.4160
 20
 69.8500
 30
0.0
 0
VERTEX
 8
PARTS
 10
280.4160
 20
 71.8820
 30
0.0
 0
SEQEND
 8
PARTS
 0
POLYLINE
 8
PARTS
 66
1
 70
1
 10
0.0
 20
0.0
 30
0.0
 0
VERTEX
 8
PARTS
 10
284.7340
 20
 70.8660
 30
0.0
 42
  0.0985
 0
VERTEX
 8
PARTS
 10
284.6953
 20
 71.0604
 30
0.0
 42
  0.0985
 0
VERTEX
 8
PARTS
 10
284.5852
 20
 71.2252
 30
0.0
 42
  0.0985
 0
VERTEX
 8
PARTS
 10
284.4204
 20
 71.3353
 30
0.0
 42
  0.0985
 0
VERTEX
 8
PARTS
 10
284.2260
 20
 71.3740
 30
0.0
 42
  0.0985
 0
VERTEX
 8
PARTS
 10
284.0316
 20
 71.3353
 30
0.0
 42
  0.0985
 0
VERTEX
 8
PARTS
 10
283.8668
 20
 71.2252
 30
0.0
 42
  0.0985
 0
VERTEX
 8
PARTS
 10
283.7567
 20
 71.0604
 30
0.0
 42
  0.0985
 0
VERTEX
 8
PARTS
 10
283.7180
 20
 70.8660
 30
0.0
 42
  0.0985
 0
VERTEX
 8
PARTS
 10
283.7567
 20
 70.6716
 30
0.0
 42
  0.0985
 0
VERTEX
 8
PARTS
 10
283.8668
 20
 70.5068
 30
0.0
 42
  0.0985
 0
VERTEX
 8
PARTS
 10
284.0316
 20
 70.3967
 30
0.0
 42
  0.0985
 0
VERTEX
 8
PARTS
 10
284.2260
 20
 70.3580
 30
0.0
 42
  0.0985
 0
VERTEX
 8
PARTS
 10
284.4204
 20
 70.3967
 30
0.0
 42
  0.0985
 0
VERTEX
 8
PARTS
 10
284.5852
 20
 70.5068
 30
0.0
 42
  0.0985
 0
VERTEX
 8
PARTS
 10
284.6953
 20
 70.6716
 30
0.0
 42
  0.0985
 0
SEQEND
 8
PARTS
 0
POLYLINE
 8
PARTS
 66
1
 10
0.0
 20
0.0
 30
0.0
 0
VERTEX
 8
PARTS
 10
280.4160
 20
 67.0560
 30
0.0
 0
VERTEX
 8
PARTS
 10
280.4160
 20
 69.0880
 30
0.0
 0
SEQEND
 8
PARTS
 0
POLYLINE
 8
PARTS
 66
1
 10
0.0
 20
0.0
 30
0.0
 0
VERTEX
 8
PARTS
 10
280.4160
 20
 64.2620
 30
0.0
 0
VERTEX
 8
PARTS
 10
280.4160
 20
 66.2940
 30
0.0
 0
SEQEND
 8
PARTS
 0
POLYLINE
 8
PARTS
 66
1
 10
0.0
 20
0.0
 30
0.0
 0
VERTEX
 8
PARTS
 10
279.1460
 20
 65.5320
 30
0.0
 0
VERTEX
 8
PARTS
 10
276.6060
 20
 65.5320
 30
0.0
 0
SEQEND
 8
PARTS
 0
POLYLINE
 8
PARTS
 66
1
 10
0.0
 20
0.0
 30
0.0
 0
VERTEX
 8
PARTS
 10
279.1460
 20
 70.6120
 30
0.0
 0
VERTEX
 8
PARTS
 10
279.1460
 20
 65.5320
 30
0.0
 0
SEQEND
 8
PARTS
 0
POLYLINE
 8
PARTS
 66
1
 70
1
 10
0.0
 20
0.0
 30
0.0
 0
VERTEX
 8
PARTS
 10
280.4160
 20
 68.0720
 30
0.0
 0
VERTEX
 8
PARTS
 10
282.1940
 20
 67.5640
 30
0.0
 0
VERTEX
 8
PARTS
 10
282.1940
 20
 68.5800
 30
0.0
 0
VERTEX
 8
PARTS
 10
280.4160
 20
 68.0720
 30
0.0
 0
SEQEND
 8
PARTS
 0
POLYLINE
 8
PARTS
 66
1
 10
0.0
 20
0.0
 30
0.0
 0
VERTEX
 8
PARTS
 10
285.4960
 20
 69.3420
 30
0.0
 0
VERTEX
 8
PARTS
 10
288.0360
 20
 69.3420
 30
0.0
 0
SEQEND
 8
PARTS
 0
POLYLINE
 8
PARTS
 66
1
 10
0.0
 20
0.0
 30
0.0
 0
VERTEX
 8
PARTS
 10
284.2260
 20
 62.9920
 30
0.0
 0
VERTEX
 8
PARTS
 10
284.2260
 20
 65.5320
 30
0.0
 0
SEQEND
 8
PARTS
 0
POLYLINE
 8
PARTS
 66
1
 10
0.0
 20
0.0
 30
0.0
 0
VERTEX
 8
PARTS
 10
284.9880
 20
 68.8340
 30
0.0
 0
VERTEX
 8
PARTS
 10
285.4960
 20
 69.3420
 30
0.0
 0
SEQEND
 8
PARTS
 0
POLYLINE
 8
PARTS
 66
1
 10
0.0
 20
0.0
 30
0.0
 0
VERTEX
 8
PARTS
 10
288.0360
 20
 69.3420
 30
0.0
 0
VERTEX
 8
PARTS
 10
288.5440
 20
 69.8500
 30
0.0
 0
SEQEND
 8
PARTS
 0
POLYLINE
 8
PARTS
 66
1
 70
1
 10
0.0
 20
0.0
 30
0.0
 0
VERTEX
 8
PARTS
 10
285.4960
 20
 68.0720
 30
0.0
 0
VERTEX
 8
PARTS
 10
288.0360
 20
 68.0720
 30
0.0
 0
VERTEX
 8
PARTS
 10
286.7660
 20
 69.3420
 30
0.0
 0
VERTEX
 8
PARTS
 10
285.4960
 20
 68.0720
 30
0.0
 0
SEQEND
 8
PARTS
 0
POLYLINE
 8
PARTS
 66
1
 10
0.0
 20
0.0
 30
0.0
 0
VERTEX
 8
PARTS
 10
284.2260
 20
 68.0720
 30
0.0
 0
VERTEX
 8
PARTS
 10
284.2260
 20
 65.2780
 30
0.0
 0
SEQEND
 8
PARTS
 0
POLYLINE
 8
PARTS
 66
1
 10
0.0
 20
0.0
 30
0.0
 0
VERTEX
 8
PARTS
 10
281.6860
 20
 68.0720
 30
0.0
 0
VERTEX
 8
PARTS
 10
284.2260
 20
 68.0720
 30
0.0
 0
SEQEND
 8
PARTS
 0
POLYLINE
 8
PARTS
 66
1
 10
0.0
 20
0.0
 30
0.0
 0
VERTEX
 8
PARTS
 10
284.2260
 20
 73.1520
 30
0.0
 0
VERTEX
 8
PARTS
 10
284.2260
 20
 70.8660
 30
0.0
 0
SEQEND
 8
PARTS
 0
POLYLINE
 8
PARTS
 66
1
 10
0.0
 20
0.0
 30
0.0
 0
VERTEX
 8
PARTS
 10
284.2260
 20
 88.3920
 30
0.0
 0
VERTEX
 8
PARTS
 10
294.3860
 20
 88.3920
 30
0.0
 0
SEQEND
 8
PARTS
 0
POLYLINE
 8
PARTS
 66
1
 10
0.0
 20
0.0
 30
0.0
 0
VERTEX
 8
PARTS
 10
294.3860
 20
 80.7720
 30
0.0
 0
VERTEX
 8
PARTS
 10
289.3060
 20
 80.7720
 30
0.0
 0
SEQEND
 8
PARTS
 0
POLYLINE
 8
PARTS
 66
1
 10
0.0
 20
0.0
 30
0.0
 0
VERTEX
 8
PARTS
 10
289.3060
 20
 80.7720
 30
0.0
 0
VERTEX
 8
PARTS
 10
289.3060
 20
 88.3920
 30
0.0
 0
SEQEND
 8
PARTS
 0
POLYLINE
 8
PARTS
 66
1
 10
0.0
 20
0.0
 30
0.0
 0
VERTEX
 8
PARTS
 10
276.6060
 20
 80.7720
 30
0.0
 0
VERTEX
 8
PARTS
 10
274.0660
 20
 80.7720
 30
0.0
 0
SEQEND
 8
PARTS
 0
POLYLINE
 8
PARTS
 66
1
 10
0.0
 20
0.0
 30
0.0
 0
VERTEX
 8
PARTS
 10
284.2260
 20
 78.2320
 30
0.0
 0
VERTEX
 8
PARTS
 10
276.6060
 20
 78.2320
 30
0.0
 0
SEQEND
 8
PARTS
 0
POLYLINE
 8
PARTS
 66
1
 10
0.0
 20
0.0
 30
0.0
 0
VERTEX
 8
PARTS
 10
276.6060
 20
 78.2320
 30
0.0
 0
VERTEX
 8
PARTS
 10
276.6060
 20
 88.3920
 30
0.0
 0
SEQEND
 8
PARTS
 0
POLYLINE
 8
PARTS
 66
1
 10
0.0
 20
0.0
 30
0.0
 0
VERTEX
 8
PARTS
 10
276.6060
 20
 88.3920
 30
0.0
 0
VERTEX
 8
PARTS
 10
274.0660
 20
 88.3920
 30
0.0
 0
SEQEND
 8
PARTS
 0
POLYLINE
 8
PARTS
 66
1
 10
0.0
 20
0.0
 30
0.0
 0
VERTEX
 8
PARTS
 10
284.2260
 20
 73.1520
 30
0.0
 0
VERTEX
 8
PARTS
 10
289.3060
 20
 73.1520
 30
0.0
 0
SEQEND
 8
PARTS
 0
POLYLINE
 8
PARTS
 66
1
 10
0.0
 20
0.0
 30
0.0
 0
VERTEX
 8
PARTS
 10
289.3060
 20
 73.1520
 30
0.0
 0
VERTEX
 8
PARTS
 10
294.3860
 20
 73.1520
 30
0.0
 0
SEQEND
 8
PARTS
 0
POLYLINE
 8
PARTS
 66
1
 10
0.0
 20
0.0
 30
0.0
 0
VERTEX
 8
PARTS
 10
294.3860
 20
 65.5320
 30
0.0
 0
VERTEX
 8
PARTS
 10
289.3060
 20
 65.5320
 30
0.0
 0
SEQEND
 8
PARTS
 0
POLYLINE
 8
PARTS
 66
1
 10
0.0
 20
0.0
 30
0.0
 0
VERTEX
 8
PARTS
 10
289.3060
 20
 65.5320
 30
0.0
 0
VERTEX
 8
PARTS
 10
289.3060
 20
 73.1520
 30
0.0
 0
SEQEND
 8
PARTS
 0
POLYLINE
 8
PARTS
 66
1
 10
0.0
 20
0.0
 30
0.0
 0
VERTEX
 8
PARTS
 10
274.0660
 20
 65.5320
 30
0.0
 0
VERTEX
 8
PARTS
 10
276.6060
 20
 65.5320
 30
0.0
 0
SEQEND
 8
PARTS
 0
POLYLINE
 8
PARTS
 66
1
 10
0.0
 20
0.0
 30
0.0
 0
VERTEX
 8
PARTS
 10
284.2260
 20
 62.9920
 30
0.0
 0
VERTEX
 8
PARTS
 10
276.6060
 20
 62.9920
 30
0.0
 0
SEQEND
 8
PARTS
 0
POLYLINE
 8
PARTS
 66
1
 10
0.0
 20
0.0
 30
0.0
 0
VERTEX
 8
PARTS
 10
276.6060
 20
 62.9920
 30
0.0
 0
VERTEX
 8
PARTS
 10
276.6060
 20
 73.1520
 30
0.0
 0
SEQEND
 8
PARTS
 0
POLYLINE
 8
PARTS
 66
1
 10
0.0
 20
0.0
 30
0.0
 0
VERTEX
 8
PARTS
 10
276.6060
 20
 73.1520
 30
0.0
 0
VERTEX
 8
PARTS
 10
274.0660
 20
 73.1520
 30
0.0
 0
SEQEND
 8
PARTS
 0
TEXT
 8
PARTTEXT
 10
274.0660
 20
 89.5963
 30
0.0
 40
  1.3057
 1
S1
 0
TEXT
 8
PARTTEXT
 10
274.0660
 20
 81.9763
 30
0.0
 40
  1.3057
 1
G1
 0
TEXT
 8
PARTTEXT
 10
274.0660
 20
 74.3563
 30
0.0
 40
  1.3057
 1
S2
 0
TEXT
 8
PARTTEXT
 10
274.0660
 20
 66.7363
 30
0.0
 40
  1.3057
 1
G2
 0
TEXT
 8
PARTTEXT
 10
291.8460
 20
 89.5963
 30
0.0
 40
  1.3057
 1
D1
 0
TEXT
 8
PARTTEXT
 10
291.8460
 20
 81.9763
 30
0.0
 40
  1.3057
 1
D1
 0
TEXT
 8
PARTTEXT
 10
291.8460
 20
 74.3563
 30
0.0
 40
  1.3057
 1
D2
 0
TEXT
 8
PARTTEXT
 10
291.8460
 20
 66.7363
 30
0.0
 40
  1.3057
 1
D2
 0
POLYLINE
 8
PARTS
 66
1
 70
1
 10
0.0
 20
0.0
 30
0.0
 0
VERTEX
 8
PARTS
 10
274.0660
 20
 93.4720
 30
0.0
 0
VERTEX
 8
PARTS
 10
294.3860
 20
 93.4720
 30
0.0
 0
VERTEX
 8
PARTS
 10
294.3860
 20
 60.4520
 30
0.0
 0
VERTEX
 8
PARTS
 10
274.0660
 20
 60.4520
 30
0.0
 0
SEQEND
 8
PARTS
 0
TEXT
 8
PARTTEXT
 10
124.2060
 20
114.9963
 30
0.0
 40
  1.3057
 1
Y1
 0
TEXT
 8
PARTTEXT
 10
124.2060
 20
107.3763
 30
0.0
 40
  1.3057
 1
16M
 0
LINE
 8
PARTS
 10
121.6660
 20
106.1720
 30
0.0
 11
121.6660
 21
108.7120
 31
0.0
 0
LINE
 8
PARTS
 10
121.6660
 20
116.3320
 30
0.0
 11
121.6660
 21
113.7920
 31
0.0
 0
POLYLINE
 8
PARTS
 66
1
 10
0.0
 20
0.0
 30
0.0
 0
VERTEX
 8
PARTS
 10
120.3960
 20
108.7120
 30
0.0
 0
VERTEX
 8
PARTS
 10
122.9360
 20
108.7120
 30
0.0
 0
SEQEND
 8
PARTS
 0
POLYLINE
 8
PARTS
 66
1
 10
0.0
 20
0.0
 30
0.0
 0
VERTEX
 8
PARTS
 10
119.1260
 20
109.7280
 30
0.0
 0
VERTEX
 8
PARTS
 10
124.2060
 20
109.7280
 30
0.0
 0
SEQEND
 8
PARTS
 0
POLYLINE
 8
PARTS
 66
1
 10
0.0
 20
0.0
 30
0.0
 0
VERTEX
 8
PARTS
 10
124.2060
 20
109.7280
 30
0.0
 0
VERTEX
 8
PARTS
 10
124.2060
 20
112.7760
 30
0.0
 0
SEQEND
 8
PARTS
 0
POLYLINE
 8
PARTS
 66
1
 10
0.0
 20
0.0
 30
0.0
 0
VERTEX
 8
PARTS
 10
124.2060
 20
112.7760
 30
0.0
 0
VERTEX
 8
PARTS
 10
119.1260
 20
112.7760
 30
0.0
 0
SEQEND
 8
PARTS
 0
POLYLINE
 8
PARTS
 66
1
 10
0.0
 20
0.0
 30
0.0
 0
VERTEX
 8
PARTS
 10
119.1260
 20
112.7760
 30
0.0
 0
VERTEX
 8
PARTS
 10
119.1260
 20
109.7280
 30
0.0
 0
SEQEND
 8
PARTS
 0
POLYLINE
 8
PARTS
 66
1
 10
0.0
 20
0.0
 30
0.0
 0
VERTEX
 8
PARTS
 10
120.3960
 20
113.7920
 30
0.0
 0
VERTEX
 8
PARTS
 10
122.9360
 20
113.7920
 30
0.0
 0
SEQEND
 8
PARTS
 0
TEXT
 8
PARTTEXT
 10
168.6560
 20
 53.7823
 30
0.0
 40
  1.3057
 1
D17
 0
TEXT
 8
PARTTEXT
 10
168.6560
 20
 46.1623
 30
0.0
 40
  1.3057
 1
LED
 0
LINE
 8
PARTS
 10
164.8460
 20
 50.2920
 30
0.0
 11
167.3860
 21
 50.2920
 31
0.0
 0
TEXT
 8
PARTS
 10
165.8620
 20
 51.0540
 30
0.0
 40
  1.2700
 1

 0
LINE
 8
PARTS
 10
180.0860
 20
 50.2920
 30
0.0
 11
177.5460
 21
 50.2920
 31
0.0
 0
TEXT
 8
PARTS
 10
179.0700
 20
 51.0540
 30
0.0
 40
  1.2700
 1

 0
POLYLINE
 8
PARTS
 66
1
 70
1
 10
0.0
 20
0.0
 30
0.0
 0
VERTEX
 8
PARTS
 10
169.9260
 20
 52.8320
 30
0.0
 0
VERTEX
 8
PARTS
 10
169.9260
 20
 47.7520
 30
0.0
 0
VERTEX
 8
PARTS
 10
172.4660
 20
 50.2920
 30
0.0
 0
VERTEX
 8
PARTS
 10
169.9260
 20
 52.8320
 30
0.0
 0
SEQEND
 8
PARTS
 0
POLYLINE
 8
PARTS
 66
1
 70
1
 10
0.0
 20
0.0
 30
0.0
 0
VERTEX
 8
PARTS
 10
173.9900
 20
 52.8320
 30
0.0
 0
VERTEX
 8
PARTS
 10
175.0060
 20
 52.8320
 30
0.0
 0
VERTEX
 8
PARTS
 10
175.0060
 20
 51.8160
 30
0.0
 0
VERTEX
 8
PARTS
 10
173.9900
 20
 52.8320
 30
0.0
 0
SEQEND
 8
PARTS
 0
POLYLINE
 8
PARTS
 66
1
 70
1
 10
0.0
 20
0.0
 30
0.0
 0
VERTEX
 8
PARTS
 10
177.0380
 20
 52.8320
 30
0.0
 0
VERTEX
 8
PARTS
 10
176.0220
 20
 52.8320
 30
0.0
 0
VERTEX
 8
PARTS
 10
177.0380
 20
 51.8160
 30
0.0
 0
VERTEX
 8
PARTS
 10
177.0380
 20
 52.8320
 30
0.0
 0
SEQEND
 8
PARTS
 0
POLYLINE
 8
PARTS
 66
1
 10
0.0
 20
0.0
 30
0.0
 0
VERTEX
 8
PARTS
 10
172.4660
 20
 52.8320
 30
0.0
 0
VERTEX
 8
PARTS
 10
172.4660
 20
 47.7520
 30
0.0
 0
SEQEND
 8
PARTS
 0
POLYLINE
 8
PARTS
 66
1
 10
0.0
 20
0.0
 30
0.0
 0
VERTEX
 8
PARTS
 10
167.3860
 20
 50.2920
 30
0.0
 0
VERTEX
 8
PARTS
 10
169.9260
 20
 50.2920
 30
0.0
 0
SEQEND
 8
PARTS
 0
POLYLINE
 8
PARTS
 66
1
 10
0.0
 20
0.0
 30
0.0
 0
VERTEX
 8
PARTS
 10
172.4660
 20
 50.2920
 30
0.0
 0
VERTEX
 8
PARTS
 10
177.5460
 20
 50.2920
 30
0.0
 0
SEQEND
 8
PARTS
 0
POLYLINE
 8
PARTS
 66
1
 10
0.0
 20
0.0
 30
0.0
 0
VERTEX
 8
PARTS
 10
174.4980
 20
 52.3240
 30
0.0
 0
VERTEX
 8
PARTS
 10
173.2280
 20
 51.0540
 30
0.0
 0
SEQEND
 8
PARTS
 0
POLYLINE
 8
PARTS
 66
1
 10
0.0
 20
0.0
 30
0.0
 0
VERTEX
 8
PARTS
 10
176.5300
 20
 52.3240
 30
0.0
 0
VERTEX
 8
PARTS
 10
175.2600
 20
 51.0540
 30
0.0
 0
SEQEND
 8
PARTS
 0
TEXT
 8
PARTTEXT
 10
204.9780
 20
 53.7823
 30
0.0
 40
  1.3057
 1
D18
 0
TEXT
 8
PARTTEXT
 10
204.7240
 20
 46.1623
 30
0.0
 40
  1.3057
 1
LED
 0
LINE
 8
PARTS
 10
213.1060
 20
 50.2920
 30
0.0
 11
210.5660
 21
 50.2920
 31
0.0
 0
TEXT
 8
PARTS
 10
212.0900
 20
 51.0540
 30
0.0
 40
  1.2700
 1

 0
LINE
 8
PARTS
 10
197.8660
 20
 50.2920
 30
0.0
 11
200.4060
 21
 50.2920
 31
0.0
 0
TEXT
 8
PARTS
 10
198.8820
 20
 51.0540
 30
0.0
 40
  1.2700
 1

 0
POLYLINE
 8
PARTS
 66
1
 70
1
 10
0.0
 20
0.0
 30
0.0
 0
VERTEX
 8
PARTS
 10
208.0260
 20
 52.8320
 30
0.0
 0
VERTEX
 8
PARTS
 10
208.0260
 20
 47.7520
 30
0.0
 0
VERTEX
 8
PARTS
 10
205.4860
 20
 50.2920
 30
0.0
 0
VERTEX
 8
PARTS
 10
208.0260
 20
 52.8320
 30
0.0
 0
SEQEND
 8
PARTS
 0
POLYLINE
 8
PARTS
 66
1
 70
1
 10
0.0
 20
0.0
 30
0.0
 0
VERTEX
 8
PARTS
 10
203.9620
 20
 52.8320
 30
0.0
 0
VERTEX
 8
PARTS
 10
202.9460
 20
 52.8320
 30
0.0
 0
VERTEX
 8
PARTS
 10
202.9460
 20
 51.8160
 30
0.0
 0
VERTEX
 8
PARTS
 10
203.9620
 20
 52.8320
 30
0.0
 0
SEQEND
 8
PARTS
 0
POLYLINE
 8
PARTS
 66
1
 70
1
 10
0.0
 20
0.0
 30
0.0
 0
VERTEX
 8
PARTS
 10
200.9140
 20
 52.8320
 30
0.0
 0
VERTEX
 8
PARTS
 10
201.9300
 20
 52.8320
 30
0.0
 0
VERTEX
 8
PARTS
 10
200.9140
 20
 51.8160
 30
0.0
 0
VERTEX
 8
PARTS
 10
200.9140
 20
 52.8320
 30
0.0
 0
SEQEND
 8
PARTS
 0
POLYLINE
 8
PARTS
 66
1
 10
0.0
 20
0.0
 30
0.0
 0
VERTEX
 8
PARTS
 10
205.4860
 20
 52.8320
 30
0.0
 0
VERTEX
 8
PARTS
 10
205.4860
 20
 47.7520
 30
0.0
 0
SEQEND
 8
PARTS
 0
POLYLINE
 8
PARTS
 66
1
 10
0.0
 20
0.0
 30
0.0
 0
VERTEX
 8
PARTS
 10
210.5660
 20
 50.2920
 30
0.0
 0
VERTEX
 8
PARTS
 10
208.0260
 20
 50.2920
 30
0.0
 0
SEQEND
 8
PARTS
 0
POLYLINE
 8
PARTS
 66
1
 10
0.0
 20
0.0
 30
0.0
 0
VERTEX
 8
PARTS
 10
205.4860
 20
 50.2920
 30
0.0
 0
VERTEX
 8
PARTS
 10
200.4060
 20
 50.2920
 30
0.0
 0
SEQEND
 8
PARTS
 0
POLYLINE
 8
PARTS
 66
1
 10
0.0
 20
0.0
 30
0.0
 0
VERTEX
 8
PARTS
 10
203.4540
 20
 52.3240
 30
0.0
 0
VERTEX
 8
PARTS
 10
204.7240
 20
 51.0540
 30
0.0
 0
SEQEND
 8
PARTS
 0
POLYLINE
 8
PARTS
 66
1
 10
0.0
 20
0.0
 30
0.0
 0
VERTEX
 8
PARTS
 10
201.4220
 20
 52.3240
 30
0.0
 0
VERTEX
 8
PARTS
 10
202.6920
 20
 51.0540
 30
0.0
 0
SEQEND
 8
PARTS
 0
TEXT
 8
PARTTEXT
 10
253.7460
 20
109.9163
 30
0.0
 40
  1.3057
 1
R84
 0
TEXT
 8
PARTTEXT
 10
253.7460
 20
104.8363
 30
0.0
 40
  1.3057
 1
10k
 0
LINE
 8
PARTS
 10
258.8260
 20
101.0920
 30
0.0
 11
258.8260
 21
103.6320
 31
0.0
 0
LINE
 8
PARTS
 10
258.8260
 20
113.7920
 30
0.0
 11
258.8260
 21
111.2520
 31
0.0
 0
POLYLINE
 8
PARTS
 66
1
 10
0.0
 20
0.0
 30
0.0
 0
VERTEX
 8
PARTS
 10
258.8260
 20
103.6320
 30
0.0
 0
VERTEX
 8
PARTS
 10
258.0640
 20
104.3940
 30
0.0
 0
SEQEND
 8
PARTS
 0
POLYLINE
 8
PARTS
 66
1
 10
0.0
 20
0.0
 30
0.0
 0
VERTEX
 8
PARTS
 10
258.0640
 20
104.3940
 30
0.0
 0
VERTEX
 8
PARTS
 10
259.5880
 20
105.9180
 30
0.0
 0
SEQEND
 8
PARTS
 0
POLYLINE
 8
PARTS
 66
1
 10
0.0
 20
0.0
 30
0.0
 0
VERTEX
 8
PARTS
 10
259.5880
 20
105.9180
 30
0.0
 0
VERTEX
 8
PARTS
 10
258.0640
 20
107.4420
 30
0.0
 0
SEQEND
 8
PARTS
 0
POLYLINE
 8
PARTS
 66
1
 10
0.0
 20
0.0
 30
0.0
 0
VERTEX
 8
PARTS
 10
258.0640
 20
107.4420
 30
0.0
 0
VERTEX
 8
PARTS
 10
259.5880
 20
108.9660
 30
0.0
 0
SEQEND
 8
PARTS
 0
POLYLINE
 8
PARTS
 66
1
 10
0.0
 20
0.0
 30
0.0
 0
VERTEX
 8
PARTS
 10
259.5880
 20
108.9660
 30
0.0
 0
VERTEX
 8
PARTS
 10
258.0640
 20
110.4900
 30
0.0
 0
SEQEND
 8
PARTS
 0
POLYLINE
 8
PARTS
 66
1
 10
0.0
 20
0.0
 30
0.0
 0
VERTEX
 8
PARTS
 10
258.0640
 20
110.4900
 30
0.0
 0
VERTEX
 8
PARTS
 10
258.8260
 20
111.2520
 30
0.0
 0
SEQEND
 8
PARTS
 0
TEXT
 8
PARTTEXT
 10
253.7460
 20
130.2363
 30
0.0
 40
  1.3057
 1
R83
 0
TEXT
 8
PARTTEXT
 10
253.7460
 20
125.1563
 30
0.0
 40
  1.3057
 1
10k
 0
LINE
 8
PARTS
 10
258.8260
 20
134.1120
 30
0.0
 11
258.8260
 21
131.5720
 31
0.0
 0
LINE
 8
PARTS
 10
258.8260
 20
121.4120
 30
0.0
 11
258.8260
 21
123.9520
 31
0.0
 0
POLYLINE
 8
PARTS
 66
1
 10
0.0
 20
0.0
 30
0.0
 0
VERTEX
 8
PARTS
 10
258.8260
 20
131.5720
 30
0.0
 0
VERTEX
 8
PARTS
 10
259.5880
 20
130.8100
 30
0.0
 0
SEQEND
 8
PARTS
 0
POLYLINE
 8
PARTS
 66
1
 10
0.0
 20
0.0
 30
0.0
 0
VERTEX
 8
PARTS
 10
259.5880
 20
130.8100
 30
0.0
 0
VERTEX
 8
PARTS
 10
258.0640
 20
129.2860
 30
0.0
 0
SEQEND
 8
PARTS
 0
POLYLINE
 8
PARTS
 66
1
 10
0.0
 20
0.0
 30
0.0
 0
VERTEX
 8
PARTS
 10
258.0640
 20
129.2860
 30
0.0
 0
VERTEX
 8
PARTS
 10
259.5880
 20
127.7620
 30
0.0
 0
SEQEND
 8
PARTS
 0
POLYLINE
 8
PARTS
 66
1
 10
0.0
 20
0.0
 30
0.0
 0
VERTEX
 8
PARTS
 10
259.5880
 20
127.7620
 30
0.0
 0
VERTEX
 8
PARTS
 10
258.0640
 20
126.2380
 30
0.0
 0
SEQEND
 8
PARTS
 0
POLYLINE
 8
PARTS
 66
1
 10
0.0
 20
0.0
 30
0.0
 0
VERTEX
 8
PARTS
 10
258.0640
 20
126.2380
 30
0.0
 0
VERTEX
 8
PARTS
 10
259.5880
 20
124.7140
 30
0.0
 0
SEQEND
 8
PARTS
 0
POLYLINE
 8
PARTS
 66
1
 10
0.0
 20
0.0
 30
0.0
 0
VERTEX
 8
PARTS
 10
259.5880
 20
124.7140
 30
0.0
 0
VERTEX
 8
PARTS
 10
258.8260
 20
123.9520
 30
0.0
 0
SEQEND
 8
PARTS
 0
TEXT
 8
PARTTEXT
 10
253.7460
 20
 59.1163
 30
0.0
 40
  1.3057
 1
R88
 0
TEXT
 8
PARTTEXT
 10
253.7460
 20
 54.0363
 30
0.0
 40
  1.3057
 1
10k
 0
LINE
 8
PARTS
 10
258.8260
 20
 50.2920
 30
0.0
 11
258.8260
 21
 52.8320
 31
0.0
 0
LINE
 8
PARTS
 10
258.8260
 20
 62.9920
 30
0.0
 11
258.8260
 21
 60.4520
 31
0.0
 0
POLYLINE
 8
PARTS
 66
1
 10
0.0
 20
0.0
 30
0.0
 0
VERTEX
 8
PARTS
 10
258.8260
 20
 52.8320
 30
0.0
 0
VERTEX
 8
PARTS
 10
258.0640
 20
 53.5940
 30
0.0
 0
SEQEND
 8
PARTS
 0
POLYLINE
 8
PARTS
 66
1
 10
0.0
 20
0.0
 30
0.0
 0
VERTEX
 8
PARTS
 10
258.0640
 20
 53.5940
 30
0.0
 0
VERTEX
 8
PARTS
 10
259.5880
 20
 55.1180
 30
0.0
 0
SEQEND
 8
PARTS
 0
POLYLINE
 8
PARTS
 66
1
 10
0.0
 20
0.0
 30
0.0
 0
VERTEX
 8
PARTS
 10
259.5880
 20
 55.1180
 30
0.0
 0
VERTEX
 8
PARTS
 10
258.0640
 20
 56.6420
 30
0.0
 0
SEQEND
 8
PARTS
 0
POLYLINE
 8
PARTS
 66
1
 10
0.0
 20
0.0
 30
0.0
 0
VERTEX
 8
PARTS
 10
258.0640
 20
 56.6420
 30
0.0
 0
VERTEX
 8
PARTS
 10
259.5880
 20
 58.1660
 30
0.0
 0
SEQEND
 8
PARTS
 0
POLYLINE
 8
PARTS
 66
1
 10
0.0
 20
0.0
 30
0.0
 0
VERTEX
 8
PARTS
 10
259.5880
 20
 58.1660
 30
0.0
 0
VERTEX
 8
PARTS
 10
258.0640
 20
 59.6900
 30
0.0
 0
SEQEND
 8
PARTS
 0
POLYLINE
 8
PARTS
 66
1
 10
0.0
 20
0.0
 30
0.0
 0
VERTEX
 8
PARTS
 10
258.0640
 20
 59.6900
 30
0.0
 0
VERTEX
 8
PARTS
 10
258.8260
 20
 60.4520
 30
0.0
 0
SEQEND
 8
PARTS
 0
POLYLINE
 8
WIRE
 66
1
 10
0.0
 20
0.0
 30
0.0
 0
VERTEX
 8
WIRE
 10
116.5860
 20
162.0520
 30
0.0
 0
VERTEX
 8
WIRE
 10
114.0460
 20
162.0520
 30
0.0
 0
SEQEND
 8
WIRE
 0
POLYLINE
 8
WIRE
 66
1
 10
0.0
 20
0.0
 30
0.0
 0
VERTEX
 8
WIRE
 10
121.6660
 20
167.1320
 30
0.0
 0
VERTEX
 8
WIRE
 10
114.0460
 20
167.1320
 30
0.0
 0
SEQEND
 8
WIRE
 0
POLYLINE
 8
WIRE
 66
1
 10
0.0
 20
0.0
 30
0.0
 0
VERTEX
 8
WIRE
 10
129.2860
 20
174.7520
 30
0.0
 0
VERTEX
 8
WIRE
 10
114.0460
 20
174.7520
 30
0.0
 0
SEQEND
 8
WIRE
 0
TEXT
 8
WIRETEXT
 10
124.2060
 20
175.5140
 30
0.0
 40
  1.3057
 1
PDI
 0
POLYLINE
 8
WIRE
 66
1
 10
0.0
 20
0.0
 30
0.0
 0
VERTEX
 8
WIRE
 10
116.5860
 20
164.5920
 30
0.0
 0
VERTEX
 8
WIRE
 10
116.5860
 20
189.9920
 30
0.0
 0
SEQEND
 8
WIRE
 0
POLYLINE
 8
WIRE
 66
1
 70
1
 10
0.0
 20
0.0
 30
0.0
 40
  0.5080
 41
  0.5080
 0
VERTEX
 8
WIRE
 10
116.3320
 20
189.9920
 30
0.0
 42
1.0
 0
VERTEX
 8
WIRE
 10
116.8400
 20
189.9920
 30
0.0
 42
1.0
 0
SEQEND
 8
WIRE
 0
POLYLINE
 8
WIRE
 66
1
 10
0.0
 20
0.0
 30
0.0
 0
VERTEX
 8
WIRE
 10
116.5860
 20
159.5120
 30
0.0
 0
VERTEX
 8
WIRE
 10
116.5860
 20
162.0520
 30
0.0
 0
SEQEND
 8
WIRE
 0
POLYLINE
 8
WIRE
 66
1
 10
0.0
 20
0.0
 30
0.0
 0
VERTEX
 8
WIRE
 10
116.5860
 20
164.5920
 30
0.0
 0
VERTEX
 8
WIRE
 10
114.0460
 20
164.5920
 30
0.0
 0
SEQEND
 8
WIRE
 0
POLYLINE
 8
WIRE
 66
1
 10
0.0
 20
0.0
 30
0.0
 0
VERTEX
 8
WIRE
 10
210.5660
 20
182.3720
 30
0.0
 0
VERTEX
 8
WIRE
 10
210.5660
 20
184.9120
 30
0.0
 0
SEQEND
 8
WIRE
 0
POLYLINE
 8
WIRE
 66
1
 70
1
 10
0.0
 20
0.0
 30
0.0
 40
  0.5080
 41
  0.5080
 0
VERTEX
 8
WIRE
 10
210.3120
 20
184.9120
 30
0.0
 42
1.0
 0
VERTEX
 8
WIRE
 10
210.8200
 20
184.9120
 30
0.0
 42
1.0
 0
SEQEND
 8
WIRE
 0
POLYLINE
 8
WIRE
 66
1
 10
0.0
 20
0.0
 30
0.0
 0
VERTEX
 8
WIRE
 10
136.9060
 20
 96.0120
 30
0.0
 0
VERTEX
 8
WIRE
 10
136.9060
 20
 98.5520
 30
0.0
 0
SEQEND
 8
WIRE
 0
POLYLINE
 8
WIRE
 66
1
 70
1
 10
0.0
 20
0.0
 30
0.0
 40
  0.5080
 41
  0.5080
 0
VERTEX
 8
WIRE
 10
136.6520
 20
 98.5520
 30
0.0
 42
1.0
 0
VERTEX
 8
WIRE
 10
137.1600
 20
 98.5520
 30
0.0
 42
1.0
 0
SEQEND
 8
WIRE
 0
POLYLINE
 8
WIRE
 66
1
 10
0.0
 20
0.0
 30
0.0
 0
VERTEX
 8
WIRE
 10
136.9060
 20
 98.5520
 30
0.0
 0
VERTEX
 8
WIRE
 10
136.9060
 20
101.0920
 30
0.0
 0
SEQEND
 8
WIRE
 0
POLYLINE
 8
WIRE
 66
1
 10
0.0
 20
0.0
 30
0.0
 0
VERTEX
 8
WIRE
 10
136.9060
 20
 98.5520
 30
0.0
 0
VERTEX
 8
WIRE
 10
129.2860
 20
 98.5520
 30
0.0
 0
SEQEND
 8
WIRE
 0
POLYLINE
 8
WIRE
 66
1
 10
0.0
 20
0.0
 30
0.0
 0
VERTEX
 8
WIRE
 10
129.2860
 20
 96.0120
 30
0.0
 0
VERTEX
 8
WIRE
 10
129.2860
 20
 98.5520
 30
0.0
 0
SEQEND
 8
WIRE
 0
POLYLINE
 8
WIRE
 66
1
 10
0.0
 20
0.0
 30
0.0
 0
VERTEX
 8
WIRE
 10
129.2860
 20
172.2120
 30
0.0
 0
VERTEX
 8
WIRE
 10
114.0460
 20
172.2120
 30
0.0
 0
SEQEND
 8
WIRE
 0
TEXT
 8
WIRETEXT
 10
124.2060
 20
172.9740
 30
0.0
 40
  1.3057
 1
PDO
 0
POLYLINE
 8
WIRE
 66
1
 10
0.0
 20
0.0
 30
0.0
 0
VERTEX
 8
WIRE
 10
230.8860
 20
154.4320
 30
0.0
 0
VERTEX
 8
WIRE
 10
210.5660
 20
154.4320
 30
0.0
 0
SEQEND
 8
WIRE
 0
TEXT
 8
WIRETEXT
 10
210.5660
 20
155.1940
 30
0.0
 40
  1.3057
 1
PDI
 0
TEXT
 8
WIRETEXT
 10
223.7740
 20
155.1940
 30
0.0
 40
  1.3057
 1
RxD0
 0
POLYLINE
 8
WIRE
 66
1
 10
0.0
 20
0.0
 30
0.0
 0
VERTEX
 8
WIRE
 10
230.8860
 20
151.8920
 30
0.0
 0
VERTEX
 8
WIRE
 10
210.5660
 20
151.8920
 30
0.0
 0
SEQEND
 8
WIRE
 0
TEXT
 8
WIRETEXT
 10
210.5660
 20
152.6540
 30
0.0
 40
  1.3057
 1
PDO
 0
TEXT
 8
WIRETEXT
 10
224.2820
 20
152.6540
 30
0.0
 40
  1.3057
 1
TxD0
 0
POLYLINE
 8
WIRE
 66
1
 10
0.0
 20
0.0
 30
0.0
 0
VERTEX
 8
WIRE
 10
114.0460
 20
116.3320
 30
0.0
 0
VERTEX
 8
WIRE
 10
106.4260
 20
116.3320
 30
0.0
 0
SEQEND
 8
WIRE
 0
POLYLINE
 8
WIRE
 66
1
 10
0.0
 20
0.0
 30
0.0
 0
VERTEX
 8
WIRE
 10
106.4260
 20
 98.5520
 30
0.0
 0
VERTEX
 8
WIRE
 10
106.4260
 20
106.1720
 30
0.0
 0
SEQEND
 8
WIRE
 0
POLYLINE
 8
WIRE
 66
1
 70
1
 10
0.0
 20
0.0
 30
0.0
 40
  0.5080
 41
  0.5080
 0
VERTEX
 8
WIRE
 10
106.1720
 20
106.1720
 30
0.0
 42
1.0
 0
VERTEX
 8
WIRE
 10
106.6800
 20
106.1720
 30
0.0
 42
1.0
 0
SEQEND
 8
WIRE
 0
POLYLINE
 8
WIRE
 66
1
 10
0.0
 20
0.0
 30
0.0
 0
VERTEX
 8
WIRE
 10
114.0460
 20
106.1720
 30
0.0
 0
VERTEX
 8
WIRE
 10
106.4260
 20
106.1720
 30
0.0
 0
SEQEND
 8
WIRE
 0
POLYLINE
 8
WIRE
 66
1
 10
0.0
 20
0.0
 30
0.0
 0
VERTEX
 8
WIRE
 10
225.8060
 20
184.9120
 30
0.0
 0
VERTEX
 8
WIRE
 10
210.5660
 20
184.9120
 30
0.0
 0
SEQEND
 8
WIRE
 0
POLYLINE
 8
WIRE
 66
1
 10
0.0
 20
0.0
 30
0.0
 0
VERTEX
 8
WIRE
 10
106.4260
 20
106.1720
 30
0.0
 0
VERTEX
 8
WIRE
 10
106.4260
 20
116.3320
 30
0.0
 0
SEQEND
 8
WIRE
 0
POLYLINE
 8
WIRE
 66
1
 70
1
 10
0.0
 20
0.0
 30
0.0
 40
  0.5080
 41
  0.5080
 0
VERTEX
 8
WIRE
 10
106.1720
 20
116.3320
 30
0.0
 42
1.0
 0
VERTEX
 8
WIRE
 10
106.6800
 20
116.3320
 30
0.0
 42
1.0
 0
SEQEND
 8
WIRE
 0
POLYLINE
 8
WIRE
 66
1
 10
0.0
 20
0.0
 30
0.0
 0
VERTEX
 8
WIRE
 10
210.5660
 20
184.9120
 30
0.0
 0
VERTEX
 8
WIRE
 10
210.5660
 20
189.9920
 30
0.0
 0
SEQEND
 8
WIRE
 0
POLYLINE
 8
WIRE
 66
1
 10
0.0
 20
0.0
 30
0.0
 0
VERTEX
 8
WIRE
 10
121.6660
 20
167.1320
 30
0.0
 0
VERTEX
 8
WIRE
 10
121.6660
 20
177.2920
 30
0.0
 0
SEQEND
 8
WIRE
 0
POLYLINE
 8
WIRE
 66
1
 70
1
 10
0.0
 20
0.0
 30
0.0
 40
  0.5080
 41
  0.5080
 0
VERTEX
 8
WIRE
 10
121.4120
 20
167.1320
 30
0.0
 42
1.0
 0
VERTEX
 8
WIRE
 10
121.9200
 20
167.1320
 30
0.0
 42
1.0
 0
SEQEND
 8
WIRE
 0
POLYLINE
 8
WIRE
 66
1
 10
0.0
 20
0.0
 30
0.0
 0
VERTEX
 8
WIRE
 10
121.6660
 20
189.9920
 30
0.0
 0
VERTEX
 8
WIRE
 10
116.5860
 20
189.9920
 30
0.0
 0
SEQEND
 8
WIRE
 0
POLYLINE
 8
WIRE
 66
1
 10
0.0
 20
0.0
 30
0.0
 0
VERTEX
 8
WIRE
 10
116.5860
 20
189.9920
 30
0.0
 0
VERTEX
 8
WIRE
 10
116.5860
 20
192.5320
 30
0.0
 0
SEQEND
 8
WIRE
 0
POLYLINE
 8
WIRE
 66
1
 10
0.0
 20
0.0
 30
0.0
 0
VERTEX
 8
WIRE
 10
129.2860
 20
169.6720
 30
0.0
 0
VERTEX
 8
WIRE
 10
114.0460
 20
169.6720
 30
0.0
 0
SEQEND
 8
WIRE
 0
TEXT
 8
WIRETEXT
 10
124.2060
 20
170.4340
 30
0.0
 40
  1.3057
 1
SCK
 0
POLYLINE
 8
WIRE
 66
1
 10
0.0
 20
0.0
 30
0.0
 0
VERTEX
 8
WIRE
 10
129.2860
 20
167.1320
 30
0.0
 0
VERTEX
 8
WIRE
 10
121.6660
 20
167.1320
 30
0.0
 0
SEQEND
 8
WIRE
 0
TEXT
 8
WIRETEXT
 10
121.6660
 20
167.8940
 30
0.0
 40
  1.3057
 1
RESET
 0
POLYLINE
 8
WIRE
 66
1
 10
0.0
 20
0.0
 30
0.0
 0
VERTEX
 8
WIRE
 10
136.9060
 20
116.3320
 30
0.0
 0
VERTEX
 8
WIRE
 10
121.6660
 20
116.3320
 30
0.0
 0
SEQEND
 8
WIRE
 0
POLYLINE
 8
WIRE
 66
1
 70
1
 10
0.0
 20
0.0
 30
0.0
 40
  0.5080
 41
  0.5080
 0
VERTEX
 8
WIRE
 10
121.4120
 20
116.3320
 30
0.0
 42
1.0
 0
VERTEX
 8
WIRE
 10
121.9200
 20
116.3320
 30
0.0
 42
1.0
 0
SEQEND
 8
WIRE
 0
POLYLINE
 8
WIRE
 66
1
 10
0.0
 20
0.0
 30
0.0
 0
VERTEX
 8
WIRE
 10
136.9060
 20
113.7920
 30
0.0
 0
VERTEX
 8
WIRE
 10
129.2860
 20
113.7920
 30
0.0
 0
SEQEND
 8
WIRE
 0
POLYLINE
 8
WIRE
 66
1
 10
0.0
 20
0.0
 30
0.0
 0
VERTEX
 8
WIRE
 10
129.2860
 20
106.1720
 30
0.0
 0
VERTEX
 8
WIRE
 10
121.6660
 20
106.1720
 30
0.0
 0
SEQEND
 8
WIRE
 0
POLYLINE
 8
WIRE
 66
1
 70
1
 10
0.0
 20
0.0
 30
0.0
 40
  0.5080
 41
  0.5080
 0
VERTEX
 8
WIRE
 10
121.4120
 20
106.1720
 30
0.0
 42
1.0
 0
VERTEX
 8
WIRE
 10
121.9200
 20
106.1720
 30
0.0
 42
1.0
 0
SEQEND
 8
WIRE
 0
POLYLINE
 8
WIRE
 66
1
 10
0.0
 20
0.0
 30
0.0
 0
VERTEX
 8
WIRE
 10
129.2860
 20
106.1720
 30
0.0
 0
VERTEX
 8
WIRE
 10
129.2860
 20
113.7920
 30
0.0
 0
SEQEND
 8
WIRE
 0
POLYLINE
 8
WIRE
 66
1
 10
0.0
 20
0.0
 30
0.0
 0
VERTEX
 8
WIRE
 10
136.9060
 20
164.5920
 30
0.0
 0
VERTEX
 8
WIRE
 10
134.3660
 20
164.5920
 30
0.0
 0
SEQEND
 8
WIRE
 0
TEXT
 8
WIRETEXT
 10
134.3660
 20
165.3540
 30
0.0
 40
  1.3057
 1
SCK
 0
POLYLINE
 8
WIRE
 66
1
 10
0.0
 20
0.0
 30
0.0
 0
VERTEX
 8
WIRE
 10
136.9060
 20
189.9920
 30
0.0
 0
VERTEX
 8
WIRE
 10
134.3660
 20
189.9920
 30
0.0
 0
SEQEND
 8
WIRE
 0
TEXT
 8
WIRETEXT
 10
134.3660
 20
190.7540
 30
0.0
 40
  1.3057
 1
AD0
 0
POLYLINE
 8
WIRE
 66
1
 10
0.0
 20
0.0
 30
0.0
 0
VERTEX
 8
WIRE
 10
136.9060
 20
187.4520
 30
0.0
 0
VERTEX
 8
WIRE
 10
134.3660
 20
187.4520
 30
0.0
 0
SEQEND
 8
WIRE
 0
TEXT
 8
WIRETEXT
 10
134.3660
 20
188.2140
 30
0.0
 40
  1.3057
 1
AD1
 0
POLYLINE
 8
WIRE
 66
1
 10
0.0
 20
0.0
 30
0.0
 0
VERTEX
 8
WIRE
 10
136.9060
 20
184.9120
 30
0.0
 0
VERTEX
 8
WIRE
 10
134.3660
 20
184.9120
 30
0.0
 0
SEQEND
 8
WIRE
 0
TEXT
 8
WIRETEXT
 10
134.3660
 20
185.6740
 30
0.0
 40
  1.3057
 1
AD2
 0
POLYLINE
 8
WIRE
 66
1
 10
0.0
 20
0.0
 30
0.0
 0
VERTEX
 8
WIRE
 10
136.9060
 20
182.3720
 30
0.0
 0
VERTEX
 8
WIRE
 10
134.3660
 20
182.3720
 30
0.0
 0
SEQEND
 8
WIRE
 0
TEXT
 8
WIRETEXT
 10
134.3660
 20
183.1340
 30
0.0
 40
  1.3057
 1
AD3
 0
POLYLINE
 8
WIRE
 66
1
 10
0.0
 20
0.0
 30
0.0
 0
VERTEX
 8
WIRE
 10
136.9060
 20
179.8320
 30
0.0
 0
VERTEX
 8
WIRE
 10
134.3660
 20
179.8320
 30
0.0
 0
SEQEND
 8
WIRE
 0
TEXT
 8
WIRETEXT
 10
134.3660
 20
180.5940
 30
0.0
 40
  1.3057
 1
AD4
 0
POLYLINE
 8
WIRE
 66
1
 10
0.0
 20
0.0
 30
0.0
 0
VERTEX
 8
WIRE
 10
136.9060
 20
177.2920
 30
0.0
 0
VERTEX
 8
WIRE
 10
134.3660
 20
177.2920
 30
0.0
 0
SEQEND
 8
WIRE
 0
TEXT
 8
WIRETEXT
 10
134.3660
 20
178.0540
 30
0.0
 40
  1.3057
 1
AD5
 0
POLYLINE
 8
WIRE
 66
1
 10
0.0
 20
0.0
 30
0.0
 0
VERTEX
 8
WIRE
 10
136.9060
 20
174.7520
 30
0.0
 0
VERTEX
 8
WIRE
 10
134.3660
 20
174.7520
 30
0.0
 0
SEQEND
 8
WIRE
 0
TEXT
 8
WIRETEXT
 10
134.3660
 20
175.5140
 30
0.0
 40
  1.3057
 1
AD6
 0
POLYLINE
 8
WIRE
 66
1
 10
0.0
 20
0.0
 30
0.0
 0
VERTEX
 8
WIRE
 10
136.9060
 20
172.2120
 30
0.0
 0
VERTEX
 8
WIRE
 10
134.3660
 20
172.2120
 30
0.0
 0
SEQEND
 8
WIRE
 0
TEXT
 8
WIRETEXT
 10
134.3660
 20
172.9740
 30
0.0
 40
  1.3057
 1
AD7
 0
POLYLINE
 8
WIRE
 66
1
 10
0.0
 20
0.0
 30
0.0
 0
VERTEX
 8
WIRE
 10
136.9060
 20
144.2720
 30
0.0
 0
VERTEX
 8
WIRE
 10
134.3660
 20
144.2720
 30
0.0
 0
SEQEND
 8
WIRE
 0
TEXT
 8
WIRETEXT
 10
134.3660
 20
145.0340
 30
0.0
 40
  1.3057
 1
A8
 0
POLYLINE
 8
WIRE
 66
1
 10
0.0
 20
0.0
 30
0.0
 0
VERTEX
 8
WIRE
 10
136.9060
 20
141.7320
 30
0.0
 0
VERTEX
 8
WIRE
 10
134.3660
 20
141.7320
 30
0.0
 0
SEQEND
 8
WIRE
 0
TEXT
 8
WIRETEXT
 10
134.3660
 20
142.4940
 30
0.0
 40
  1.3057
 1
A9
 0
POLYLINE
 8
WIRE
 66
1
 10
0.0
 20
0.0
 30
0.0
 0
VERTEX
 8
WIRE
 10
136.9060
 20
139.1920
 30
0.0
 0
VERTEX
 8
WIRE
 10
134.3660
 20
139.1920
 30
0.0
 0
SEQEND
 8
WIRE
 0
TEXT
 8
WIRETEXT
 10
134.3660
 20
139.9540
 30
0.0
 40
  1.3057
 1
A10
 0
POLYLINE
 8
WIRE
 66
1
 10
0.0
 20
0.0
 30
0.0
 0
VERTEX
 8
WIRE
 10
136.9060
 20
136.6520
 30
0.0
 0
VERTEX
 8
WIRE
 10
134.3660
 20
136.6520
 30
0.0
 0
SEQEND
 8
WIRE
 0
TEXT
 8
WIRETEXT
 10
134.3660
 20
137.4140
 30
0.0
 40
  1.3057
 1
A11
 0
POLYLINE
 8
WIRE
 66
1
 10
0.0
 20
0.0
 30
0.0
 0
VERTEX
 8
WIRE
 10
136.9060
 20
134.1120
 30
0.0
 0
VERTEX
 8
WIRE
 10
134.3660
 20
134.1120
 30
0.0
 0
SEQEND
 8
WIRE
 0
TEXT
 8
WIRETEXT
 10
134.3660
 20
134.8740
 30
0.0
 40
  1.3057
 1
A12
 0
POLYLINE
 8
WIRE
 66
1
 10
0.0
 20
0.0
 30
0.0
 0
VERTEX
 8
WIRE
 10
136.9060
 20
131.5720
 30
0.0
 0
VERTEX
 8
WIRE
 10
134.3660
 20
131.5720
 30
0.0
 0
SEQEND
 8
WIRE
 0
TEXT
 8
WIRETEXT
 10
134.3660
 20
132.3340
 30
0.0
 40
  1.3057
 1
A13
 0
POLYLINE
 8
WIRE
 66
1
 10
0.0
 20
0.0
 30
0.0
 0
VERTEX
 8
WIRE
 10
136.9060
 20
129.0320
 30
0.0
 0
VERTEX
 8
WIRE
 10
134.3660
 20
129.0320
 30
0.0
 0
SEQEND
 8
WIRE
 0
TEXT
 8
WIRETEXT
 10
134.3660
 20
129.7940
 30
0.0
 40
  1.3057
 1
A14
 0
POLYLINE
 8
WIRE
 66
1
 10
0.0
 20
0.0
 30
0.0
 0
VERTEX
 8
WIRE
 10
136.9060
 20
126.4920
 30
0.0
 0
VERTEX
 8
WIRE
 10
134.3660
 20
126.4920
 30
0.0
 0
SEQEND
 8
WIRE
 0
TEXT
 8
WIRETEXT
 10
134.3660
 20
127.2540
 30
0.0
 40
  1.3057
 1
A15
 0
POLYLINE
 8
WIRE
 66
1
 10
0.0
 20
0.0
 30
0.0
 0
VERTEX
 8
WIRE
 10
228.3460
 20
131.5720
 30
0.0
 0
VERTEX
 8
WIRE
 10
210.5660
 20
131.5720
 30
0.0
 0
SEQEND
 8
WIRE
 0
TEXT
 8
WIRETEXT
 10
220.7260
 20
132.3340
 30
0.0
 40
  1.3057
 1
ADC0
 0
POLYLINE
 8
WIRE
 66
1
 10
0.0
 20
0.0
 30
0.0
 0
VERTEX
 8
WIRE
 10
228.3460
 20
129.0320
 30
0.0
 0
VERTEX
 8
WIRE
 10
210.5660
 20
129.0320
 30
0.0
 0
SEQEND
 8
WIRE
 0
TEXT
 8
WIRETEXT
 10
220.9800
 20
129.7940
 30
0.0
 40
  1.3057
 1
ADC1
 0
POLYLINE
 8
WIRE
 66
1
 10
0.0
 20
0.0
 30
0.0
 0
VERTEX
 8
WIRE
 10
228.3460
 20
126.4920
 30
0.0
 0
VERTEX
 8
WIRE
 10
210.5660
 20
126.4920
 30
0.0
 0
SEQEND
 8
WIRE
 0
TEXT
 8
WIRETEXT
 10
220.9800
 20
127.2540
 30
0.0
 40
  1.3057
 1
ADC2
 0
POLYLINE
 8
WIRE
 66
1
 10
0.0
 20
0.0
 30
0.0
 0
VERTEX
 8
WIRE
 10
228.3460
 20
123.9520
 30
0.0
 0
VERTEX
 8
WIRE
 10
210.5660
 20
123.9520
 30
0.0
 0
SEQEND
 8
WIRE
 0
TEXT
 8
WIRETEXT
 10
220.9800
 20
124.7140
 30
0.0
 40
  1.3057
 1
ADC3
 0
POLYLINE
 8
WIRE
 66
1
 10
0.0
 20
0.0
 30
0.0
 0
VERTEX
 8
WIRE
 10
228.3460
 20
121.4120
 30
0.0
 0
VERTEX
 8
WIRE
 10
210.5660
 20
121.4120
 30
0.0
 0
SEQEND
 8
WIRE
 0
TEXT
 8
WIRETEXT
 10
220.9800
 20
122.1740
 30
0.0
 40
  1.3057
 1
ADC4
 0
POLYLINE
 8
WIRE
 66
1
 10
0.0
 20
0.0
 30
0.0
 0
VERTEX
 8
WIRE
 10
228.3460
 20
118.8720
 30
0.0
 0
VERTEX
 8
WIRE
 10
210.5660
 20
118.8720
 30
0.0
 0
SEQEND
 8
WIRE
 0
TEXT
 8
WIRETEXT
 10
220.9800
 20
119.6340
 30
0.0
 40
  1.3057
 1
ADC5
 0
POLYLINE
 8
WIRE
 66
1
 10
0.0
 20
0.0
 30
0.0
 0
VERTEX
 8
WIRE
 10
228.3460
 20
116.3320
 30
0.0
 0
VERTEX
 8
WIRE
 10
210.5660
 20
116.3320
 30
0.0
 0
SEQEND
 8
WIRE
 0
TEXT
 8
WIRETEXT
 10
220.9800
 20
117.0940
 30
0.0
 40
  1.3057
 1
ADC6
 0
POLYLINE
 8
WIRE
 66
1
 10
0.0
 20
0.0
 30
0.0
 0
VERTEX
 8
WIRE
 10
228.3460
 20
113.7920
 30
0.0
 0
VERTEX
 8
WIRE
 10
210.5660
 20
113.7920
 30
0.0
 0
SEQEND
 8
WIRE
 0
TEXT
 8
WIRETEXT
 10
220.9800
 20
114.5540
 30
0.0
 40
  1.3057
 1
ADC7
 0
POLYLINE
 8
WIRE
 66
1
 10
0.0
 20
0.0
 30
0.0
 0
VERTEX
 8
WIRE
 10
228.3460
 20
177.2920
 30
0.0
 0
VERTEX
 8
WIRE
 10
210.5660
 20
177.2920
 30
0.0
 0
SEQEND
 8
WIRE
 0
TEXT
 8
WIRETEXT
 10
222.7580
 20
178.0540
 30
0.0
 40
  1.3057
 1
SCL
 0
POLYLINE
 8
WIRE
 66
1
 10
0.0
 20
0.0
 30
0.0
 0
VERTEX
 8
WIRE
 10
228.3460
 20
174.7520
 30
0.0
 0
VERTEX
 8
WIRE
 10
210.5660
 20
174.7520
 30
0.0
 0
SEQEND
 8
WIRE
 0
TEXT
 8
WIRETEXT
 10
222.5040
 20
175.5140
 30
0.0
 40
  1.3057
 1
SDA
 0
POLYLINE
 8
WIRE
 66
1
 10
0.0
 20
0.0
 30
0.0
 0
VERTEX
 8
WIRE
 10
228.3460
 20
172.2120
 30
0.0
 0
VERTEX
 8
WIRE
 10
210.5660
 20
172.2120
 30
0.0
 0
SEQEND
 8
WIRE
 0
TEXT
 8
WIRETEXT
 10
213.1060
 20
172.9740
 30
0.0
 40
  1.3057
 1
RxD1
 0
POLYLINE
 8
WIRE
 66
1
 10
0.0
 20
0.0
 30
0.0
 0
VERTEX
 8
WIRE
 10
228.3460
 20
169.6720
 30
0.0
 0
VERTEX
 8
WIRE
 10
210.5660
 20
169.6720
 30
0.0
 0
SEQEND
 8
WIRE
 0
TEXT
 8
WIRETEXT
 10
213.1060
 20
170.4340
 30
0.0
 40
  1.3057
 1
TxD1
 0
POLYLINE
 8
WIRE
 66
1
 10
0.0
 20
0.0
 30
0.0
 0
VERTEX
 8
WIRE
 10
228.3460
 20
167.1320
 30
0.0
 0
VERTEX
 8
WIRE
 10
210.5660
 20
167.1320
 30
0.0
 0
SEQEND
 8
WIRE
 0
POLYLINE
 8
WIRE
 66
1
 10
0.0
 20
0.0
 30
0.0
 0
VERTEX
 8
WIRE
 10
228.3460
 20
164.5920
 30
0.0
 0
VERTEX
 8
WIRE
 10
210.5660
 20
164.5920
 30
0.0
 0
SEQEND
 8
WIRE
 0
POLYLINE
 8
WIRE
 66
1
 10
0.0
 20
0.0
 30
0.0
 0
VERTEX
 8
WIRE
 10
228.3460
 20
162.0520
 30
0.0
 0
VERTEX
 8
WIRE
 10
210.5660
 20
162.0520
 30
0.0
 0
SEQEND
 8
WIRE
 0
POLYLINE
 8
WIRE
 66
1
 10
0.0
 20
0.0
 30
0.0
 0
VERTEX
 8
WIRE
 10
228.3460
 20
159.5120
 30
0.0
 0
VERTEX
 8
WIRE
 10
210.5660
 20
159.5120
 30
0.0
 0
SEQEND
 8
WIRE
 0
POLYLINE
 8
WIRE
 66
1
 10
0.0
 20
0.0
 30
0.0
 0
VERTEX
 8
WIRE
 10
225.8060
 20
108.7120
 30
0.0
 0
VERTEX
 8
WIRE
 10
210.5660
 20
108.7120
 30
0.0
 0
SEQEND
 8
WIRE
 0
TEXT
 8
WIRETEXT
 10
213.1060
 20
109.4740
 30
0.0
 40
  1.3057
 1
/WR
 0
POLYLINE
 8
WIRE
 66
1
 10
0.0
 20
0.0
 30
0.0
 0
VERTEX
 8
WIRE
 10
225.8060
 20
106.1720
 30
0.0
 0
VERTEX
 8
WIRE
 10
210.5660
 20
106.1720
 30
0.0
 0
SEQEND
 8
WIRE
 0
TEXT
 8
WIRETEXT
 10
213.1060
 20
106.9340
 30
0.0
 40
  1.3057
 1
/RD
 0
POLYLINE
 8
WIRE
 66
1
 10
0.0
 20
0.0
 30
0.0
 0
VERTEX
 8
WIRE
 10
225.8060
 20
103.6320
 30
0.0
 0
VERTEX
 8
WIRE
 10
210.5660
 20
103.6320
 30
0.0
 0
SEQEND
 8
WIRE
 0
TEXT
 8
WIRETEXT
 10
213.1060
 20
104.3940
 30
0.0
 40
  1.3057
 1
ALE
 0
POLYLINE
 8
WIRE
 66
1
 10
0.0
 20
0.0
 30
0.0
 0
VERTEX
 8
WIRE
 10
225.8060
 20
149.3520
 30
0.0
 0
VERTEX
 8
WIRE
 10
210.5660
 20
149.3520
 30
0.0
 0
SEQEND
 8
WIRE
 0
POLYLINE
 8
WIRE
 66
1
 10
0.0
 20
0.0
 30
0.0
 0
VERTEX
 8
WIRE
 10
225.8060
 20
146.8120
 30
0.0
 0
VERTEX
 8
WIRE
 10
210.5660
 20
146.8120
 30
0.0
 0
SEQEND
 8
WIRE
 0
TEXT
 8
WIRETEXT
 10
213.1060
 20
147.5740
 30
0.0
 40
  1.3057
 1
SMA4
 0
POLYLINE
 8
WIRE
 66
1
 10
0.0
 20
0.0
 30
0.0
 0
VERTEX
 8
WIRE
 10
225.8060
 20
144.2720
 30
0.0
 0
VERTEX
 8
WIRE
 10
210.5660
 20
144.2720
 30
0.0
 0
SEQEND
 8
WIRE
 0
TEXT
 8
WIRETEXT
 10
213.1060
 20
145.0340
 30
0.0
 40
  1.3057
 1
SMA5
 0
POLYLINE
 8
WIRE
 66
1
 10
0.0
 20
0.0
 30
0.0
 0
VERTEX
 8
WIRE
 10
225.8060
 20
141.7320
 30
0.0
 0
VERTEX
 8
WIRE
 10
210.5660
 20
141.7320
 30
0.0
 0
SEQEND
 8
WIRE
 0
TEXT
 8
WIRETEXT
 10
213.1060
 20
142.4940
 30
0.0
 40
  1.3057
 1
SMA6
 0
POLYLINE
 8
WIRE
 66
1
 10
0.0
 20
0.0
 30
0.0
 0
VERTEX
 8
WIRE
 10
116.5860
 20
 75.6920
 30
0.0
 0
VERTEX
 8
WIRE
 10
114.0460
 20
 75.6920
 30
0.0
 0
SEQEND
 8
WIRE
 0
POLYLINE
 8
WIRE
 66
1
 10
0.0
 20
0.0
 30
0.0
 0
VERTEX
 8
WIRE
 10
116.5860
 20
 68.0720
 30
0.0
 0
VERTEX
 8
WIRE
 10
116.5860
 20
 75.6920
 30
0.0
 0
SEQEND
 8
WIRE
 0
POLYLINE
 8
WIRE
 66
1
 10
0.0
 20
0.0
 30
0.0
 0
VERTEX
 8
WIRE
 10
190.2460
 20
 75.6920
 30
0.0
 0
VERTEX
 8
WIRE
 10
180.0860
 20
 75.6920
 30
0.0
 0
SEQEND
 8
WIRE
 0
POLYLINE
 8
WIRE
 66
1
 10
0.0
 20
0.0
 30
0.0
 0
VERTEX
 8
WIRE
 10
190.2460
 20
 73.1520
 30
0.0
 0
VERTEX
 8
WIRE
 10
190.2460
 20
 75.6920
 30
0.0
 0
SEQEND
 8
WIRE
 0
POLYLINE
 8
WIRE
 66
1
 10
0.0
 20
0.0
 30
0.0
 0
VERTEX
 8
WIRE
 10
190.2460
 20
 62.9920
 30
0.0
 0
VERTEX
 8
WIRE
 10
190.2460
 20
 65.5320
 30
0.0
 0
SEQEND
 8
WIRE
 0
POLYLINE
 8
WIRE
 66
1
 10
0.0
 20
0.0
 30
0.0
 0
VERTEX
 8
WIRE
 10
190.2460
 20
 60.4520
 30
0.0
 0
VERTEX
 8
WIRE
 10
190.2460
 20
 62.9920
 30
0.0
 0
SEQEND
 8
WIRE
 0
POLYLINE
 8
WIRE
 66
1
 70
1
 10
0.0
 20
0.0
 30
0.0
 40
  0.5080
 41
  0.5080
 0
VERTEX
 8
WIRE
 10
189.9920
 20
 62.9920
 30
0.0
 42
1.0
 0
VERTEX
 8
WIRE
 10
190.5000
 20
 62.9920
 30
0.0
 42
1.0
 0
SEQEND
 8
WIRE
 0
POLYLINE
 8
WIRE
 66
1
 10
0.0
 20
0.0
 30
0.0
 0
VERTEX
 8
WIRE
 10
190.2460
 20
 62.9920
 30
0.0
 0
VERTEX
 8
WIRE
 10
164.8460
 20
 62.9920
 30
0.0
 0
SEQEND
 8
WIRE
 0
POLYLINE
 8
WIRE
 66
1
 10
0.0
 20
0.0
 30
0.0
 0
VERTEX
 8
WIRE
 10
228.3460
 20
 75.6920
 30
0.0
 0
VERTEX
 8
WIRE
 10
228.3460
 20
 78.2320
 30
0.0
 0
SEQEND
 8
WIRE
 0
POLYLINE
 8
WIRE
 66
1
 70
1
 10
0.0
 20
0.0
 30
0.0
 40
  0.5080
 41
  0.5080
 0
VERTEX
 8
WIRE
 10
228.0920
 20
 75.6920
 30
0.0
 42
1.0
 0
VERTEX
 8
WIRE
 10
228.6000
 20
 75.6920
 30
0.0
 42
1.0
 0
SEQEND
 8
WIRE
 0
POLYLINE
 8
WIRE
 66
1
 10
0.0
 20
0.0
 30
0.0
 0
VERTEX
 8
WIRE
 10
228.3460
 20
 50.2920
 30
0.0
 0
VERTEX
 8
WIRE
 10
225.8060
 20
 50.2920
 30
0.0
 0
SEQEND
 8
WIRE
 0
POLYLINE
 8
WIRE
 66
1
 10
0.0
 20
0.0
 30
0.0
 0
VERTEX
 8
WIRE
 10
228.3460
 20
 50.2920
 30
0.0
 0
VERTEX
 8
WIRE
 10
228.3460
 20
 75.6920
 30
0.0
 0
SEQEND
 8
WIRE
 0
POLYLINE
 8
WIRE
 66
1
 10
0.0
 20
0.0
 30
0.0
 0
VERTEX
 8
WIRE
 10
197.8660
 20
 50.2920
 30
0.0
 0
VERTEX
 8
WIRE
 10
187.7060
 20
 50.2920
 30
0.0
 0
SEQEND
 8
WIRE
 0
POLYLINE
 8
WIRE
 66
1
 70
1
 10
0.0
 20
0.0
 30
0.0
 40
  0.5080
 41
  0.5080
 0
VERTEX
 8
WIRE
 10
187.4520
 20
 50.2920
 30
0.0
 42
1.0
 0
VERTEX
 8
WIRE
 10
187.9600
 20
 50.2920
 30
0.0
 42
1.0
 0
SEQEND
 8
WIRE
 0
POLYLINE
 8
WIRE
 66
1
 10
0.0
 20
0.0
 30
0.0
 0
VERTEX
 8
WIRE
 10
187.7060
 20
 47.7520
 30
0.0
 0
VERTEX
 8
WIRE
 10
187.7060
 20
 50.2920
 30
0.0
 0
SEQEND
 8
WIRE
 0
POLYLINE
 8
WIRE
 66
1
 10
0.0
 20
0.0
 30
0.0
 0
VERTEX
 8
WIRE
 10
187.7060
 20
 50.2920
 30
0.0
 0
VERTEX
 8
WIRE
 10
180.0860
 20
 50.2920
 30
0.0
 0
SEQEND
 8
WIRE
 0
POLYLINE
 8
WIRE
 66
1
 10
0.0
 20
0.0
 30
0.0
 0
VERTEX
 8
WIRE
 10
149.6060
 20
 50.2920
 30
0.0
 0
VERTEX
 8
WIRE
 10
149.6060
 20
 75.6920
 30
0.0
 0
SEQEND
 8
WIRE
 0
POLYLINE
 8
WIRE
 66
1
 70
1
 10
0.0
 20
0.0
 30
0.0
 40
  0.5080
 41
  0.5080
 0
VERTEX
 8
WIRE
 10
149.3520
 20
 75.6920
 30
0.0
 42
1.0
 0
VERTEX
 8
WIRE
 10
149.8600
 20
 75.6920
 30
0.0
 42
1.0
 0
SEQEND
 8
WIRE
 0
POLYLINE
 8
WIRE
 66
1
 10
0.0
 20
0.0
 30
0.0
 0
VERTEX
 8
WIRE
 10
164.8460
 20
 50.2920
 30
0.0
 0
VERTEX
 8
WIRE
 10
162.3060
 20
 50.2920
 30
0.0
 0
SEQEND
 8
WIRE
 0
POLYLINE
 8
WIRE
 66
1
 10
0.0
 20
0.0
 30
0.0
 0
VERTEX
 8
WIRE
 10
149.6060
 20
 75.6920
 30
0.0
 0
VERTEX
 8
WIRE
 10
139.4460
 20
 75.6920
 30
0.0
 0
SEQEND
 8
WIRE
 0
POLYLINE
 8
WIRE
 66
1
 70
1
 10
0.0
 20
0.0
 30
0.0
 40
  0.5080
 41
  0.5080
 0
VERTEX
 8
WIRE
 10
139.1920
 20
 75.6920
 30
0.0
 42
1.0
 0
VERTEX
 8
WIRE
 10
139.7000
 20
 75.6920
 30
0.0
 42
1.0
 0
SEQEND
 8
WIRE
 0
POLYLINE
 8
WIRE
 66
1
 10
0.0
 20
0.0
 30
0.0
 0
VERTEX
 8
WIRE
 10
149.6060
 20
 75.6920
 30
0.0
 0
VERTEX
 8
WIRE
 10
149.6060
 20
 80.7720
 30
0.0
 0
SEQEND
 8
WIRE
 0
POLYLINE
 8
WIRE
 66
1
 10
0.0
 20
0.0
 30
0.0
 0
VERTEX
 8
WIRE
 10
136.9060
 20
121.4120
 30
0.0
 0
VERTEX
 8
WIRE
 10
134.3660
 20
121.4120
 30
0.0
 0
SEQEND
 8
WIRE
 0
POLYLINE
 8
WIRE
 66
1
 10
0.0
 20
0.0
 30
0.0
 0
VERTEX
 8
WIRE
 10
126.7460
 20
121.4120
 30
0.0
 0
VERTEX
 8
WIRE
 10
106.4260
 20
121.4120
 30
0.0
 0
SEQEND
 8
WIRE
 0
POLYLINE
 8
WIRE
 66
1
 10
0.0
 20
0.0
 30
0.0
 0
VERTEX
 8
WIRE
 10
106.4260
 20
116.3320
 30
0.0
 0
VERTEX
 8
WIRE
 10
106.4260
 20
121.4120
 30
0.0
 0
SEQEND
 8
WIRE
 0
POLYLINE
 8
WIRE
 66
1
 10
0.0
 20
0.0
 30
0.0
 0
VERTEX
 8
WIRE
 10
228.3460
 20
 75.6920
 30
0.0
 0
VERTEX
 8
WIRE
 10
190.2460
 20
 75.6920
 30
0.0
 0
SEQEND
 8
WIRE
 0
POLYLINE
 8
WIRE
 66
1
 70
1
 10
0.0
 20
0.0
 30
0.0
 40
  0.5080
 41
  0.5080
 0
VERTEX
 8
WIRE
 10
228.0920
 20
 75.6920
 30
0.0
 42
1.0
 0
VERTEX
 8
WIRE
 10
228.6000
 20
 75.6920
 30
0.0
 42
1.0
 0
SEQEND
 8
WIRE
 0
POLYLINE
 8
WIRE
 66
1
 70
1
 10
0.0
 20
0.0
 30
0.0
 40
  0.5080
 41
  0.5080
 0
VERTEX
 8
WIRE
 10
189.9920
 20
 75.6920
 30
0.0
 42
1.0
 0
VERTEX
 8
WIRE
 10
190.5000
 20
 75.6920
 30
0.0
 42
1.0
 0
SEQEND
 8
WIRE
 0
POLYLINE
 8
WIRE
 66
1
 10
0.0
 20
0.0
 30
0.0
 0
VERTEX
 8
WIRE
 10
139.4460
 20
 62.9920
 30
0.0
 0
VERTEX
 8
WIRE
 10
139.4460
 20
 65.5320
 30
0.0
 0
SEQEND
 8
WIRE
 0
POLYLINE
 8
WIRE
 66
1
 10
0.0
 20
0.0
 30
0.0
 0
VERTEX
 8
WIRE
 10
139.4460
 20
 73.1520
 30
0.0
 0
VERTEX
 8
WIRE
 10
139.4460
 20
 75.6920
 30
0.0
 0
SEQEND
 8
WIRE
 0
POLYLINE
 8
WIRE
 66
1
 10
0.0
 20
0.0
 30
0.0
 0
VERTEX
 8
WIRE
 10
139.4460
 20
 75.6920
 30
0.0
 0
VERTEX
 8
WIRE
 10
134.3660
 20
 75.6920
 30
0.0
 0
SEQEND
 8
WIRE
 0
POLYLINE
 8
WIRE
 66
1
 10
0.0
 20
0.0
 30
0.0
 0
VERTEX
 8
WIRE
 10
266.4460
 20
169.6720
 30
0.0
 0
VERTEX
 8
WIRE
 10
258.8260
 20
169.6720
 30
0.0
 0
SEQEND
 8
WIRE
 0
POLYLINE
 8
WIRE
 66
1
 70
1
 10
0.0
 20
0.0
 30
0.0
 40
  0.5080
 41
  0.5080
 0
VERTEX
 8
WIRE
 10
258.5720
 20
169.6720
 30
0.0
 42
1.0
 0
VERTEX
 8
WIRE
 10
259.0800
 20
169.6720
 30
0.0
 42
1.0
 0
SEQEND
 8
WIRE
 0
POLYLINE
 8
WIRE
 66
1
 10
0.0
 20
0.0
 30
0.0
 0
VERTEX
 8
WIRE
 10
266.4460
 20
192.5320
 30
0.0
 0
VERTEX
 8
WIRE
 10
263.9060
 20
192.5320
 30
0.0
 0
SEQEND
 8
WIRE
 0
POLYLINE
 8
WIRE
 66
1
 10
0.0
 20
0.0
 30
0.0
 0
VERTEX
 8
WIRE
 10
263.9060
 20
174.7520
 30
0.0
 0
VERTEX
 8
WIRE
 10
263.9060
 20
177.2920
 30
0.0
 0
SEQEND
 8
WIRE
 0
POLYLINE
 8
WIRE
 66
1
 70
1
 10
0.0
 20
0.0
 30
0.0
 40
  0.5080
 41
  0.5080
 0
VERTEX
 8
WIRE
 10
263.6520
 20
177.2920
 30
0.0
 42
1.0
 0
VERTEX
 8
WIRE
 10
264.1600
 20
177.2920
 30
0.0
 42
1.0
 0
SEQEND
 8
WIRE
 0
POLYLINE
 8
WIRE
 66
1
 10
0.0
 20
0.0
 30
0.0
 0
VERTEX
 8
WIRE
 10
261.3660
 20
189.9920
 30
0.0
 0
VERTEX
 8
WIRE
 10
258.8260
 20
189.9920
 30
0.0
 0
SEQEND
 8
WIRE
 0
POLYLINE
 8
WIRE
 66
1
 10
0.0
 20
0.0
 30
0.0
 0
VERTEX
 8
WIRE
 10
261.3660
 20
184.9120
 30
0.0
 0
VERTEX
 8
WIRE
 10
261.3660
 20
189.9920
 30
0.0
 0
SEQEND
 8
WIRE
 0
POLYLINE
 8
WIRE
 66
1
 10
0.0
 20
0.0
 30
0.0
 0
VERTEX
 8
WIRE
 10
266.4460
 20
184.9120
 30
0.0
 0
VERTEX
 8
WIRE
 10
261.3660
 20
184.9120
 30
0.0
 0
SEQEND
 8
WIRE
 0
POLYLINE
 8
WIRE
 66
1
 10
0.0
 20
0.0
 30
0.0
 0
VERTEX
 8
WIRE
 10
258.8260
 20
187.4520
 30
0.0
 0
VERTEX
 8
WIRE
 10
258.8260
 20
189.9920
 30
0.0
 0
SEQEND
 8
WIRE
 0
POLYLINE
 8
WIRE
 66
1
 70
1
 10
0.0
 20
0.0
 30
0.0
 40
  0.5080
 41
  0.5080
 0
VERTEX
 8
WIRE
 10
258.5720
 20
189.9920
 30
0.0
 42
1.0
 0
VERTEX
 8
WIRE
 10
259.0800
 20
189.9920
 30
0.0
 42
1.0
 0
SEQEND
 8
WIRE
 0
POLYLINE
 8
WIRE
 66
1
 10
0.0
 20
0.0
 30
0.0
 0
VERTEX
 8
WIRE
 10
263.9060
 20
174.7520
 30
0.0
 0
VERTEX
 8
WIRE
 10
258.8260
 20
174.7520
 30
0.0
 0
SEQEND
 8
WIRE
 0
POLYLINE
 8
WIRE
 66
1
 10
0.0
 20
0.0
 30
0.0
 0
VERTEX
 8
WIRE
 10
263.9060
 20
151.8920
 30
0.0
 0
VERTEX
 8
WIRE
 10
263.9060
 20
154.4320
 30
0.0
 0
SEQEND
 8
WIRE
 0
POLYLINE
 8
WIRE
 66
1
 70
1
 10
0.0
 20
0.0
 30
0.0
 40
  0.5080
 41
  0.5080
 0
VERTEX
 8
WIRE
 10
263.6520
 20
154.4320
 30
0.0
 42
1.0
 0
VERTEX
 8
WIRE
 10
264.1600
 20
154.4320
 30
0.0
 42
1.0
 0
SEQEND
 8
WIRE
 0
POLYLINE
 8
WIRE
 66
1
 10
0.0
 20
0.0
 30
0.0
 0
VERTEX
 8
WIRE
 10
258.8260
 20
167.1320
 30
0.0
 0
VERTEX
 8
WIRE
 10
258.8260
 20
169.6720
 30
0.0
 0
SEQEND
 8
WIRE
 0
POLYLINE
 8
WIRE
 66
1
 10
0.0
 20
0.0
 30
0.0
 0
VERTEX
 8
WIRE
 10
263.9060
 20
154.4320
 30
0.0
 0
VERTEX
 8
WIRE
 10
258.8260
 20
154.4320
 30
0.0
 0
SEQEND
 8
WIRE
 0
POLYLINE
 8
WIRE
 66
1
 10
0.0
 20
0.0
 30
0.0
 0
VERTEX
 8
WIRE
 10
246.1260
 20
189.9920
 30
0.0
 0
VERTEX
 8
WIRE
 10
238.5060
 20
189.9920
 30
0.0
 0
SEQEND
 8
WIRE
 0
TEXT
 8
WIRETEXT
 10
238.5060
 20
190.7540
 30
0.0
 40
  1.3057
 1
SMA1
 0
POLYLINE
 8
WIRE
 66
1
 10
0.0
 20
0.0
 30
0.0
 0
VERTEX
 8
WIRE
 10
246.1260
 20
169.6720
 30
0.0
 0
VERTEX
 8
WIRE
 10
238.5060
 20
169.6720
 30
0.0
 0
SEQEND
 8
WIRE
 0
TEXT
 8
WIRETEXT
 10
238.5060
 20
170.4340
 30
0.0
 40
  1.3057
 1
SMA2
 0
POLYLINE
 8
WIRE
 66
1
 10
0.0
 20
0.0
 30
0.0
 0
VERTEX
 8
WIRE
 10
302.0060
 20
184.9120
 30
0.0
 0
VERTEX
 8
WIRE
 10
302.0060
 20
192.5320
 30
0.0
 0
SEQEND
 8
WIRE
 0
POLYLINE
 8
WIRE
 66
1
 70
1
 10
0.0
 20
0.0
 30
0.0
 40
  0.5080
 41
  0.5080
 0
VERTEX
 8
WIRE
 10
301.7520
 20
192.5320
 30
0.0
 42
1.0
 0
VERTEX
 8
WIRE
 10
302.2600
 20
192.5320
 30
0.0
 42
1.0
 0
SEQEND
 8
WIRE
 0
POLYLINE
 8
WIRE
 66
1
 10
0.0
 20
0.0
 30
0.0
 0
VERTEX
 8
WIRE
 10
302.0060
 20
169.6720
 30
0.0
 0
VERTEX
 8
WIRE
 10
302.0060
 20
177.2920
 30
0.0
 0
SEQEND
 8
WIRE
 0
POLYLINE
 8
WIRE
 66
1
 10
0.0
 20
0.0
 30
0.0
 0
VERTEX
 8
WIRE
 10
266.4460
 20
116.3320
 30
0.0
 0
VERTEX
 8
WIRE
 10
258.8260
 20
116.3320
 30
0.0
 0
SEQEND
 8
WIRE
 0
POLYLINE
 8
WIRE
 66
1
 70
1
 10
0.0
 20
0.0
 30
0.0
 40
  0.5080
 41
  0.5080
 0
VERTEX
 8
WIRE
 10
258.5720
 20
116.3320
 30
0.0
 42
1.0
 0
VERTEX
 8
WIRE
 10
259.0800
 20
116.3320
 30
0.0
 42
1.0
 0
SEQEND
 8
WIRE
 0
POLYLINE
 8
WIRE
 66
1
 10
0.0
 20
0.0
 30
0.0
 0
VERTEX
 8
WIRE
 10
246.1260
 20
136.6520
 30
0.0
 0
VERTEX
 8
WIRE
 10
238.5060
 20
136.6520
 30
0.0
 0
SEQEND
 8
WIRE
 0
TEXT
 8
WIRETEXT
 10
238.5060
 20
137.4140
 30
0.0
 40
  1.3057
 1
SMA3
 0
POLYLINE
 8
WIRE
 66
1
 10
0.0
 20
0.0
 30
0.0
 0
VERTEX
 8
WIRE
 10
246.1260
 20
116.3320
 30
0.0
 0
VERTEX
 8
WIRE
 10
238.5060
 20
116.3320
 30
0.0
 0
SEQEND
 8
WIRE
 0
TEXT
 8
WIRETEXT
 10
238.5060
 20
117.0940
 30
0.0
 40
  1.3057
 1
SMA4
 0
POLYLINE
 8
WIRE
 66
1
 10
0.0
 20
0.0
 30
0.0
 0
VERTEX
 8
WIRE
 10
302.0060
 20
131.5720
 30
0.0
 0
VERTEX
 8
WIRE
 10
302.0060
 20
139.1920
 30
0.0
 0
SEQEND
 8
WIRE
 0
POLYLINE
 8
WIRE
 66
1
 10
0.0
 20
0.0
 30
0.0
 0
VERTEX
 8
WIRE
 10
302.0060
 20
116.3320
 30
0.0
 0
VERTEX
 8
WIRE
 10
302.0060
 20
123.9520
 30
0.0
 0
SEQEND
 8
WIRE
 0
POLYLINE
 8
WIRE
 66
1
 10
0.0
 20
0.0
 30
0.0
 0
VERTEX
 8
WIRE
 10
266.4460
 20
139.1920
 30
0.0
 0
VERTEX
 8
WIRE
 10
263.9060
 20
139.1920
 30
0.0
 0
SEQEND
 8
WIRE
 0
POLYLINE
 8
WIRE
 66
1
 10
0.0
 20
0.0
 30
0.0
 0
VERTEX
 8
WIRE
 10
263.9060
 20
121.4120
 30
0.0
 0
VERTEX
 8
WIRE
 10
263.9060
 20
123.9520
 30
0.0
 0
SEQEND
 8
WIRE
 0
POLYLINE
 8
WIRE
 66
1
 70
1
 10
0.0
 20
0.0
 30
0.0
 40
  0.5080
 41
  0.5080
 0
VERTEX
 8
WIRE
 10
263.6520
 20
123.9520
 30
0.0
 42
1.0
 0
VERTEX
 8
WIRE
 10
264.1600
 20
123.9520
 30
0.0
 42
1.0
 0
SEQEND
 8
WIRE
 0
POLYLINE
 8
WIRE
 66
1
 10
0.0
 20
0.0
 30
0.0
 0
VERTEX
 8
WIRE
 10
261.3660
 20
136.6520
 30
0.0
 0
VERTEX
 8
WIRE
 10
258.8260
 20
136.6520
 30
0.0
 0
SEQEND
 8
WIRE
 0
POLYLINE
 8
WIRE
 66
1
 10
0.0
 20
0.0
 30
0.0
 0
VERTEX
 8
WIRE
 10
261.3660
 20
131.5720
 30
0.0
 0
VERTEX
 8
WIRE
 10
261.3660
 20
136.6520
 30
0.0
 0
SEQEND
 8
WIRE
 0
POLYLINE
 8
WIRE
 66
1
 10
0.0
 20
0.0
 30
0.0
 0
VERTEX
 8
WIRE
 10
266.4460
 20
131.5720
 30
0.0
 0
VERTEX
 8
WIRE
 10
261.3660
 20
131.5720
 30
0.0
 0
SEQEND
 8
WIRE
 0
POLYLINE
 8
WIRE
 66
1
 10
0.0
 20
0.0
 30
0.0
 0
VERTEX
 8
WIRE
 10
258.8260
 20
134.1120
 30
0.0
 0
VERTEX
 8
WIRE
 10
258.8260
 20
136.6520
 30
0.0
 0
SEQEND
 8
WIRE
 0
POLYLINE
 8
WIRE
 66
1
 70
1
 10
0.0
 20
0.0
 30
0.0
 40
  0.5080
 41
  0.5080
 0
VERTEX
 8
WIRE
 10
258.5720
 20
136.6520
 30
0.0
 42
1.0
 0
VERTEX
 8
WIRE
 10
259.0800
 20
136.6520
 30
0.0
 42
1.0
 0
SEQEND
 8
WIRE
 0
POLYLINE
 8
WIRE
 66
1
 10
0.0
 20
0.0
 30
0.0
 0
VERTEX
 8
WIRE
 10
263.9060
 20
121.4120
 30
0.0
 0
VERTEX
 8
WIRE
 10
258.8260
 20
121.4120
 30
0.0
 0
SEQEND
 8
WIRE
 0
POLYLINE
 8
WIRE
 66
1
 10
0.0
 20
0.0
 30
0.0
 0
VERTEX
 8
WIRE
 10
263.9060
 20
 98.5520
 30
0.0
 0
VERTEX
 8
WIRE
 10
263.9060
 20
101.0920
 30
0.0
 0
SEQEND
 8
WIRE
 0
POLYLINE
 8
WIRE
 66
1
 70
1
 10
0.0
 20
0.0
 30
0.0
 40
  0.5080
 41
  0.5080
 0
VERTEX
 8
WIRE
 10
263.6520
 20
101.0920
 30
0.0
 42
1.0
 0
VERTEX
 8
WIRE
 10
264.1600
 20
101.0920
 30
0.0
 42
1.0
 0
SEQEND
 8
WIRE
 0
POLYLINE
 8
WIRE
 66
1
 10
0.0
 20
0.0
 30
0.0
 0
VERTEX
 8
WIRE
 10
258.8260
 20
113.7920
 30
0.0
 0
VERTEX
 8
WIRE
 10
258.8260
 20
116.3320
 30
0.0
 0
SEQEND
 8
WIRE
 0
POLYLINE
 8
WIRE
 66
1
 10
0.0
 20
0.0
 30
0.0
 0
VERTEX
 8
WIRE
 10
263.9060
 20
101.0920
 30
0.0
 0
VERTEX
 8
WIRE
 10
258.8260
 20
101.0920
 30
0.0
 0
SEQEND
 8
WIRE
 0
POLYLINE
 8
WIRE
 66
1
 10
0.0
 20
0.0
 30
0.0
 0
VERTEX
 8
WIRE
 10
108.9660
 20
136.6520
 30
0.0
 0
VERTEX
 8
WIRE
 10
106.4260
 20
136.6520
 30
0.0
 0
SEQEND
 8
WIRE
 0
POLYLINE
 8
WIRE
 66
1
 10
0.0
 20
0.0
 30
0.0
 0
VERTEX
 8
WIRE
 10
106.4260
 20
131.5720
 30
0.0
 0
VERTEX
 8
WIRE
 10
106.4260
 20
136.6520
 30
0.0
 0
SEQEND
 8
WIRE
 0
POLYLINE
 8
WIRE
 66
1
 10
0.0
 20
0.0
 30
0.0
 0
VERTEX
 8
WIRE
 10
103.8860
 20
134.1120
 30
0.0
 0
VERTEX
 8
WIRE
 10
 98.8060
 20
134.1120
 30
0.0
 0
SEQEND
 8
WIRE
 0
POLYLINE
 8
WIRE
 66
1
 10
0.0
 20
0.0
 30
0.0
 0
VERTEX
 8
WIRE
 10
103.8860
 20
134.1120
 30
0.0
 0
VERTEX
 8
WIRE
 10
103.8860
 20
139.1920
 30
0.0
 0
SEQEND
 8
WIRE
 0
POLYLINE
 8
WIRE
 66
1
 10
0.0
 20
0.0
 30
0.0
 0
VERTEX
 8
WIRE
 10
108.9660
 20
139.1920
 30
0.0
 0
VERTEX
 8
WIRE
 10
103.8860
 20
139.1920
 30
0.0
 0
SEQEND
 8
WIRE
 0
POLYLINE
 8
WIRE
 66
1
 10
0.0
 20
0.0
 30
0.0
 0
VERTEX
 8
WIRE
 10
108.9660
 20
141.7320
 30
0.0
 0
VERTEX
 8
WIRE
 10
 98.8060
 20
141.7320
 30
0.0
 0
SEQEND
 8
WIRE
 0
TEXT
 8
WIRETEXT
 10
 98.8060
 20
142.4940
 30
0.0
 40
  1.3057
 1
TxD0
 0
POLYLINE
 8
WIRE
 66
1
 10
0.0
 20
0.0
 30
0.0
 0
VERTEX
 8
WIRE
 10
108.9660
 20
144.2720
 30
0.0
 0
VERTEX
 8
WIRE
 10
 98.8060
 20
144.2720
 30
0.0
 0
SEQEND
 8
WIRE
 0
TEXT
 8
WIRETEXT
 10
 98.8060
 20
145.0340
 30
0.0
 40
  1.3057
 1
RxD0
 0
POLYLINE
 8
WIRE
 66
1
 10
0.0
 20
0.0
 30
0.0
 0
VERTEX
 8
WIRE
 10
266.4460
 20
 65.5320
 30
0.0
 0
VERTEX
 8
WIRE
 10
258.8260
 20
 65.5320
 30
0.0
 0
SEQEND
 8
WIRE
 0
POLYLINE
 8
WIRE
 66
1
 70
1
 10
0.0
 20
0.0
 30
0.0
 40
  0.5080
 41
  0.5080
 0
VERTEX
 8
WIRE
 10
258.5720
 20
 65.5320
 30
0.0
 42
1.0
 0
VERTEX
 8
WIRE
 10
259.0800
 20
 65.5320
 30
0.0
 42
1.0
 0
SEQEND
 8
WIRE
 0
POLYLINE
 8
WIRE
 66
1
 10
0.0
 20
0.0
 30
0.0
 0
VERTEX
 8
WIRE
 10
246.1260
 20
 85.8520
 30
0.0
 0
VERTEX
 8
WIRE
 10
238.5060
 20
 85.8520
 30
0.0
 0
SEQEND
 8
WIRE
 0
TEXT
 8
WIRETEXT
 10
238.5060
 20
 86.6140
 30
0.0
 40
  1.3057
 1
SMA5
 0
POLYLINE
 8
WIRE
 66
1
 10
0.0
 20
0.0
 30
0.0
 0
VERTEX
 8
WIRE
 10
246.1260
 20
 65.5320
 30
0.0
 0
VERTEX
 8
WIRE
 10
238.5060
 20
 65.5320
 30
0.0
 0
SEQEND
 8
WIRE
 0
TEXT
 8
WIRETEXT
 10
238.5060
 20
 66.2940
 30
0.0
 40
  1.3057
 1
SMA6
 0
POLYLINE
 8
WIRE
 66
1
 10
0.0
 20
0.0
 30
0.0
 0
VERTEX
 8
WIRE
 10
302.0060
 20
 80.7720
 30
0.0
 0
VERTEX
 8
WIRE
 10
302.0060
 20
 88.3920
 30
0.0
 0
SEQEND
 8
WIRE
 0
POLYLINE
 8
WIRE
 66
1
 10
0.0
 20
0.0
 30
0.0
 0
VERTEX
 8
WIRE
 10
302.0060
 20
 65.5320
 30
0.0
 0
VERTEX
 8
WIRE
 10
302.0060
 20
 73.1520
 30
0.0
 0
SEQEND
 8
WIRE
 0
POLYLINE
 8
WIRE
 66
1
 10
0.0
 20
0.0
 30
0.0
 0
VERTEX
 8
WIRE
 10
266.4460
 20
 88.3920
 30
0.0
 0
VERTEX
 8
WIRE
 10
263.9060
 20
 88.3920
 30
0.0
 0
SEQEND
 8
WIRE
 0
POLYLINE
 8
WIRE
 66
1
 10
0.0
 20
0.0
 30
0.0
 0
VERTEX
 8
WIRE
 10
263.9060
 20
 70.6120
 30
0.0
 0
VERTEX
 8
WIRE
 10
263.9060
 20
 73.1520
 30
0.0
 0
SEQEND
 8
WIRE
 0
POLYLINE
 8
WIRE
 66
1
 70
1
 10
0.0
 20
0.0
 30
0.0
 40
  0.5080
 41
  0.5080
 0
VERTEX
 8
WIRE
 10
263.6520
 20
 73.1520
 30
0.0
 42
1.0
 0
VERTEX
 8
WIRE
 10
264.1600
 20
 73.1520
 30
0.0
 42
1.0
 0
SEQEND
 8
WIRE
 0
POLYLINE
 8
WIRE
 66
1
 10
0.0
 20
0.0
 30
0.0
 0
VERTEX
 8
WIRE
 10
261.3660
 20
 85.8520
 30
0.0
 0
VERTEX
 8
WIRE
 10
258.8260
 20
 85.8520
 30
0.0
 0
SEQEND
 8
WIRE
 0
POLYLINE
 8
WIRE
 66
1
 10
0.0
 20
0.0
 30
0.0
 0
VERTEX
 8
WIRE
 10
261.3660
 20
 80.7720
 30
0.0
 0
VERTEX
 8
WIRE
 10
261.3660
 20
 85.8520
 30
0.0
 0
SEQEND
 8
WIRE
 0
POLYLINE
 8
WIRE
 66
1
 10
0.0
 20
0.0
 30
0.0
 0
VERTEX
 8
WIRE
 10
266.4460
 20
 80.7720
 30
0.0
 0
VERTEX
 8
WIRE
 10
261.3660
 20
 80.7720
 30
0.0
 0
SEQEND
 8
WIRE
 0
POLYLINE
 8
WIRE
 66
1
 10
0.0
 20
0.0
 30
0.0
 0
VERTEX
 8
WIRE
 10
258.8260
 20
 83.3120
 30
0.0
 0
VERTEX
 8
WIRE
 10
258.8260
 20
 85.8520
 30
0.0
 0
SEQEND
 8
WIRE
 0
POLYLINE
 8
WIRE
 66
1
 70
1
 10
0.0
 20
0.0
 30
0.0
 40
  0.5080
 41
  0.5080
 0
VERTEX
 8
WIRE
 10
258.5720
 20
 85.8520
 30
0.0
 42
1.0
 0
VERTEX
 8
WIRE
 10
259.0800
 20
 85.8520
 30
0.0
 42
1.0
 0
SEQEND
 8
WIRE
 0
POLYLINE
 8
WIRE
 66
1
 10
0.0
 20
0.0
 30
0.0
 0
VERTEX
 8
WIRE
 10
263.9060
 20
 70.6120
 30
0.0
 0
VERTEX
 8
WIRE
 10
258.8260
 20
 70.6120
 30
0.0
 0
SEQEND
 8
WIRE
 0
POLYLINE
 8
WIRE
 66
1
 10
0.0
 20
0.0
 30
0.0
 0
VERTEX
 8
WIRE
 10
263.9060
 20
 47.7520
 30
0.0
 0
VERTEX
 8
WIRE
 10
263.9060
 20
 50.2920
 30
0.0
 0
SEQEND
 8
WIRE
 0
POLYLINE
 8
WIRE
 66
1
 70
1
 10
0.0
 20
0.0
 30
0.0
 40
  0.5080
 41
  0.5080
 0
VERTEX
 8
WIRE
 10
263.6520
 20
 50.2920
 30
0.0
 42
1.0
 0
VERTEX
 8
WIRE
 10
264.1600
 20
 50.2920
 30
0.0
 42
1.0
 0
SEQEND
 8
WIRE
 0
POLYLINE
 8
WIRE
 66
1
 10
0.0
 20
0.0
 30
0.0
 0
VERTEX
 8
WIRE
 10
258.8260
 20
 62.9920
 30
0.0
 0
VERTEX
 8
WIRE
 10
258.8260
 20
 65.5320
 30
0.0
 0
SEQEND
 8
WIRE
 0
POLYLINE
 8
WIRE
 66
1
 10
0.0
 20
0.0
 30
0.0
 0
VERTEX
 8
WIRE
 10
263.9060
 20
 50.2920
 30
0.0
 0
VERTEX
 8
WIRE
 10
258.8260
 20
 50.2920
 30
0.0
 0
SEQEND
 8
WIRE
 0
POLYLINE
 8
WIRE
 66
1
 10
0.0
 20
0.0
 30
0.0
 0
VERTEX
 8
WIRE
 10
312.1660
 20
 65.5320
 30
0.0
 0
VERTEX
 8
WIRE
 10
302.0060
 20
 65.5320
 30
0.0
 0
SEQEND
 8
WIRE
 0
POLYLINE
 8
WIRE
 66
1
 70
1
 10
0.0
 20
0.0
 30
0.0
 40
  0.5080
 41
  0.5080
 0
VERTEX
 8
WIRE
 10
301.7520
 20
 65.5320
 30
0.0
 42
1.0
 0
VERTEX
 8
WIRE
 10
302.2600
 20
 65.5320
 30
0.0
 42
1.0
 0
SEQEND
 8
WIRE
 0
POLYLINE
 8
WIRE
 66
1
 10
0.0
 20
0.0
 30
0.0
 0
VERTEX
 8
WIRE
 10
312.1660
 20
134.1120
 30
0.0
 0
VERTEX
 8
WIRE
 10
312.1660
 20
192.5320
 30
0.0
 0
SEQEND
 8
WIRE
 0
POLYLINE
 8
WIRE
 66
1
 10
0.0
 20
0.0
 30
0.0
 0
VERTEX
 8
WIRE
 10
312.1660
 20
192.5320
 30
0.0
 0
VERTEX
 8
WIRE
 10
302.0060
 20
192.5320
 30
0.0
 0
SEQEND
 8
WIRE
 0
POLYLINE
 8
WIRE
 66
1
 10
0.0
 20
0.0
 30
0.0
 0
VERTEX
 8
WIRE
 10
312.1660
 20
131.5720
 30
0.0
 0
VERTEX
 8
WIRE
 10
309.6260
 20
131.5720
 30
0.0
 0
SEQEND
 8
WIRE
 0
POLYLINE
 8
WIRE
 66
1
 10
0.0
 20
0.0
 30
0.0
 0
VERTEX
 8
WIRE
 10
309.6260
 20
131.5720
 30
0.0
 0
VERTEX
 8
WIRE
 10
309.6260
 20
177.2920
 30
0.0
 0
SEQEND
 8
WIRE
 0
POLYLINE
 8
WIRE
 66
1
 10
0.0
 20
0.0
 30
0.0
 0
VERTEX
 8
WIRE
 10
309.6260
 20
177.2920
 30
0.0
 0
VERTEX
 8
WIRE
 10
302.0060
 20
177.2920
 30
0.0
 0
SEQEND
 8
WIRE
 0
POLYLINE
 8
WIRE
 66
1
 70
1
 10
0.0
 20
0.0
 30
0.0
 40
  0.5080
 41
  0.5080
 0
VERTEX
 8
WIRE
 10
301.7520
 20
177.2920
 30
0.0
 42
1.0
 0
VERTEX
 8
WIRE
 10
302.2600
 20
177.2920
 30
0.0
 42
1.0
 0
SEQEND
 8
WIRE
 0
POLYLINE
 8
WIRE
 66
1
 10
0.0
 20
0.0
 30
0.0
 0
VERTEX
 8
WIRE
 10
312.1660
 20
 65.5320
 30
0.0
 0
VERTEX
 8
WIRE
 10
312.1660
 20
121.4120
 30
0.0
 0
SEQEND
 8
WIRE
 0
POLYLINE
 8
WIRE
 66
1
 10
0.0
 20
0.0
 30
0.0
 0
VERTEX
 8
WIRE
 10
312.1660
 20
123.9520
 30
0.0
 0
VERTEX
 8
WIRE
 10
309.6260
 20
123.9520
 30
0.0
 0
SEQEND
 8
WIRE
 0
POLYLINE
 8
WIRE
 66
1
 10
0.0
 20
0.0
 30
0.0
 0
VERTEX
 8
WIRE
 10
309.6260
 20
 80.7720
 30
0.0
 0
VERTEX
 8
WIRE
 10
309.6260
 20
123.9520
 30
0.0
 0
SEQEND
 8
WIRE
 0
POLYLINE
 8
WIRE
 66
1
 10
0.0
 20
0.0
 30
0.0
 0
VERTEX
 8
WIRE
 10
309.6260
 20
 80.7720
 30
0.0
 0
VERTEX
 8
WIRE
 10
302.0060
 20
 80.7720
 30
0.0
 0
SEQEND
 8
WIRE
 0
POLYLINE
 8
WIRE
 66
1
 70
1
 10
0.0
 20
0.0
 30
0.0
 40
  0.5080
 41
  0.5080
 0
VERTEX
 8
WIRE
 10
301.7520
 20
 80.7720
 30
0.0
 42
1.0
 0
VERTEX
 8
WIRE
 10
302.2600
 20
 80.7720
 30
0.0
 42
1.0
 0
SEQEND
 8
WIRE
 0
POLYLINE
 8
WIRE
 66
1
 10
0.0
 20
0.0
 30
0.0
 0
VERTEX
 8
WIRE
 10
312.1660
 20
129.0320
 30
0.0
 0
VERTEX
 8
WIRE
 10
307.0860
 20
129.0320
 30
0.0
 0
SEQEND
 8
WIRE
 0
POLYLINE
 8
WIRE
 66
1
 10
0.0
 20
0.0
 30
0.0
 0
VERTEX
 8
WIRE
 10
307.0860
 20
129.0320
 30
0.0
 0
VERTEX
 8
WIRE
 10
307.0860
 20
139.1920
 30
0.0
 0
SEQEND
 8
WIRE
 0
POLYLINE
 8
WIRE
 66
1
 10
0.0
 20
0.0
 30
0.0
 0
VERTEX
 8
WIRE
 10
307.0860
 20
139.1920
 30
0.0
 0
VERTEX
 8
WIRE
 10
302.0060
 20
139.1920
 30
0.0
 0
SEQEND
 8
WIRE
 0
POLYLINE
 8
WIRE
 66
1
 70
1
 10
0.0
 20
0.0
 30
0.0
 40
  0.5080
 41
  0.5080
 0
VERTEX
 8
WIRE
 10
301.7520
 20
139.1920
 30
0.0
 42
1.0
 0
VERTEX
 8
WIRE
 10
302.2600
 20
139.1920
 30
0.0
 42
1.0
 0
SEQEND
 8
WIRE
 0
POLYLINE
 8
WIRE
 66
1
 10
0.0
 20
0.0
 30
0.0
 0
VERTEX
 8
WIRE
 10
312.1660
 20
126.4920
 30
0.0
 0
VERTEX
 8
WIRE
 10
307.0860
 20
126.4920
 30
0.0
 0
SEQEND
 8
WIRE
 0
POLYLINE
 8
WIRE
 66
1
 10
0.0
 20
0.0
 30
0.0
 0
VERTEX
 8
WIRE
 10
307.0860
 20
116.3320
 30
0.0
 0
VERTEX
 8
WIRE
 10
307.0860
 20
126.4920
 30
0.0
 0
SEQEND
 8
WIRE
 0
POLYLINE
 8
WIRE
 66
1
 10
0.0
 20
0.0
 30
0.0
 0
VERTEX
 8
WIRE
 10
307.0860
 20
116.3320
 30
0.0
 0
VERTEX
 8
WIRE
 10
302.0060
 20
116.3320
 30
0.0
 0
SEQEND
 8
WIRE
 0
POLYLINE
 8
WIRE
 66
1
 70
1
 10
0.0
 20
0.0
 30
0.0
 40
  0.5080
 41
  0.5080
 0
VERTEX
 8
WIRE
 10
301.7520
 20
116.3320
 30
0.0
 42
1.0
 0
VERTEX
 8
WIRE
 10
302.2600
 20
116.3320
 30
0.0
 42
1.0
 0
SEQEND
 8
WIRE
 0
POLYLINE
 8
WIRE
 66
1
 10
0.0
 20
0.0
 30
0.0
 0
VERTEX
 8
WIRE
 10
263.9060
 20
101.0920
 30
0.0
 0
VERTEX
 8
WIRE
 10
263.9060
 20
121.4120
 30
0.0
 0
SEQEND
 8
WIRE
 0
POLYLINE
 8
WIRE
 66
1
 70
1
 10
0.0
 20
0.0
 30
0.0
 40
  0.5080
 41
  0.5080
 0
VERTEX
 8
WIRE
 10
263.6520
 20
121.4120
 30
0.0
 42
1.0
 0
VERTEX
 8
WIRE
 10
264.1600
 20
121.4120
 30
0.0
 42
1.0
 0
SEQEND
 8
WIRE
 0
POLYLINE
 8
WIRE
 66
1
 10
0.0
 20
0.0
 30
0.0
 0
VERTEX
 8
WIRE
 10
263.9060
 20
 50.2920
 30
0.0
 0
VERTEX
 8
WIRE
 10
263.9060
 20
 70.6120
 30
0.0
 0
SEQEND
 8
WIRE
 0
POLYLINE
 8
WIRE
 66
1
 70
1
 10
0.0
 20
0.0
 30
0.0
 40
  0.5080
 41
  0.5080
 0
VERTEX
 8
WIRE
 10
263.6520
 20
 70.6120
 30
0.0
 42
1.0
 0
VERTEX
 8
WIRE
 10
264.1600
 20
 70.6120
 30
0.0
 42
1.0
 0
SEQEND
 8
WIRE
 0
POLYLINE
 8
WIRE
 66
1
 10
0.0
 20
0.0
 30
0.0
 0
VERTEX
 8
WIRE
 10
263.9060
 20
154.4320
 30
0.0
 0
VERTEX
 8
WIRE
 10
263.9060
 20
174.7520
 30
0.0
 0
SEQEND
 8
WIRE
 0
POLYLINE
 8
WIRE
 66
1
 70
1
 10
0.0
 20
0.0
 30
0.0
 40
  0.5080
 41
  0.5080
 0
VERTEX
 8
WIRE
 10
263.6520
 20
174.7520
 30
0.0
 42
1.0
 0
VERTEX
 8
WIRE
 10
264.1600
 20
174.7520
 30
0.0
 42
1.0
 0
SEQEND
 8
WIRE
 0
POLYLINE
 8
WIRE
 66
1
 10
0.0
 20
0.0
 30
0.0
 0
VERTEX
 8
WIRE
 10
 55.6260
 20
172.2120
 30
0.0
 0
VERTEX
 8
WIRE
 10
 55.6260
 20
177.2920
 30
0.0
 0
SEQEND
 8
WIRE
 0
POLYLINE
 8
WIRE
 66
1
 10
0.0
 20
0.0
 30
0.0
 0
VERTEX
 8
WIRE
 10
 40.3860
 20
189.9920
 30
0.0
 0
VERTEX
 8
WIRE
 10
 40.3860
 20
192.5320
 30
0.0
 0
SEQEND
 8
WIRE
 0
POLYLINE
 8
WIRE
 66
1
 10
0.0
 20
0.0
 30
0.0
 0
VERTEX
 8
WIRE
 10
136.9060
 20
149.3520
 30
0.0
 0
VERTEX
 8
WIRE
 10
126.7460
 20
149.3520
 30
0.0
 0
SEQEND
 8
WIRE
 0
TEXT
 8
WIRETEXT
 10
126.7460
 20
150.1140
 30
0.0
 40
  1.3057
 1
SMA3
 0
POLYLINE
 8
WIRE
 66
1
 10
0.0
 20
0.0
 30
0.0
 0
VERTEX
 8
WIRE
 10
136.9060
 20
151.8920
 30
0.0
 0
VERTEX
 8
WIRE
 10
126.7460
 20
151.8920
 30
0.0
 0
SEQEND
 8
WIRE
 0
TEXT
 8
WIRETEXT
 10
126.7460
 20
152.6540
 30
0.0
 40
  1.3057
 1
SMA2
 0
POLYLINE
 8
WIRE
 66
1
 10
0.0
 20
0.0
 30
0.0
 0
VERTEX
 8
WIRE
 10
136.9060
 20
154.4320
 30
0.0
 0
VERTEX
 8
WIRE
 10
126.7460
 20
154.4320
 30
0.0
 0
SEQEND
 8
WIRE
 0
TEXT
 8
WIRETEXT
 10
126.7460
 20
155.1940
 30
0.0
 40
  1.3057
 1
SMA1
 0
POLYLINE
 8
WIRE
 66
1
 10
0.0
 20
0.0
 30
0.0
 0
VERTEX
 8
WIRE
 10
 91.1860
 20
154.4320
 30
0.0
 0
VERTEX
 8
WIRE
 10
 83.5660
 20
154.4320
 30
0.0
 0
SEQEND
 8
WIRE
 0
TEXT
 8
WIRETEXT
 10
 83.5660
 20
155.1940
 30
0.0
 40
  1.3057
 1
ADC0
 0
POLYLINE
 8
WIRE
 66
1
 10
0.0
 20
0.0
 30
0.0
 0
VERTEX
 8
WIRE
 10
 91.1860
 20
149.3520
 30
0.0
 0
VERTEX
 8
WIRE
 10
 83.5660
 20
149.3520
 30
0.0
 0
SEQEND
 8
WIRE
 0
TEXT
 8
WIRETEXT
 10
 83.5660
 20
150.1140
 30
0.0
 40
  1.3057
 1
ADC1
 0
POLYLINE
 8
WIRE
 66
1
 10
0.0
 20
0.0
 30
0.0
 0
VERTEX
 8
WIRE
 10
 91.1860
 20
144.2720
 30
0.0
 0
VERTEX
 8
WIRE
 10
 83.5660
 20
144.2720
 30
0.0
 0
SEQEND
 8
WIRE
 0
TEXT
 8
WIRETEXT
 10
 83.5660
 20
145.0340
 30
0.0
 40
  1.3057
 1
ADC2
 0
POLYLINE
 8
WIRE
 66
1
 10
0.0
 20
0.0
 30
0.0
 0
VERTEX
 8
WIRE
 10
 40.3860
 20
159.5120
 30
0.0
 0
VERTEX
 8
WIRE
 10
 35.3060
 20
159.5120
 30
0.0
 0
SEQEND
 8
WIRE
 0
POLYLINE
 8
WIRE
 66
1
 10
0.0
 20
0.0
 30
0.0
 0
VERTEX
 8
WIRE
 10
 40.3860
 20
154.4320
 30
0.0
 0
VERTEX
 8
WIRE
 10
 35.3060
 20
154.4320
 30
0.0
 0
SEQEND
 8
WIRE
 0
POLYLINE
 8
WIRE
 66
1
 10
0.0
 20
0.0
 30
0.0
 0
VERTEX
 8
WIRE
 10
 35.3060
 20
149.3520
 30
0.0
 0
VERTEX
 8
WIRE
 10
 35.3060
 20
154.4320
 30
0.0
 0
SEQEND
 8
WIRE
 0
POLYLINE
 8
WIRE
 66
1
 10
0.0
 20
0.0
 30
0.0
 0
VERTEX
 8
WIRE
 10
 40.3860
 20
139.1920
 30
0.0
 0
VERTEX
 8
WIRE
 10
 40.3860
 20
144.2720
 30
0.0
 0
SEQEND
 8
WIRE
 0
POLYLINE
 8
WIRE
 66
1
 10
0.0
 20
0.0
 30
0.0
 0
VERTEX
 8
WIRE
 10
 88.6460
 20
159.5120
 30
0.0
 0
VERTEX
 8
WIRE
 10
 83.5660
 20
159.5120
 30
0.0
 0
SEQEND
 8
WIRE
 0
POLYLINE
 8
WIRE
 66
1
 10
0.0
 20
0.0
 30
0.0
 0
VERTEX
 8
WIRE
 10
 88.6460
 20
159.5120
 30
0.0
 0
VERTEX
 8
WIRE
 10
 88.6460
 20
162.0520
 30
0.0
 0
SEQEND
 8
WIRE
 0
POLYLINE
 8
WIRE
 66
1
 10
0.0
 20
0.0
 30
0.0
 0
VERTEX
 8
WIRE
 10
 14.9860
 20
149.3520
 30
0.0
 0
VERTEX
 8
WIRE
 10
 14.9860
 20
159.5120
 30
0.0
 0
SEQEND
 8
WIRE
 0
POLYLINE
 8
WIRE
 66
1
 70
1
 10
0.0
 20
0.0
 30
0.0
 40
  0.5080
 41
  0.5080
 0
VERTEX
 8
WIRE
 10
 14.7320
 20
159.5120
 30
0.0
 42
1.0
 0
VERTEX
 8
WIRE
 10
 15.2400
 20
159.5120
 30
0.0
 42
1.0
 0
SEQEND
 8
WIRE
 0
POLYLINE
 8
WIRE
 66
1
 10
0.0
 20
0.0
 30
0.0
 0
VERTEX
 8
WIRE
 10
 50.5460
 20
172.2120
 30
0.0
 0
VERTEX
 8
WIRE
 10
 50.5460
 20
174.7520
 30
0.0
 0
SEQEND
 8
WIRE
 0
POLYLINE
 8
WIRE
 66
1
 10
0.0
 20
0.0
 30
0.0
 0
VERTEX
 8
WIRE
 10
 55.6260
 20
172.2120
 30
0.0
 0
VERTEX
 8
WIRE
 10
 50.5460
 20
172.2120
 30
0.0
 0
SEQEND
 8
WIRE
 0
POLYLINE
 8
WIRE
 66
1
 10
0.0
 20
0.0
 30
0.0
 0
VERTEX
 8
WIRE
 10
 81.0260
 20
189.9920
 30
0.0
 0
VERTEX
 8
WIRE
 10
 70.8660
 20
189.9920
 30
0.0
 0
SEQEND
 8
WIRE
 0
POLYLINE
 8
WIRE
 66
1
 70
1
 10
0.0
 20
0.0
 30
0.0
 40
  0.5080
 41
  0.5080
 0
VERTEX
 8
WIRE
 10
 70.6120
 20
189.9920
 30
0.0
 42
1.0
 0
VERTEX
 8
WIRE
 10
 71.1200
 20
189.9920
 30
0.0
 42
1.0
 0
SEQEND
 8
WIRE
 0
POLYLINE
 8
WIRE
 66
1
 10
0.0
 20
0.0
 30
0.0
 0
VERTEX
 8
WIRE
 10
 81.0260
 20
172.2120
 30
0.0
 0
VERTEX
 8
WIRE
 10
 81.0260
 20
189.9920
 30
0.0
 0
SEQEND
 8
WIRE
 0
POLYLINE
 8
WIRE
 66
1
 10
0.0
 20
0.0
 30
0.0
 0
VERTEX
 8
WIRE
 10
 70.8660
 20
172.2120
 30
0.0
 0
VERTEX
 8
WIRE
 10
 70.8660
 20
189.9920
 30
0.0
 0
SEQEND
 8
WIRE
 0
POLYLINE
 8
WIRE
 66
1
 10
0.0
 20
0.0
 30
0.0
 0
VERTEX
 8
WIRE
 10
 60.7060
 20
172.2120
 30
0.0
 0
VERTEX
 8
WIRE
 10
 55.6260
 20
172.2120
 30
0.0
 0
SEQEND
 8
WIRE
 0
POLYLINE
 8
WIRE
 66
1
 70
1
 10
0.0
 20
0.0
 30
0.0
 40
  0.5080
 41
  0.5080
 0
VERTEX
 8
WIRE
 10
 55.3720
 20
172.2120
 30
0.0
 42
1.0
 0
VERTEX
 8
WIRE
 10
 55.8800
 20
172.2120
 30
0.0
 42
1.0
 0
SEQEND
 8
WIRE
 0
POLYLINE
 8
WIRE
 66
1
 10
0.0
 20
0.0
 30
0.0
 0
VERTEX
 8
WIRE
 10
 70.8660
 20
172.2120
 30
0.0
 0
VERTEX
 8
WIRE
 10
 68.3260
 20
172.2120
 30
0.0
 0
SEQEND
 8
WIRE
 0
POLYLINE
 8
WIRE
 66
1
 10
0.0
 20
0.0
 30
0.0
 0
VERTEX
 8
WIRE
 10
136.9060
 20
103.6320
 30
0.0
 0
VERTEX
 8
WIRE
 10
126.7460
 20
103.6320
 30
0.0
 0
SEQEND
 8
WIRE
 0
TEXT
 8
WIRETEXT
 10
126.7460
 20
104.3940
 30
0.0
 40
  1.3057
 1
RESET
 0
POLYLINE
 8
WIRE
 66
1
 10
0.0
 20
0.0
 30
0.0
 0
VERTEX
 8
WIRE
 10
 14.9860
 20
159.5120
 30
0.0
 0
VERTEX
 8
WIRE
 10
 14.9860
 20
164.5920
 30
0.0
 0
SEQEND
 8
WIRE
 0
POLYLINE
 8
WIRE
 66
1
 10
0.0
 20
0.0
 30
0.0
 0
VERTEX
 8
WIRE
 10
136.9060
 20
103.6320
 30
0.0
 0
VERTEX
 8
WIRE
 10
136.9060
 20
106.1720
 30
0.0
 0
SEQEND
 8
WIRE
 0
POLYLINE
 8
WIRE
 66
1
 10
0.0
 20
0.0
 30
0.0
 0
VERTEX
 8
WIRE
 10
266.4460
 20
177.2920
 30
0.0
 0
VERTEX
 8
WIRE
 10
263.9060
 20
177.2920
 30
0.0
 0
SEQEND
 8
WIRE
 0
POLYLINE
 8
WIRE
 66
1
 10
0.0
 20
0.0
 30
0.0
 0
VERTEX
 8
WIRE
 10
263.9060
 20
177.2920
 30
0.0
 0
VERTEX
 8
WIRE
 10
263.9060
 20
192.5320
 30
0.0
 0
SEQEND
 8
WIRE
 0
POLYLINE
 8
WIRE
 66
1
 10
0.0
 20
0.0
 30
0.0
 0
VERTEX
 8
WIRE
 10
266.4460
 20
123.9520
 30
0.0
 0
VERTEX
 8
WIRE
 10
263.9060
 20
123.9520
 30
0.0
 0
SEQEND
 8
WIRE
 0
POLYLINE
 8
WIRE
 66
1
 10
0.0
 20
0.0
 30
0.0
 0
VERTEX
 8
WIRE
 10
263.9060
 20
123.9520
 30
0.0
 0
VERTEX
 8
WIRE
 10
263.9060
 20
139.1920
 30
0.0
 0
SEQEND
 8
WIRE
 0
POLYLINE
 8
WIRE
 66
1
 10
0.0
 20
0.0
 30
0.0
 0
VERTEX
 8
WIRE
 10
266.4460
 20
 73.1520
 30
0.0
 0
VERTEX
 8
WIRE
 10
263.9060
 20
 73.1520
 30
0.0
 0
SEQEND
 8
WIRE
 0
POLYLINE
 8
WIRE
 66
1
 10
0.0
 20
0.0
 30
0.0
 0
VERTEX
 8
WIRE
 10
263.9060
 20
 73.1520
 30
0.0
 0
VERTEX
 8
WIRE
 10
263.9060
 20
 88.3920
 30
0.0
 0
SEQEND
 8
WIRE
 0
POLYLINE
 8
PARTS
 66
1
 10
0.0
 20
0.0
 30
0.0
 0
VERTEX
 8
PARTS
 10
114.0460
 20
159.5120
 30
0.0
 0
VERTEX
 8
PARTS
 10
119.1260
 20
159.5120
 30
0.0
 0
SEQEND
 8
PARTS
 0
POLYLINE
 8
PARTS
 66
1
 10
0.0
 20
0.0
 30
0.0
 0
VERTEX
 8
PARTS
 10
114.8080
 20
158.7500
 30
0.0
 0
VERTEX
 8
PARTS
 10
118.3640
 20
158.7500
 30
0.0
 0
SEQEND
 8
PARTS
 0
POLYLINE
 8
PARTS
 66
1
 10
0.0
 20
0.0
 30
0.0
 0
VERTEX
 8
PARTS
 10
117.6020
 20
157.9880
 30
0.0
 0
VERTEX
 8
PARTS
 10
115.5700
 20
157.9880
 30
0.0
 0
SEQEND
 8
PARTS
 0
POLYLINE
 8
PARTS
 66
1
 10
0.0
 20
0.0
 30
0.0
 0
VERTEX
 8
PARTS
 10
116.3320
 20
157.2260
 30
0.0
 0
VERTEX
 8
PARTS
 10
116.8400
 20
157.2260
 30
0.0
 0
SEQEND
 8
PARTS
 0
TEXT
 8
PARTTEXT
 10
114.0460
 20
196.2763
 30
0.0
 40
  1.3057
 1
VCC
 0
POLYLINE
 8
PARTS
 66
1
 10
0.0
 20
0.0
 30
0.0
 0
VERTEX
 8
PARTS
 10
116.5860
 20
193.5480
 30
0.0
 0
VERTEX
 8
PARTS
 10
116.5860
 20
192.5320
 30
0.0
 0
SEQEND
 8
PARTS
 0
POLYLINE
 8
PARTS
 66
1
 70
1
 10
0.0
 20
0.0
 30
0.0
 0
VERTEX
 8
PARTS
 10
117.3480
 20
194.3100
 30
0.0
 42
  0.0985
 0
VERTEX
 8
PARTS
 10
117.2900
 20
194.6016
 30
0.0
 42
  0.0985
 0
VERTEX
 8
PARTS
 10
117.1248
 20
194.8488
 30
0.0
 42
  0.0985
 0
VERTEX
 8
PARTS
 10
116.8776
 20
195.0140
 30
0.0
 42
  0.0985
 0
VERTEX
 8
PARTS
 10
116.5860
 20
195.0720
 30
0.0
 42
  0.0985
 0
VERTEX
 8
PARTS
 10
116.2944
 20
195.0140
 30
0.0
 42
  0.0985
 0
VERTEX
 8
PARTS
 10
116.0472
 20
194.8488
 30
0.0
 42
  0.0985
 0
VERTEX
 8
PARTS
 10
115.8820
 20
194.6016
 30
0.0
 42
  0.0985
 0
VERTEX
 8
PARTS
 10
115.8240
 20
194.3100
 30
0.0
 42
  0.0985
 0
VERTEX
 8
PARTS
 10
115.8820
 20
194.0184
 30
0.0
 42
  0.0985
 0
VERTEX
 8
PARTS
 10
116.0472
 20
193.7712
 30
0.0
 42
  0.0985
 0
VERTEX
 8
PARTS
 10
116.2944
 20
193.6060
 30
0.0
 42
  0.0985
 0
VERTEX
 8
PARTS
 10
116.5860
 20
193.5480
 30
0.0
 42
  0.0985
 0
VERTEX
 8
PARTS
 10
116.8776
 20
193.6060
 30
0.0
 42
  0.0985
 0
VERTEX
 8
PARTS
 10
117.1248
 20
193.7712
 30
0.0
 42
  0.0985
 0
VERTEX
 8
PARTS
 10
117.2900
 20
194.0184
 30
0.0
 42
  0.0985
 0
SEQEND
 8
PARTS
 0
TEXT
 8
PARTTEXT
 10
223.2660
 20
188.6563
 30
0.0
 40
  1.3057
 1
VCC
 0
POLYLINE
 8
PARTS
 66
1
 10
0.0
 20
0.0
 30
0.0
 0
VERTEX
 8
PARTS
 10
225.8060
 20
185.9280
 30
0.0
 0
VERTEX
 8
PARTS
 10
225.8060
 20
184.9120
 30
0.0
 0
SEQEND
 8
PARTS
 0
POLYLINE
 8
PARTS
 66
1
 70
1
 10
0.0
 20
0.0
 30
0.0
 0
VERTEX
 8
PARTS
 10
226.5680
 20
186.6900
 30
0.0
 42
  0.0985
 0
VERTEX
 8
PARTS
 10
226.5100
 20
186.9816
 30
0.0
 42
  0.0985
 0
VERTEX
 8
PARTS
 10
226.3448
 20
187.2288
 30
0.0
 42
  0.0985
 0
VERTEX
 8
PARTS
 10
226.0976
 20
187.3940
 30
0.0
 42
  0.0985
 0
VERTEX
 8
PARTS
 10
225.8060
 20
187.4520
 30
0.0
 42
  0.0985
 0
VERTEX
 8
PARTS
 10
225.5144
 20
187.3940
 30
0.0
 42
  0.0985
 0
VERTEX
 8
PARTS
 10
225.2672
 20
187.2288
 30
0.0
 42
  0.0985
 0
VERTEX
 8
PARTS
 10
225.1020
 20
186.9816
 30
0.0
 42
  0.0985
 0
VERTEX
 8
PARTS
 10
225.0440
 20
186.6900
 30
0.0
 42
  0.0985
 0
VERTEX
 8
PARTS
 10
225.1020
 20
186.3984
 30
0.0
 42
  0.0985
 0
VERTEX
 8
PARTS
 10
225.2672
 20
186.1512
 30
0.0
 42
  0.0985
 0
VERTEX
 8
PARTS
 10
225.5144
 20
185.9860
 30
0.0
 42
  0.0985
 0
VERTEX
 8
PARTS
 10
225.8060
 20
185.9280
 30
0.0
 42
  0.0985
 0
VERTEX
 8
PARTS
 10
226.0976
 20
185.9860
 30
0.0
 42
  0.0985
 0
VERTEX
 8
PARTS
 10
226.3448
 20
186.1512
 30
0.0
 42
  0.0985
 0
VERTEX
 8
PARTS
 10
226.5100
 20
186.3984
 30
0.0
 42
  0.0985
 0
SEQEND
 8
PARTS
 0
POLYLINE
 8
PARTS
 66
1
 10
0.0
 20
0.0
 30
0.0
 0
VERTEX
 8
PARTS
 10
126.7460
 20
 96.0120
 30
0.0
 0
VERTEX
 8
PARTS
 10
131.8260
 20
 96.0120
 30
0.0
 0
SEQEND
 8
PARTS
 0
POLYLINE
 8
PARTS
 66
1
 10
0.0
 20
0.0
 30
0.0
 0
VERTEX
 8
PARTS
 10
127.5080
 20
 95.2500
 30
0.0
 0
VERTEX
 8
PARTS
 10
131.0640
 20
 95.2500
 30
0.0
 0
SEQEND
 8
PARTS
 0
POLYLINE
 8
PARTS
 66
1
 10
0.0
 20
0.0
 30
0.0
 0
VERTEX
 8
PARTS
 10
130.3020
 20
 94.4880
 30
0.0
 0
VERTEX
 8
PARTS
 10
128.2700
 20
 94.4880
 30
0.0
 0
SEQEND
 8
PARTS
 0
POLYLINE
 8
PARTS
 66
1
 10
0.0
 20
0.0
 30
0.0
 0
VERTEX
 8
PARTS
 10
129.0320
 20
 93.7260
 30
0.0
 0
VERTEX
 8
PARTS
 10
129.5400
 20
 93.7260
 30
0.0
 0
SEQEND
 8
PARTS
 0
POLYLINE
 8
PARTS
 66
1
 10
0.0
 20
0.0
 30
0.0
 0
VERTEX
 8
PARTS
 10
103.8860
 20
 98.5520
 30
0.0
 0
VERTEX
 8
PARTS
 10
108.9660
 20
 98.5520
 30
0.0
 0
SEQEND
 8
PARTS
 0
POLYLINE
 8
PARTS
 66
1
 10
0.0
 20
0.0
 30
0.0
 0
VERTEX
 8
PARTS
 10
104.6480
 20
 97.7900
 30
0.0
 0
VERTEX
 8
PARTS
 10
108.2040
 20
 97.7900
 30
0.0
 0
SEQEND
 8
PARTS
 0
POLYLINE
 8
PARTS
 66
1
 10
0.0
 20
0.0
 30
0.0
 0
VERTEX
 8
PARTS
 10
107.4420
 20
 97.0280
 30
0.0
 0
VERTEX
 8
PARTS
 10
105.4100
 20
 97.0280
 30
0.0
 0
SEQEND
 8
PARTS
 0
POLYLINE
 8
PARTS
 66
1
 10
0.0
 20
0.0
 30
0.0
 0
VERTEX
 8
PARTS
 10
106.1720
 20
 96.2660
 30
0.0
 0
VERTEX
 8
PARTS
 10
106.6800
 20
 96.2660
 30
0.0
 0
SEQEND
 8
PARTS
 0
POLYLINE
 8
PARTS
 66
1
 10
0.0
 20
0.0
 30
0.0
 0
VERTEX
 8
PARTS
 10
114.0460
 20
 68.0720
 30
0.0
 0
VERTEX
 8
PARTS
 10
119.1260
 20
 68.0720
 30
0.0
 0
SEQEND
 8
PARTS
 0
POLYLINE
 8
PARTS
 66
1
 10
0.0
 20
0.0
 30
0.0
 0
VERTEX
 8
PARTS
 10
114.8080
 20
 67.3100
 30
0.0
 0
VERTEX
 8
PARTS
 10
118.3640
 20
 67.3100
 30
0.0
 0
SEQEND
 8
PARTS
 0
POLYLINE
 8
PARTS
 66
1
 10
0.0
 20
0.0
 30
0.0
 0
VERTEX
 8
PARTS
 10
117.6020
 20
 66.5480
 30
0.0
 0
VERTEX
 8
PARTS
 10
115.5700
 20
 66.5480
 30
0.0
 0
SEQEND
 8
PARTS
 0
POLYLINE
 8
PARTS
 66
1
 10
0.0
 20
0.0
 30
0.0
 0
VERTEX
 8
PARTS
 10
116.3320
 20
 65.7860
 30
0.0
 0
VERTEX
 8
PARTS
 10
116.8400
 20
 65.7860
 30
0.0
 0
SEQEND
 8
PARTS
 0
POLYLINE
 8
PARTS
 66
1
 10
0.0
 20
0.0
 30
0.0
 0
VERTEX
 8
PARTS
 10
187.7060
 20
 60.4520
 30
0.0
 0
VERTEX
 8
PARTS
 10
192.7860
 20
 60.4520
 30
0.0
 0
SEQEND
 8
PARTS
 0
POLYLINE
 8
PARTS
 66
1
 10
0.0
 20
0.0
 30
0.0
 0
VERTEX
 8
PARTS
 10
188.4680
 20
 59.6900
 30
0.0
 0
VERTEX
 8
PARTS
 10
192.0240
 20
 59.6900
 30
0.0
 0
SEQEND
 8
PARTS
 0
POLYLINE
 8
PARTS
 66
1
 10
0.0
 20
0.0
 30
0.0
 0
VERTEX
 8
PARTS
 10
191.2620
 20
 58.9280
 30
0.0
 0
VERTEX
 8
PARTS
 10
189.2300
 20
 58.9280
 30
0.0
 0
SEQEND
 8
PARTS
 0
POLYLINE
 8
PARTS
 66
1
 10
0.0
 20
0.0
 30
0.0
 0
VERTEX
 8
PARTS
 10
189.9920
 20
 58.1660
 30
0.0
 0
VERTEX
 8
PARTS
 10
190.5000
 20
 58.1660
 30
0.0
 0
SEQEND
 8
PARTS
 0
TEXT
 8
PARTTEXT
 10
147.0660
 20
 84.5163
 30
0.0
 40
  1.3057
 1
12V
 0
POLYLINE
 8
PARTS
 66
1
 10
0.0
 20
0.0
 30
0.0
 0
VERTEX
 8
PARTS
 10
149.6060
 20
 81.7880
 30
0.0
 0
VERTEX
 8
PARTS
 10
149.6060
 20
 80.7720
 30
0.0
 0
SEQEND
 8
PARTS
 0
POLYLINE
 8
PARTS
 66
1
 70
1
 10
0.0
 20
0.0
 30
0.0
 0
VERTEX
 8
PARTS
 10
150.3680
 20
 82.5500
 30
0.0
 42
  0.0985
 0
VERTEX
 8
PARTS
 10
150.3100
 20
 82.8416
 30
0.0
 42
  0.0985
 0
VERTEX
 8
PARTS
 10
150.1448
 20
 83.0888
 30
0.0
 42
  0.0985
 0
VERTEX
 8
PARTS
 10
149.8976
 20
 83.2540
 30
0.0
 42
  0.0985
 0
VERTEX
 8
PARTS
 10
149.6060
 20
 83.3120
 30
0.0
 42
  0.0985
 0
VERTEX
 8
PARTS
 10
149.3144
 20
 83.2540
 30
0.0
 42
  0.0985
 0
VERTEX
 8
PARTS
 10
149.0672
 20
 83.0888
 30
0.0
 42
  0.0985
 0
VERTEX
 8
PARTS
 10
148.9020
 20
 82.8416
 30
0.0
 42
  0.0985
 0
VERTEX
 8
PARTS
 10
148.8440
 20
 82.5500
 30
0.0
 42
  0.0985
 0
VERTEX
 8
PARTS
 10
148.9020
 20
 82.2584
 30
0.0
 42
  0.0985
 0
VERTEX
 8
PARTS
 10
149.0672
 20
 82.0112
 30
0.0
 42
  0.0985
 0
VERTEX
 8
PARTS
 10
149.3144
 20
 81.8460
 30
0.0
 42
  0.0985
 0
VERTEX
 8
PARTS
 10
149.6060
 20
 81.7880
 30
0.0
 42
  0.0985
 0
VERTEX
 8
PARTS
 10
149.8976
 20
 81.8460
 30
0.0
 42
  0.0985
 0
VERTEX
 8
PARTS
 10
150.1448
 20
 82.0112
 30
0.0
 42
  0.0985
 0
VERTEX
 8
PARTS
 10
150.3100
 20
 82.2584
 30
0.0
 42
  0.0985
 0
SEQEND
 8
PARTS
 0
TEXT
 8
PARTTEXT
 10
225.8060
 20
 81.9763
 30
0.0
 40
  1.3057
 1
VCC
 0
POLYLINE
 8
PARTS
 66
1
 10
0.0
 20
0.0
 30
0.0
 0
VERTEX
 8
PARTS
 10
228.3460
 20
 79.2480
 30
0.0
 0
VERTEX
 8
PARTS
 10
228.3460
 20
 78.2320
 30
0.0
 0
SEQEND
 8
PARTS
 0
POLYLINE
 8
PARTS
 66
1
 70
1
 10
0.0
 20
0.0
 30
0.0
 0
VERTEX
 8
PARTS
 10
229.1080
 20
 80.0100
 30
0.0
 42
  0.0985
 0
VERTEX
 8
PARTS
 10
229.0500
 20
 80.3016
 30
0.0
 42
  0.0985
 0
VERTEX
 8
PARTS
 10
228.8848
 20
 80.5488
 30
0.0
 42
  0.0985
 0
VERTEX
 8
PARTS
 10
228.6376
 20
 80.7140
 30
0.0
 42
  0.0985
 0
VERTEX
 8
PARTS
 10
228.3460
 20
 80.7720
 30
0.0
 42
  0.0985
 0
VERTEX
 8
PARTS
 10
228.0544
 20
 80.7140
 30
0.0
 42
  0.0985
 0
VERTEX
 8
PARTS
 10
227.8072
 20
 80.5488
 30
0.0
 42
  0.0985
 0
VERTEX
 8
PARTS
 10
227.6420
 20
 80.3016
 30
0.0
 42
  0.0985
 0
VERTEX
 8
PARTS
 10
227.5840
 20
 80.0100
 30
0.0
 42
  0.0985
 0
VERTEX
 8
PARTS
 10
227.6420
 20
 79.7184
 30
0.0
 42
  0.0985
 0
VERTEX
 8
PARTS
 10
227.8072
 20
 79.4712
 30
0.0
 42
  0.0985
 0
VERTEX
 8
PARTS
 10
228.0544
 20
 79.3060
 30
0.0
 42
  0.0985
 0
VERTEX
 8
PARTS
 10
228.3460
 20
 79.2480
 30
0.0
 42
  0.0985
 0
VERTEX
 8
PARTS
 10
228.6376
 20
 79.3060
 30
0.0
 42
  0.0985
 0
VERTEX
 8
PARTS
 10
228.8848
 20
 79.4712
 30
0.0
 42
  0.0985
 0
VERTEX
 8
PARTS
 10
229.0500
 20
 79.7184
 30
0.0
 42
  0.0985
 0
SEQEND
 8
PARTS
 0
POLYLINE
 8
PARTS
 66
1
 10
0.0
 20
0.0
 30
0.0
 0
VERTEX
 8
PARTS
 10
185.1660
 20
 47.7520
 30
0.0
 0
VERTEX
 8
PARTS
 10
190.2460
 20
 47.7520
 30
0.0
 0
SEQEND
 8
PARTS
 0
POLYLINE
 8
PARTS
 66
1
 10
0.0
 20
0.0
 30
0.0
 0
VERTEX
 8
PARTS
 10
185.9280
 20
 46.9900
 30
0.0
 0
VERTEX
 8
PARTS
 10
189.4840
 20
 46.9900
 30
0.0
 0
SEQEND
 8
PARTS
 0
POLYLINE
 8
PARTS
 66
1
 10
0.0
 20
0.0
 30
0.0
 0
VERTEX
 8
PARTS
 10
188.7220
 20
 46.2280
 30
0.0
 0
VERTEX
 8
PARTS
 10
186.6900
 20
 46.2280
 30
0.0
 0
SEQEND
 8
PARTS
 0
POLYLINE
 8
PARTS
 66
1
 10
0.0
 20
0.0
 30
0.0
 0
VERTEX
 8
PARTS
 10
187.4520
 20
 45.4660
 30
0.0
 0
VERTEX
 8
PARTS
 10
187.9600
 20
 45.4660
 30
0.0
 0
SEQEND
 8
PARTS
 0
POLYLINE
 8
PARTS
 66
1
 10
0.0
 20
0.0
 30
0.0
 0
VERTEX
 8
PARTS
 10
136.9060
 20
 62.9920
 30
0.0
 0
VERTEX
 8
PARTS
 10
141.9860
 20
 62.9920
 30
0.0
 0
SEQEND
 8
PARTS
 0
POLYLINE
 8
PARTS
 66
1
 10
0.0
 20
0.0
 30
0.0
 0
VERTEX
 8
PARTS
 10
137.6680
 20
 62.2300
 30
0.0
 0
VERTEX
 8
PARTS
 10
141.2240
 20
 62.2300
 30
0.0
 0
SEQEND
 8
PARTS
 0
POLYLINE
 8
PARTS
 66
1
 10
0.0
 20
0.0
 30
0.0
 0
VERTEX
 8
PARTS
 10
140.4620
 20
 61.4680
 30
0.0
 0
VERTEX
 8
PARTS
 10
138.4300
 20
 61.4680
 30
0.0
 0
SEQEND
 8
PARTS
 0
POLYLINE
 8
PARTS
 66
1
 10
0.0
 20
0.0
 30
0.0
 0
VERTEX
 8
PARTS
 10
139.1920
 20
 60.7060
 30
0.0
 0
VERTEX
 8
PARTS
 10
139.7000
 20
 60.7060
 30
0.0
 0
SEQEND
 8
PARTS
 0
POLYLINE
 8
PARTS
 66
1
 10
0.0
 20
0.0
 30
0.0
 0
VERTEX
 8
PARTS
 10
261.3660
 20
151.8920
 30
0.0
 0
VERTEX
 8
PARTS
 10
266.4460
 20
151.8920
 30
0.0
 0
SEQEND
 8
PARTS
 0
POLYLINE
 8
PARTS
 66
1
 10
0.0
 20
0.0
 30
0.0
 0
VERTEX
 8
PARTS
 10
262.1280
 20
151.1300
 30
0.0
 0
VERTEX
 8
PARTS
 10
265.6840
 20
151.1300
 30
0.0
 0
SEQEND
 8
PARTS
 0
POLYLINE
 8
PARTS
 66
1
 10
0.0
 20
0.0
 30
0.0
 0
VERTEX
 8
PARTS
 10
264.9220
 20
150.3680
 30
0.0
 0
VERTEX
 8
PARTS
 10
262.8900
 20
150.3680
 30
0.0
 0
SEQEND
 8
PARTS
 0
POLYLINE
 8
PARTS
 66
1
 10
0.0
 20
0.0
 30
0.0
 0
VERTEX
 8
PARTS
 10
263.6520
 20
149.6060
 30
0.0
 0
VERTEX
 8
PARTS
 10
264.1600
 20
149.6060
 30
0.0
 0
SEQEND
 8
PARTS
 0
POLYLINE
 8
PARTS
 66
1
 10
0.0
 20
0.0
 30
0.0
 0
VERTEX
 8
PARTS
 10
261.3660
 20
 98.5520
 30
0.0
 0
VERTEX
 8
PARTS
 10
266.4460
 20
 98.5520
 30
0.0
 0
SEQEND
 8
PARTS
 0
POLYLINE
 8
PARTS
 66
1
 10
0.0
 20
0.0
 30
0.0
 0
VERTEX
 8
PARTS
 10
262.1280
 20
 97.7900
 30
0.0
 0
VERTEX
 8
PARTS
 10
265.6840
 20
 97.7900
 30
0.0
 0
SEQEND
 8
PARTS
 0
POLYLINE
 8
PARTS
 66
1
 10
0.0
 20
0.0
 30
0.0
 0
VERTEX
 8
PARTS
 10
264.9220
 20
 97.0280
 30
0.0
 0
VERTEX
 8
PARTS
 10
262.8900
 20
 97.0280
 30
0.0
 0
SEQEND
 8
PARTS
 0
POLYLINE
 8
PARTS
 66
1
 10
0.0
 20
0.0
 30
0.0
 0
VERTEX
 8
PARTS
 10
263.6520
 20
 96.2660
 30
0.0
 0
VERTEX
 8
PARTS
 10
264.1600
 20
 96.2660
 30
0.0
 0
SEQEND
 8
PARTS
 0
POLYLINE
 8
PARTS
 66
1
 10
0.0
 20
0.0
 30
0.0
 0
VERTEX
 8
PARTS
 10
103.8860
 20
131.5720
 30
0.0
 0
VERTEX
 8
PARTS
 10
108.9660
 20
131.5720
 30
0.0
 0
SEQEND
 8
PARTS
 0
POLYLINE
 8
PARTS
 66
1
 10
0.0
 20
0.0
 30
0.0
 0
VERTEX
 8
PARTS
 10
104.6480
 20
130.8100
 30
0.0
 0
VERTEX
 8
PARTS
 10
108.2040
 20
130.8100
 30
0.0
 0
SEQEND
 8
PARTS
 0
POLYLINE
 8
PARTS
 66
1
 10
0.0
 20
0.0
 30
0.0
 0
VERTEX
 8
PARTS
 10
107.4420
 20
130.0480
 30
0.0
 0
VERTEX
 8
PARTS
 10
105.4100
 20
130.0480
 30
0.0
 0
SEQEND
 8
PARTS
 0
POLYLINE
 8
PARTS
 66
1
 10
0.0
 20
0.0
 30
0.0
 0
VERTEX
 8
PARTS
 10
106.1720
 20
129.2860
 30
0.0
 0
VERTEX
 8
PARTS
 10
106.6800
 20
129.2860
 30
0.0
 0
SEQEND
 8
PARTS
 0
TEXT
 8
PARTTEXT
 10
 98.8060
 20
137.8563
 30
0.0
 40
  1.3057
 1
VCC
 0
POLYLINE
 8
PARTS
 66
1
 10
0.0
 20
0.0
 30
0.0
 0
VERTEX
 8
PARTS
 10
 98.8060
 20
135.1280
 30
0.0
 0
VERTEX
 8
PARTS
 10
 98.8060
 20
134.1120
 30
0.0
 0
SEQEND
 8
PARTS
 0
POLYLINE
 8
PARTS
 66
1
 70
1
 10
0.0
 20
0.0
 30
0.0
 0
VERTEX
 8
PARTS
 10
 99.5680
 20
135.8900
 30
0.0
 42
  0.0985
 0
VERTEX
 8
PARTS
 10
 99.5100
 20
136.1816
 30
0.0
 42
  0.0985
 0
VERTEX
 8
PARTS
 10
 99.3448
 20
136.4288
 30
0.0
 42
  0.0985
 0
VERTEX
 8
PARTS
 10
 99.0976
 20
136.5940
 30
0.0
 42
  0.0985
 0
VERTEX
 8
PARTS
 10
 98.8060
 20
136.6520
 30
0.0
 42
  0.0985
 0
VERTEX
 8
PARTS
 10
 98.5144
 20
136.5940
 30
0.0
 42
  0.0985
 0
VERTEX
 8
PARTS
 10
 98.2672
 20
136.4288
 30
0.0
 42
  0.0985
 0
VERTEX
 8
PARTS
 10
 98.1020
 20
136.1816
 30
0.0
 42
  0.0985
 0
VERTEX
 8
PARTS
 10
 98.0440
 20
135.8900
 30
0.0
 42
  0.0985
 0
VERTEX
 8
PARTS
 10
 98.1020
 20
135.5984
 30
0.0
 42
  0.0985
 0
VERTEX
 8
PARTS
 10
 98.2672
 20
135.3512
 30
0.0
 42
  0.0985
 0
VERTEX
 8
PARTS
 10
 98.5144
 20
135.1860
 30
0.0
 42
  0.0985
 0
VERTEX
 8
PARTS
 10
 98.8060
 20
135.1280
 30
0.0
 42
  0.0985
 0
VERTEX
 8
PARTS
 10
 99.0976
 20
135.1860
 30
0.0
 42
  0.0985
 0
VERTEX
 8
PARTS
 10
 99.3448
 20
135.3512
 30
0.0
 42
  0.0985
 0
VERTEX
 8
PARTS
 10
 99.5100
 20
135.5984
 30
0.0
 42
  0.0985
 0
SEQEND
 8
PARTS
 0
POLYLINE
 8
PARTS
 66
1
 10
0.0
 20
0.0
 30
0.0
 0
VERTEX
 8
PARTS
 10
261.3660
 20
 47.7520
 30
0.0
 0
VERTEX
 8
PARTS
 10
266.4460
 20
 47.7520
 30
0.0
 0
SEQEND
 8
PARTS
 0
POLYLINE
 8
PARTS
 66
1
 10
0.0
 20
0.0
 30
0.0
 0
VERTEX
 8
PARTS
 10
262.1280
 20
 46.9900
 30
0.0
 0
VERTEX
 8
PARTS
 10
265.6840
 20
 46.9900
 30
0.0
 0
SEQEND
 8
PARTS
 0
POLYLINE
 8
PARTS
 66
1
 10
0.0
 20
0.0
 30
0.0
 0
VERTEX
 8
PARTS
 10
264.9220
 20
 46.2280
 30
0.0
 0
VERTEX
 8
PARTS
 10
262.8900
 20
 46.2280
 30
0.0
 0
SEQEND
 8
PARTS
 0
POLYLINE
 8
PARTS
 66
1
 10
0.0
 20
0.0
 30
0.0
 0
VERTEX
 8
PARTS
 10
263.6520
 20
 45.4660
 30
0.0
 0
VERTEX
 8
PARTS
 10
264.1600
 20
 45.4660
 30
0.0
 0
SEQEND
 8
PARTS
 0
TEXT
 8
PARTTEXT
 10
 37.8460
 20
196.2763
 30
0.0
 40
  1.3057
 1
VCC
 0
POLYLINE
 8
PARTS
 66
1
 10
0.0
 20
0.0
 30
0.0
 0
VERTEX
 8
PARTS
 10
 40.3860
 20
193.5480
 30
0.0
 0
VERTEX
 8
PARTS
 10
 40.3860
 20
192.5320
 30
0.0
 0
SEQEND
 8
PARTS
 0
POLYLINE
 8
PARTS
 66
1
 70
1
 10
0.0
 20
0.0
 30
0.0
 0
VERTEX
 8
PARTS
 10
 41.1480
 20
194.3100
 30
0.0
 42
  0.0985
 0
VERTEX
 8
PARTS
 10
 41.0900
 20
194.6016
 30
0.0
 42
  0.0985
 0
VERTEX
 8
PARTS
 10
 40.9248
 20
194.8488
 30
0.0
 42
  0.0985
 0
VERTEX
 8
PARTS
 10
 40.6776
 20
195.0140
 30
0.0
 42
  0.0985
 0
VERTEX
 8
PARTS
 10
 40.3860
 20
195.0720
 30
0.0
 42
  0.0985
 0
VERTEX
 8
PARTS
 10
 40.0944
 20
195.0140
 30
0.0
 42
  0.0985
 0
VERTEX
 8
PARTS
 10
 39.8472
 20
194.8488
 30
0.0
 42
  0.0985
 0
VERTEX
 8
PARTS
 10
 39.6820
 20
194.6016
 30
0.0
 42
  0.0985
 0
VERTEX
 8
PARTS
 10
 39.6240
 20
194.3100
 30
0.0
 42
  0.0985
 0
VERTEX
 8
PARTS
 10
 39.6820
 20
194.0184
 30
0.0
 42
  0.0985
 0
VERTEX
 8
PARTS
 10
 39.8472
 20
193.7712
 30
0.0
 42
  0.0985
 0
VERTEX
 8
PARTS
 10
 40.0944
 20
193.6060
 30
0.0
 42
  0.0985
 0
VERTEX
 8
PARTS
 10
 40.3860
 20
193.5480
 30
0.0
 42
  0.0985
 0
VERTEX
 8
PARTS
 10
 40.6776
 20
193.6060
 30
0.0
 42
  0.0985
 0
VERTEX
 8
PARTS
 10
 40.9248
 20
193.7712
 30
0.0
 42
  0.0985
 0
VERTEX
 8
PARTS
 10
 41.0900
 20
194.0184
 30
0.0
 42
  0.0985
 0
SEQEND
 8
PARTS
 0
POLYLINE
 8
PARTS
 66
1
 10
0.0
 20
0.0
 30
0.0
 0
VERTEX
 8
PARTS
 10
 37.8460
 20
139.1920
 30
0.0
 0
VERTEX
 8
PARTS
 10
 42.9260
 20
139.1920
 30
0.0
 0
SEQEND
 8
PARTS
 0
POLYLINE
 8
PARTS
 66
1
 10
0.0
 20
0.0
 30
0.0
 0
VERTEX
 8
PARTS
 10
 38.6080
 20
138.4300
 30
0.0
 0
VERTEX
 8
PARTS
 10
 42.1640
 20
138.4300
 30
0.0
 0
SEQEND
 8
PARTS
 0
POLYLINE
 8
PARTS
 66
1
 10
0.0
 20
0.0
 30
0.0
 0
VERTEX
 8
PARTS
 10
 41.4020
 20
137.6680
 30
0.0
 0
VERTEX
 8
PARTS
 10
 39.3700
 20
137.6680
 30
0.0
 0
SEQEND
 8
PARTS
 0
POLYLINE
 8
PARTS
 66
1
 10
0.0
 20
0.0
 30
0.0
 0
VERTEX
 8
PARTS
 10
 40.1320
 20
136.9060
 30
0.0
 0
VERTEX
 8
PARTS
 10
 40.6400
 20
136.9060
 30
0.0
 0
SEQEND
 8
PARTS
 0
TEXT
 8
PARTTEXT
 10
 86.1060
 20
165.7963
 30
0.0
 40
  1.3057
 1
3.3V
 0
POLYLINE
 8
PARTS
 66
1
 10
0.0
 20
0.0
 30
0.0
 0
VERTEX
 8
PARTS
 10
 88.6460
 20
163.0680
 30
0.0
 0
VERTEX
 8
PARTS
 10
 88.6460
 20
162.0520
 30
0.0
 0
SEQEND
 8
PARTS
 0
POLYLINE
 8
PARTS
 66
1
 70
1
 10
0.0
 20
0.0
 30
0.0
 0
VERTEX
 8
PARTS
 10
 89.4080
 20
163.8300
 30
0.0
 42
  0.0985
 0
VERTEX
 8
PARTS
 10
 89.3500
 20
164.1216
 30
0.0
 42
  0.0985
 0
VERTEX
 8
PARTS
 10
 89.1848
 20
164.3688
 30
0.0
 42
  0.0985
 0
VERTEX
 8
PARTS
 10
 88.9376
 20
164.5340
 30
0.0
 42
  0.0985
 0
VERTEX
 8
PARTS
 10
 88.6460
 20
164.5920
 30
0.0
 42
  0.0985
 0
VERTEX
 8
PARTS
 10
 88.3544
 20
164.5340
 30
0.0
 42
  0.0985
 0
VERTEX
 8
PARTS
 10
 88.1072
 20
164.3688
 30
0.0
 42
  0.0985
 0
VERTEX
 8
PARTS
 10
 87.9420
 20
164.1216
 30
0.0
 42
  0.0985
 0
VERTEX
 8
PARTS
 10
 87.8840
 20
163.8300
 30
0.0
 42
  0.0985
 0
VERTEX
 8
PARTS
 10
 87.9420
 20
163.5384
 30
0.0
 42
  0.0985
 0
VERTEX
 8
PARTS
 10
 88.1072
 20
163.2912
 30
0.0
 42
  0.0985
 0
VERTEX
 8
PARTS
 10
 88.3544
 20
163.1260
 30
0.0
 42
  0.0985
 0
VERTEX
 8
PARTS
 10
 88.6460
 20
163.0680
 30
0.0
 42
  0.0985
 0
VERTEX
 8
PARTS
 10
 88.9376
 20
163.1260
 30
0.0
 42
  0.0985
 0
VERTEX
 8
PARTS
 10
 89.1848
 20
163.2912
 30
0.0
 42
  0.0985
 0
VERTEX
 8
PARTS
 10
 89.3500
 20
163.5384
 30
0.0
 42
  0.0985
 0
SEQEND
 8
PARTS
 0
POLYLINE
 8
PARTS
 66
1
 10
0.0
 20
0.0
 30
0.0
 0
VERTEX
 8
PARTS
 10
 78.4860
 20
172.2120
 30
0.0
 0
VERTEX
 8
PARTS
 10
 83.5660
 20
172.2120
 30
0.0
 0
SEQEND
 8
PARTS
 0
POLYLINE
 8
PARTS
 66
1
 10
0.0
 20
0.0
 30
0.0
 0
VERTEX
 8
PARTS
 10
 79.2480
 20
171.4500
 30
0.0
 0
VERTEX
 8
PARTS
 10
 82.8040
 20
171.4500
 30
0.0
 0
SEQEND
 8
PARTS
 0
POLYLINE
 8
PARTS
 66
1
 10
0.0
 20
0.0
 30
0.0
 0
VERTEX
 8
PARTS
 10
 82.0420
 20
170.6880
 30
0.0
 0
VERTEX
 8
PARTS
 10
 80.0100
 20
170.6880
 30
0.0
 0
SEQEND
 8
PARTS
 0
POLYLINE
 8
PARTS
 66
1
 10
0.0
 20
0.0
 30
0.0
 0
VERTEX
 8
PARTS
 10
 80.7720
 20
169.9260
 30
0.0
 0
VERTEX
 8
PARTS
 10
 81.2800
 20
169.9260
 30
0.0
 0
SEQEND
 8
PARTS
 0
TEXT
 8
PARTTEXT
 10
 48.0060
 20
178.4963
 30
0.0
 40
  1.3057
 1
3.3V
 0
POLYLINE
 8
PARTS
 66
1
 10
0.0
 20
0.0
 30
0.0
 0
VERTEX
 8
PARTS
 10
 50.5460
 20
175.7680
 30
0.0
 0
VERTEX
 8
PARTS
 10
 50.5460
 20
174.7520
 30
0.0
 0
SEQEND
 8
PARTS
 0
POLYLINE
 8
PARTS
 66
1
 70
1
 10
0.0
 20
0.0
 30
0.0
 0
VERTEX
 8
PARTS
 10
 51.3080
 20
176.5300
 30
0.0
 42
  0.0985
 0
VERTEX
 8
PARTS
 10
 51.2500
 20
176.8216
 30
0.0
 42
  0.0985
 0
VERTEX
 8
PARTS
 10
 51.0848
 20
177.0688
 30
0.0
 42
  0.0985
 0
VERTEX
 8
PARTS
 10
 50.8376
 20
177.2340
 30
0.0
 42
  0.0985
 0
VERTEX
 8
PARTS
 10
 50.5460
 20
177.2920
 30
0.0
 42
  0.0985
 0
VERTEX
 8
PARTS
 10
 50.2544
 20
177.2340
 30
0.0
 42
  0.0985
 0
VERTEX
 8
PARTS
 10
 50.0072
 20
177.0688
 30
0.0
 42
  0.0985
 0
VERTEX
 8
PARTS
 10
 49.8420
 20
176.8216
 30
0.0
 42
  0.0985
 0
VERTEX
 8
PARTS
 10
 49.7840
 20
176.5300
 30
0.0
 42
  0.0985
 0
VERTEX
 8
PARTS
 10
 49.8420
 20
176.2384
 30
0.0
 42
  0.0985
 0
VERTEX
 8
PARTS
 10
 50.0072
 20
175.9912
 30
0.0
 42
  0.0985
 0
VERTEX
 8
PARTS
 10
 50.2544
 20
175.8260
 30
0.0
 42
  0.0985
 0
VERTEX
 8
PARTS
 10
 50.5460
 20
175.7680
 30
0.0
 42
  0.0985
 0
VERTEX
 8
PARTS
 10
 50.8376
 20
175.8260
 30
0.0
 42
  0.0985
 0
VERTEX
 8
PARTS
 10
 51.0848
 20
175.9912
 30
0.0
 42
  0.0985
 0
VERTEX
 8
PARTS
 10
 51.2500
 20
176.2384
 30
0.0
 42
  0.0985
 0
SEQEND
 8
PARTS
 0
TEXT
 8
PARTTEXT
 10
 12.4460
 20
168.3363
 30
0.0
 40
  1.3057
 1
3.3V
 0
POLYLINE
 8
PARTS
 66
1
 10
0.0
 20
0.0
 30
0.0
 0
VERTEX
 8
PARTS
 10
 14.9860
 20
165.6080
 30
0.0
 0
VERTEX
 8
PARTS
 10
 14.9860
 20
164.5920
 30
0.0
 0
SEQEND
 8
PARTS
 0
POLYLINE
 8
PARTS
 66
1
 70
1
 10
0.0
 20
0.0
 30
0.0
 0
VERTEX
 8
PARTS
 10
 15.7480
 20
166.3700
 30
0.0
 42
  0.0985
 0
VERTEX
 8
PARTS
 10
 15.6900
 20
166.6616
 30
0.0
 42
  0.0985
 0
VERTEX
 8
PARTS
 10
 15.5248
 20
166.9088
 30
0.0
 42
  0.0985
 0
VERTEX
 8
PARTS
 10
 15.2776
 20
167.0740
 30
0.0
 42
  0.0985
 0
VERTEX
 8
PARTS
 10
 14.9860
 20
167.1320
 30
0.0
 42
  0.0985
 0
VERTEX
 8
PARTS
 10
 14.6944
 20
167.0740
 30
0.0
 42
  0.0985
 0
VERTEX
 8
PARTS
 10
 14.4472
 20
166.9088
 30
0.0
 42
  0.0985
 0
VERTEX
 8
PARTS
 10
 14.2820
 20
166.6616
 30
0.0
 42
  0.0985
 0
VERTEX
 8
PARTS
 10
 14.2240
 20
166.3700
 30
0.0
 42
  0.0985
 0
VERTEX
 8
PARTS
 10
 14.2820
 20
166.0784
 30
0.0
 42
  0.0985
 0
VERTEX
 8
PARTS
 10
 14.4472
 20
165.8312
 30
0.0
 42
  0.0985
 0
VERTEX
 8
PARTS
 10
 14.6944
 20
165.6660
 30
0.0
 42
  0.0985
 0
VERTEX
 8
PARTS
 10
 14.9860
 20
165.6080
 30
0.0
 42
  0.0985
 0
VERTEX
 8
PARTS
 10
 15.2776
 20
165.6660
 30
0.0
 42
  0.0985
 0
VERTEX
 8
PARTS
 10
 15.5248
 20
165.8312
 30
0.0
 42
  0.0985
 0
VERTEX
 8
PARTS
 10
 15.6900
 20
166.0784
 30
0.0
 42
  0.0985
 0
SEQEND
 8
PARTS
 0
POLYLINE
 8
COMMENTS
 66
1
 70
1
 10
0.0
 20
0.0
 30
0.0
 0
VERTEX
 8
COMMENTS
 10
 12.4460
 20
200.1520
 30
0.0
 0
VERTEX
 8
COMMENTS
 10
 93.7260
 20
200.1520
 30
0.0
 0
VERTEX
 8
COMMENTS
 10
 93.7260
 20
134.1120
 30
0.0
 0
VERTEX
 8
COMMENTS
 10
 12.4460
 20
134.1120
 30
0.0
 0
SEQEND
 8
COMMENTS
 0
POLYLINE
 8
COMMENTS
 66
1
 70
1
 10
0.0
 20
0.0
 30
0.0
 0
VERTEX
 8
COMMENTS
 10
 96.2660
 20
200.1520
 30
0.0
 0
VERTEX
 8
COMMENTS
 10
233.4260
 20
200.1520
 30
0.0
 0
VERTEX
 8
COMMENTS
 10
233.4260
 20
 90.9320
 30
0.0
 0
VERTEX
 8
COMMENTS
 10
 96.2660
 20
 90.9320
 30
0.0
 0
SEQEND
 8
COMMENTS
 0
POLYLINE
 8
COMMENTS
 66
1
 70
1
 10
0.0
 20
0.0
 30
0.0
 0
VERTEX
 8
COMMENTS
 10
235.9660
 20
200.1520
 30
0.0
 0
VERTEX
 8
COMMENTS
 10
327.4060
 20
200.1520
 30
0.0
 0
VERTEX
 8
COMMENTS
 10
327.4060
 20
 42.6720
 30
0.0
 0
VERTEX
 8
COMMENTS
 10
235.9660
 20
 42.6720
 30
0.0
 0
SEQEND
 8
COMMENTS
 0
POLYLINE
 8
COMMENTS
 66
1
 70
1
 10
0.0
 20
0.0
 30
0.0
 0
VERTEX
 8
COMMENTS
 10
 96.2660
 20
 88.3920
 30
0.0
 0
VERTEX
 8
COMMENTS
 10
233.4260
 20
 88.3920
 30
0.0
 0
VERTEX
 8
COMMENTS
 10
233.4260
 20
 42.6720
 30
0.0
 0
VERTEX
 8
COMMENTS
 10
 96.2660
 20
 42.6720
 30
0.0
 0
SEQEND
 8
COMMENTS
 0
TEXT
 8
COMMENTS
 10
286.7660
 20
 48.9563
 30
0.0
 40
  1.3057
 1
DRIVER
 0
TEXT
 8
COMMENTS
 10
167.3860
 20
196.2763
 30
0.0
 40
  1.3057
 1
CONTROLLER
 0
ENDSEC
 0
EOF
